<svg width="489" height="225" viewBox="0 0 489 225" fill="none" xmlns="http://www.w3.org/2000/svg">
<g filter="url(#filter0_d)">
<rect x="4" width="481" height="217" rx="20" fill="#27AE60"/>
<rect x="5" y="1" width="479" height="215" rx="19" stroke="black" stroke-width="2"/>
</g>
<path d="M163.477 84.6194L172.242 109.369L180.961 84.6194H190.195V118.744H183.141V109.416L183.844 93.3148L174.633 118.744H169.805L160.617 93.3382L161.32 109.416V118.744H154.289V84.6194H163.477ZM194.836 105.83C194.836 103.315 195.32 101.073 196.289 99.1038C197.258 97.1351 198.648 95.6116 200.461 94.5335C202.289 93.4554 204.406 92.9163 206.812 92.9163C210.234 92.9163 213.023 93.9632 215.18 96.0569C217.352 98.1507 218.562 100.994 218.812 104.588L218.859 106.323C218.859 110.213 217.773 113.338 215.602 115.698C213.43 118.041 210.516 119.213 206.859 119.213C203.203 119.213 200.281 118.041 198.094 115.698C195.922 113.354 194.836 110.166 194.836 106.135V105.83ZM201.609 106.323C201.609 108.729 202.062 110.573 202.969 111.854C203.875 113.119 205.172 113.752 206.859 113.752C208.5 113.752 209.781 113.127 210.703 111.877C211.625 110.612 212.086 108.596 212.086 105.83C212.086 103.471 211.625 101.643 210.703 100.346C209.781 99.0491 208.484 98.4007 206.812 98.4007C205.156 98.4007 203.875 99.0491 202.969 100.346C202.062 101.627 201.609 103.619 201.609 106.323ZM221.977 105.877C221.977 101.924 222.859 98.7757 224.625 96.4319C226.406 94.0882 228.836 92.9163 231.914 92.9163C234.383 92.9163 236.422 93.8382 238.031 95.6819V82.7444H244.828V118.744H238.711L238.383 116.049C236.695 118.159 234.523 119.213 231.867 119.213C228.883 119.213 226.484 118.041 224.672 115.698C222.875 113.338 221.977 110.065 221.977 105.877ZM228.75 106.369C228.75 108.744 229.164 110.565 229.992 111.83C230.82 113.096 232.023 113.729 233.602 113.729C235.695 113.729 237.172 112.846 238.031 111.08V101.073C237.188 99.3069 235.727 98.4241 233.648 98.4241C230.383 98.4241 228.75 101.073 228.75 106.369ZM265.266 116.166C263.594 118.198 261.281 119.213 258.328 119.213C255.609 119.213 253.531 118.432 252.094 116.869C250.672 115.307 249.945 113.018 249.914 110.002V93.3851H256.688V109.768C256.688 112.409 257.891 113.729 260.297 113.729C262.594 113.729 264.172 112.932 265.031 111.338V93.3851H271.828V118.744H265.453L265.266 116.166ZM284.086 118.744H277.289V82.7444H284.086V118.744ZM301.359 119.213C297.641 119.213 294.609 118.073 292.266 115.791C289.938 113.51 288.773 110.471 288.773 106.674V106.018C288.773 103.471 289.266 101.198 290.25 99.1976C291.234 97.1819 292.625 95.6351 294.422 94.5569C296.234 93.4632 298.297 92.9163 300.609 92.9163C304.078 92.9163 306.805 94.0101 308.789 96.1976C310.789 98.3851 311.789 101.487 311.789 105.502V108.268H295.641C295.859 109.924 296.516 111.252 297.609 112.252C298.719 113.252 300.117 113.752 301.805 113.752C304.414 113.752 306.453 112.807 307.922 110.916L311.25 114.643C310.234 116.08 308.859 117.205 307.125 118.018C305.391 118.815 303.469 119.213 301.359 119.213ZM300.586 98.4007C299.242 98.4007 298.148 98.8538 297.305 99.7601C296.477 100.666 295.945 101.963 295.711 103.651H305.133V103.112C305.102 101.612 304.695 100.455 303.914 99.6429C303.133 98.8148 302.023 98.4007 300.586 98.4007ZM329.391 111.737C329.391 110.909 328.977 110.26 328.148 109.791C327.336 109.307 326.023 108.877 324.211 108.502C318.18 107.237 315.164 104.674 315.164 100.815C315.164 98.5648 316.094 96.6898 317.953 95.1898C319.828 93.6741 322.273 92.9163 325.289 92.9163C328.508 92.9163 331.078 93.6741 333 95.1898C334.938 96.7054 335.906 98.6741 335.906 101.096H329.133C329.133 100.127 328.82 99.3304 328.195 98.7054C327.57 98.0648 326.594 97.7444 325.266 97.7444C324.125 97.7444 323.242 98.0023 322.617 98.5179C321.992 99.0335 321.68 99.6898 321.68 100.487C321.68 101.237 322.031 101.846 322.734 102.315C323.453 102.768 324.656 103.166 326.344 103.51C328.031 103.838 329.453 104.213 330.609 104.635C334.188 105.948 335.977 108.221 335.977 111.455C335.977 113.768 334.984 115.643 333 117.08C331.016 118.502 328.453 119.213 325.312 119.213C323.188 119.213 321.297 118.838 319.641 118.088C318 117.323 316.711 116.284 315.773 114.971C314.836 113.643 314.367 112.213 314.367 110.682H320.789C320.852 111.885 321.297 112.807 322.125 113.448C322.953 114.088 324.062 114.409 325.453 114.409C326.75 114.409 327.727 114.166 328.383 113.682C329.055 113.182 329.391 112.534 329.391 111.737Z" fill="white"/>
<defs>
<filter id="filter0_d" x="0" y="0" width="489" height="225" filterUnits="userSpaceOnUse" color-interpolation-filters="sRGB">
<feFlood flood-opacity="0" result="BackgroundImageFix"/>
<feColorMatrix in="SourceAlpha" type="matrix" values="0 0 0 0 0 0 0 0 0 0 0 0 0 0 0 0 0 0 127 0" result="hardAlpha"/>
<feOffset dy="4"/>
<feGaussianBlur stdDeviation="2"/>
<feColorMatrix type="matrix" values="0 0 0 0 0 0 0 0 0 0 0 0 0 0 0 0 0 0 0.25 0"/>
<feBlend mode="normal" in2="BackgroundImageFix" result="effect1_dropShadow"/>
<feBlend mode="normal" in="SourceGraphic" in2="effect1_dropShadow" result="shape"/>
</filter>
</defs>
</svg>
