<svg width="490" height="224" viewBox="0 0 490 224" fill="none" xmlns="http://www.w3.org/2000/svg">
<g filter="url(#filter0_d)">
<rect x="4" width="482" height="216" rx="20" fill="#F2994A"/>
<rect x="5" y="1" width="480" height="214" rx="19" stroke="black" stroke-width="2"/>
</g>
<path d="M172.648 109.447C172.648 108.119 172.18 107.103 171.242 106.4C170.305 105.681 168.617 104.931 166.18 104.15C163.742 103.353 161.812 102.572 160.391 101.806C156.516 99.7125 154.578 96.8922 154.578 93.3453C154.578 91.5016 155.094 89.8609 156.125 88.4234C157.172 86.9703 158.664 85.8375 160.601 85.025C162.555 84.2125 164.742 83.8063 167.164 83.8063C169.601 83.8063 171.773 84.2516 173.68 85.1422C175.586 86.0172 177.062 87.2594 178.109 88.8688C179.172 90.4781 179.703 92.3063 179.703 94.3531H172.672C172.672 92.7906 172.18 91.5797 171.195 90.7203C170.211 89.8453 168.828 89.4078 167.047 89.4078C165.328 89.4078 163.992 89.775 163.039 90.5094C162.086 91.2281 161.609 92.1813 161.609 93.3688C161.609 94.4781 162.164 95.4078 163.273 96.1578C164.398 96.9078 166.047 97.6109 168.219 98.2672C172.219 99.4703 175.133 100.963 176.961 102.744C178.789 104.525 179.703 106.744 179.703 109.4C179.703 112.353 178.586 114.673 176.351 116.361C174.117 118.033 171.109 118.869 167.328 118.869C164.703 118.869 162.312 118.392 160.156 117.439C158 116.47 156.351 115.15 155.211 113.478C154.086 111.806 153.523 109.869 153.523 107.666H160.578C160.578 111.431 162.828 113.314 167.328 113.314C169 113.314 170.305 112.978 171.242 112.306C172.18 111.619 172.648 110.666 172.648 109.447ZM195.711 118.869C191.992 118.869 188.961 117.728 186.617 115.447C184.289 113.166 183.125 110.127 183.125 106.33V105.673C183.125 103.127 183.617 100.853 184.601 98.8531C185.586 96.8375 186.976 95.2906 188.773 94.2125C190.586 93.1188 192.648 92.5719 194.961 92.5719C198.43 92.5719 201.156 93.6656 203.141 95.8531C205.141 98.0406 206.141 101.142 206.141 105.158V107.923H189.992C190.211 109.58 190.867 110.908 191.961 111.908C193.07 112.908 194.469 113.408 196.156 113.408C198.766 113.408 200.805 112.463 202.273 110.572L205.601 114.298C204.586 115.736 203.211 116.861 201.476 117.673C199.742 118.47 197.82 118.869 195.711 118.869ZM194.937 98.0563C193.594 98.0563 192.5 98.5094 191.656 99.4156C190.828 100.322 190.297 101.619 190.062 103.306H199.484V102.767C199.453 101.267 199.047 100.111 198.266 99.2984C197.484 98.4703 196.375 98.0563 194.937 98.0563ZM224.258 99.3922C223.336 99.2672 222.523 99.2047 221.82 99.2047C219.258 99.2047 217.578 100.072 216.781 101.806V118.4H210.008V93.0406H216.406L216.594 96.0641C217.953 93.7359 219.836 92.5719 222.242 92.5719C222.992 92.5719 223.695 92.6734 224.351 92.8766L224.258 99.3922ZM237.453 110.127L242.164 93.0406H249.242L240.687 118.4H234.219L225.664 93.0406H232.742L237.453 110.127ZM259.391 118.4H252.594V93.0406H259.391V118.4ZM252.195 86.4781C252.195 85.4625 252.531 84.6266 253.203 83.9703C253.891 83.3141 254.82 82.9859 255.992 82.9859C257.148 82.9859 258.07 83.3141 258.758 83.9703C259.445 84.6266 259.789 85.4625 259.789 86.4781C259.789 87.5094 259.437 88.3531 258.734 89.0094C258.047 89.6656 257.133 89.9938 255.992 89.9938C254.851 89.9938 253.93 89.6656 253.226 89.0094C252.539 88.3531 252.195 87.5094 252.195 86.4781ZM275.539 113.408C276.789 113.408 277.805 113.064 278.586 112.377C279.367 111.689 279.773 110.775 279.805 109.634H286.156C286.141 111.353 285.672 112.931 284.75 114.369C283.828 115.791 282.562 116.9 280.953 117.697C279.359 118.478 277.594 118.869 275.656 118.869C272.031 118.869 269.172 117.72 267.078 115.423C264.984 113.111 263.937 109.923 263.937 105.861V105.416C263.937 101.509 264.976 98.3922 267.055 96.0641C269.133 93.7359 271.984 92.5719 275.609 92.5719C278.781 92.5719 281.32 93.4781 283.226 95.2906C285.148 97.0875 286.125 99.4859 286.156 102.486H279.805C279.773 101.173 279.367 100.111 278.586 99.2984C277.805 98.4703 276.773 98.0563 275.492 98.0563C273.914 98.0563 272.719 98.6344 271.906 99.7906C271.109 100.931 270.711 102.791 270.711 105.369V106.072C270.711 108.681 271.109 110.556 271.906 111.697C272.703 112.838 273.914 113.408 275.539 113.408ZM301.695 118.869C297.976 118.869 294.945 117.728 292.601 115.447C290.273 113.166 289.109 110.127 289.109 106.33V105.673C289.109 103.127 289.601 100.853 290.586 98.8531C291.57 96.8375 292.961 95.2906 294.758 94.2125C296.57 93.1188 298.633 92.5719 300.945 92.5719C304.414 92.5719 307.141 93.6656 309.125 95.8531C311.125 98.0406 312.125 101.142 312.125 105.158V107.923H295.976C296.195 109.58 296.851 110.908 297.945 111.908C299.055 112.908 300.453 113.408 302.141 113.408C304.75 113.408 306.789 112.463 308.258 110.572L311.586 114.298C310.57 115.736 309.195 116.861 307.461 117.673C305.726 118.47 303.805 118.869 301.695 118.869ZM300.922 98.0563C299.578 98.0563 298.484 98.5094 297.641 99.4156C296.812 100.322 296.281 101.619 296.047 103.306H305.469V102.767C305.437 101.267 305.031 100.111 304.25 99.2984C303.469 98.4703 302.359 98.0563 300.922 98.0563ZM329.726 111.392C329.726 110.564 329.312 109.916 328.484 109.447C327.672 108.963 326.359 108.533 324.547 108.158C318.516 106.892 315.5 104.33 315.5 100.47C315.5 98.2203 316.43 96.3453 318.289 94.8453C320.164 93.3297 322.609 92.5719 325.625 92.5719C328.844 92.5719 331.414 93.3297 333.336 94.8453C335.273 96.3609 336.242 98.3297 336.242 100.752H329.469C329.469 99.7828 329.156 98.9859 328.531 98.3609C327.906 97.7203 326.93 97.4 325.601 97.4C324.461 97.4 323.578 97.6578 322.953 98.1734C322.328 98.6891 322.016 99.3453 322.016 100.142C322.016 100.892 322.367 101.502 323.07 101.97C323.789 102.423 324.992 102.822 326.68 103.166C328.367 103.494 329.789 103.869 330.945 104.291C334.523 105.603 336.312 107.877 336.312 111.111C336.312 113.423 335.32 115.298 333.336 116.736C331.351 118.158 328.789 118.869 325.648 118.869C323.523 118.869 321.633 118.494 319.976 117.744C318.336 116.978 317.047 115.939 316.109 114.627C315.172 113.298 314.703 111.869 314.703 110.338H321.125C321.187 111.541 321.633 112.463 322.461 113.103C323.289 113.744 324.398 114.064 325.789 114.064C327.086 114.064 328.062 113.822 328.719 113.338C329.391 112.838 329.726 112.189 329.726 111.392Z" fill="white"/>
<defs>
<filter id="filter0_d" x="0" y="0" width="490" height="224" filterUnits="userSpaceOnUse" color-interpolation-filters="sRGB">
<feFlood flood-opacity="0" result="BackgroundImageFix"/>
<feColorMatrix in="SourceAlpha" type="matrix" values="0 0 0 0 0 0 0 0 0 0 0 0 0 0 0 0 0 0 127 0" result="hardAlpha"/>
<feOffset dy="4"/>
<feGaussianBlur stdDeviation="2"/>
<feColorMatrix type="matrix" values="0 0 0 0 0 0 0 0 0 0 0 0 0 0 0 0 0 0 0.25 0"/>
<feBlend mode="normal" in2="BackgroundImageFix" result="effect1_dropShadow"/>
<feBlend mode="normal" in="SourceGraphic" in2="effect1_dropShadow" result="shape"/>
</filter>
</defs>
</svg>
