<svg width="489" height="225" viewBox="0 0 489 225" fill="none" xmlns="http://www.w3.org/2000/svg">
<g filter="url(#filter0_d)">
<rect x="4" width="481" height="217" rx="20" fill="#EB5757"/>
<rect x="5" y="1" width="479" height="215" rx="19" stroke="black" stroke-width="2"/>
</g>
<path d="M139.734 118.744V84.6194H150.234C153.234 84.6194 155.914 85.2991 158.274 86.6585C160.649 88.0023 162.5 89.9241 163.828 92.4241C165.156 94.9085 165.82 97.7366 165.82 100.909V102.479C165.82 105.651 165.164 108.471 163.852 110.94C162.555 113.409 160.719 115.323 158.344 116.682C155.969 118.041 153.289 118.729 150.305 118.744H139.734ZM146.766 90.3148V113.096H150.164C152.914 113.096 155.016 112.198 156.469 110.401C157.922 108.604 158.664 106.034 158.695 102.69V100.885C158.695 97.4163 157.977 94.7913 156.539 93.0101C155.102 91.2132 153 90.3148 150.234 90.3148H146.766ZM177.656 118.744H170.859V93.3851H177.656V118.744ZM170.461 86.8226C170.461 85.8069 170.797 84.971 171.469 84.3148C172.156 83.6585 173.086 83.3304 174.258 83.3304C175.414 83.3304 176.336 83.6585 177.024 84.3148C177.711 84.971 178.055 85.8069 178.055 86.8226C178.055 87.8538 177.703 88.6976 177 89.3538C176.313 90.0101 175.399 90.3382 174.258 90.3382C173.117 90.3382 172.195 90.0101 171.492 89.3538C170.805 88.6976 170.461 87.8538 170.461 86.8226ZM197.508 99.7366C196.586 99.6116 195.774 99.5491 195.07 99.5491C192.508 99.5491 190.828 100.416 190.031 102.151V118.744H183.258V93.3851H189.656L189.844 96.4085C191.203 94.0804 193.086 92.9163 195.492 92.9163C196.242 92.9163 196.945 93.0179 197.602 93.221L197.508 99.7366ZM211.992 119.213C208.274 119.213 205.242 118.073 202.899 115.791C200.57 113.51 199.406 110.471 199.406 106.674V106.018C199.406 103.471 199.899 101.198 200.883 99.1976C201.867 97.1819 203.258 95.6351 205.055 94.5569C206.867 93.4632 208.93 92.9163 211.242 92.9163C214.711 92.9163 217.438 94.0101 219.422 96.1976C221.422 98.3851 222.422 101.487 222.422 105.502V108.268H206.274C206.492 109.924 207.149 111.252 208.242 112.252C209.352 113.252 210.75 113.752 212.438 113.752C215.047 113.752 217.086 112.807 218.555 110.916L221.883 114.643C220.867 116.08 219.492 117.205 217.758 118.018C216.024 118.815 214.102 119.213 211.992 119.213ZM211.219 98.4007C209.875 98.4007 208.781 98.8538 207.938 99.7601C207.109 100.666 206.578 101.963 206.344 103.651H215.766V103.112C215.734 101.612 215.328 100.455 214.547 99.6429C213.766 98.8148 212.656 98.4007 211.219 98.4007ZM236.836 113.752C238.086 113.752 239.102 113.409 239.883 112.721C240.664 112.034 241.07 111.119 241.102 109.979H247.453C247.438 111.698 246.969 113.276 246.047 114.713C245.125 116.135 243.859 117.244 242.25 118.041C240.656 118.823 238.891 119.213 236.953 119.213C233.328 119.213 230.469 118.065 228.375 115.768C226.281 113.455 225.234 110.268 225.234 106.205V105.76C225.234 101.854 226.274 98.7366 228.352 96.4085C230.43 94.0804 233.281 92.9163 236.906 92.9163C240.078 92.9163 242.617 93.8226 244.524 95.6351C246.445 97.4319 247.422 99.8304 247.453 102.83H241.102C241.07 101.518 240.664 100.455 239.883 99.6429C239.102 98.8148 238.07 98.4007 236.789 98.4007C235.211 98.4007 234.016 98.9788 233.203 100.135C232.406 101.276 232.008 103.135 232.008 105.713V106.416C232.008 109.026 232.406 110.901 233.203 112.041C234 113.182 235.211 113.752 236.836 113.752ZM259.43 87.1507V93.3851H263.766V98.3538H259.43V111.01C259.43 111.948 259.609 112.619 259.969 113.026C260.328 113.432 261.016 113.635 262.031 113.635C262.781 113.635 263.445 113.58 264.024 113.471V118.604C262.695 119.01 261.328 119.213 259.922 119.213C255.172 119.213 252.75 116.815 252.656 112.018V98.3538H248.953V93.3851H252.656V87.1507H259.43ZM274.688 118.744H267.891V93.3851H274.688V118.744ZM267.492 86.8226C267.492 85.8069 267.828 84.971 268.5 84.3148C269.188 83.6585 270.117 83.3304 271.289 83.3304C272.445 83.3304 273.367 83.6585 274.055 84.3148C274.742 84.971 275.086 85.8069 275.086 86.8226C275.086 87.8538 274.734 88.6976 274.031 89.3538C273.344 90.0101 272.43 90.3382 271.289 90.3382C270.149 90.3382 269.227 90.0101 268.524 89.3538C267.836 88.6976 267.492 87.8538 267.492 86.8226ZM289.781 110.471L294.492 93.3851H301.57L293.016 118.744H286.547L277.992 93.3851H285.07L289.781 110.471ZM315.914 119.213C312.195 119.213 309.164 118.073 306.82 115.791C304.492 113.51 303.328 110.471 303.328 106.674V106.018C303.328 103.471 303.82 101.198 304.805 99.1976C305.789 97.1819 307.18 95.6351 308.977 94.5569C310.789 93.4632 312.852 92.9163 315.164 92.9163C318.633 92.9163 321.359 94.0101 323.344 96.1976C325.344 98.3851 326.344 101.487 326.344 105.502V108.268H310.195C310.414 109.924 311.07 111.252 312.164 112.252C313.274 113.252 314.672 113.752 316.359 113.752C318.969 113.752 321.008 112.807 322.477 110.916L325.805 114.643C324.789 116.08 323.414 117.205 321.68 118.018C319.945 118.815 318.024 119.213 315.914 119.213ZM315.141 98.4007C313.797 98.4007 312.703 98.8538 311.859 99.7601C311.031 100.666 310.5 101.963 310.266 103.651H319.688V103.112C319.656 101.612 319.25 100.455 318.469 99.6429C317.688 98.8148 316.578 98.4007 315.141 98.4007ZM343.945 111.737C343.945 110.909 343.531 110.26 342.703 109.791C341.891 109.307 340.578 108.877 338.766 108.502C332.734 107.237 329.719 104.674 329.719 100.815C329.719 98.5648 330.649 96.6898 332.508 95.1898C334.383 93.6741 336.828 92.9163 339.844 92.9163C343.063 92.9163 345.633 93.6741 347.555 95.1898C349.492 96.7054 350.461 98.6741 350.461 101.096H343.688C343.688 100.127 343.375 99.3304 342.75 98.7054C342.125 98.0648 341.149 97.7444 339.82 97.7444C338.68 97.7444 337.797 98.0023 337.172 98.5179C336.547 99.0335 336.234 99.6898 336.234 100.487C336.234 101.237 336.586 101.846 337.289 102.315C338.008 102.768 339.211 103.166 340.899 103.51C342.586 103.838 344.008 104.213 345.164 104.635C348.742 105.948 350.531 108.221 350.531 111.455C350.531 113.768 349.539 115.643 347.555 117.08C345.57 118.502 343.008 119.213 339.867 119.213C337.742 119.213 335.852 118.838 334.195 118.088C332.555 117.323 331.266 116.284 330.328 114.971C329.391 113.643 328.922 112.213 328.922 110.682H335.344C335.406 111.885 335.852 112.807 336.68 113.448C337.508 114.088 338.617 114.409 340.008 114.409C341.305 114.409 342.281 114.166 342.938 113.682C343.609 113.182 343.945 112.534 343.945 111.737Z" fill="white"/>
<defs>
<filter id="filter0_d" x="0" y="0" width="489" height="225" filterUnits="userSpaceOnUse" color-interpolation-filters="sRGB">
<feFlood flood-opacity="0" result="BackgroundImageFix"/>
<feColorMatrix in="SourceAlpha" type="matrix" values="0 0 0 0 0 0 0 0 0 0 0 0 0 0 0 0 0 0 127 0" result="hardAlpha"/>
<feOffset dy="4"/>
<feGaussianBlur stdDeviation="2"/>
<feColorMatrix type="matrix" values="0 0 0 0 0 0 0 0 0 0 0 0 0 0 0 0 0 0 0.25 0"/>
<feBlend mode="normal" in2="BackgroundImageFix" result="effect1_dropShadow"/>
<feBlend mode="normal" in="SourceGraphic" in2="effect1_dropShadow" result="shape"/>
</filter>
</defs>
</svg>
