<svg width="489" height="225" viewBox="0 0 489 225" fill="none" xmlns="http://www.w3.org/2000/svg">
<g filter="url(#filter0_d)">
<rect x="4" width="481" height="217" rx="20" fill="#2F80ED"/>
<rect x="5" y="1" width="479" height="215" rx="19" stroke="black" stroke-width="2"/>
</g>
<path d="M136.828 107.377C136.562 111.049 135.203 113.94 132.75 116.049C130.312 118.159 127.094 119.213 123.094 119.213C118.719 119.213 115.273 117.744 112.758 114.807C110.258 111.854 109.008 107.807 109.008 102.666V100.58C109.008 97.2991 109.586 94.4085 110.742 91.9085C111.898 89.4085 113.547 87.4944 115.688 86.1663C117.844 84.8226 120.344 84.1507 123.188 84.1507C127.125 84.1507 130.297 85.2054 132.703 87.3148C135.109 89.4241 136.5 92.3851 136.875 96.1976H129.844C129.672 93.9944 129.055 92.4007 127.992 91.4163C126.945 90.4163 125.344 89.9163 123.188 89.9163C120.844 89.9163 119.086 90.7601 117.914 92.4476C116.758 94.1194 116.164 96.721 116.133 100.252V102.83C116.133 106.518 116.688 109.213 117.797 110.916C118.922 112.619 120.688 113.471 123.094 113.471C125.266 113.471 126.883 112.979 127.945 111.994C129.023 110.994 129.641 109.455 129.797 107.377H136.828ZM139.945 105.83C139.945 103.315 140.43 101.073 141.398 99.1038C142.367 97.1351 143.758 95.6116 145.57 94.5335C147.398 93.4554 149.516 92.9163 151.922 92.9163C155.344 92.9163 158.133 93.9632 160.289 96.0569C162.461 98.1507 163.672 100.994 163.922 104.588L163.969 106.323C163.969 110.213 162.883 113.338 160.711 115.698C158.539 118.041 155.625 119.213 151.969 119.213C148.312 119.213 145.391 118.041 143.203 115.698C141.031 113.354 139.945 110.166 139.945 106.135V105.83ZM146.719 106.323C146.719 108.729 147.172 110.573 148.078 111.854C148.984 113.119 150.281 113.752 151.969 113.752C153.609 113.752 154.891 113.127 155.812 111.877C156.734 110.612 157.195 108.596 157.195 105.83C157.195 103.471 156.734 101.643 155.812 100.346C154.891 99.0491 153.594 98.4007 151.922 98.4007C150.266 98.4007 148.984 99.0491 148.078 100.346C147.172 101.627 146.719 103.619 146.719 106.323ZM174.492 93.3851L174.703 96.221C176.5 94.0179 178.93 92.9163 181.992 92.9163C185.258 92.9163 187.5 94.2054 188.719 96.7835C190.5 94.2054 193.039 92.9163 196.336 92.9163C199.086 92.9163 201.133 93.721 202.477 95.3304C203.82 96.9241 204.492 99.3304 204.492 102.549V118.744H197.695V102.573C197.695 101.135 197.414 100.088 196.852 99.4319C196.289 98.7601 195.297 98.4241 193.875 98.4241C191.844 98.4241 190.438 99.3929 189.656 101.33L189.68 118.744H182.906V102.596C182.906 101.127 182.617 100.065 182.039 99.4085C181.461 98.7523 180.477 98.4241 179.086 98.4241C177.164 98.4241 175.773 99.221 174.914 100.815V118.744H168.141V93.3851H174.492ZM232.547 106.299C232.547 110.205 231.656 113.338 229.875 115.698C228.109 118.041 225.719 119.213 222.703 119.213C220.141 119.213 218.07 118.323 216.492 116.541V128.494H209.719V93.3851H216L216.234 95.8694C217.875 93.9007 220.016 92.9163 222.656 92.9163C225.781 92.9163 228.211 94.0726 229.945 96.3851C231.68 98.6976 232.547 101.885 232.547 105.948V106.299ZM225.773 105.807C225.773 103.448 225.352 101.627 224.508 100.346C223.68 99.0648 222.469 98.4241 220.875 98.4241C218.75 98.4241 217.289 99.2366 216.492 100.862V111.244C217.32 112.916 218.797 113.752 220.922 113.752C224.156 113.752 225.773 111.104 225.773 105.807ZM235.711 105.83C235.711 103.315 236.195 101.073 237.164 99.1038C238.133 97.1351 239.523 95.6116 241.336 94.5335C243.164 93.4554 245.281 92.9163 247.688 92.9163C251.109 92.9163 253.898 93.9632 256.055 96.0569C258.227 98.1507 259.438 100.994 259.688 104.588L259.734 106.323C259.734 110.213 258.648 113.338 256.477 115.698C254.305 118.041 251.391 119.213 247.734 119.213C244.078 119.213 241.156 118.041 238.969 115.698C236.797 113.354 235.711 110.166 235.711 106.135V105.83ZM242.484 106.323C242.484 108.729 242.938 110.573 243.844 111.854C244.75 113.119 246.047 113.752 247.734 113.752C249.375 113.752 250.656 113.127 251.578 111.877C252.5 110.612 252.961 108.596 252.961 105.83C252.961 103.471 252.5 101.643 251.578 100.346C250.656 99.0491 249.359 98.4007 247.688 98.4007C246.031 98.4007 244.75 99.0491 243.844 100.346C242.938 101.627 242.484 103.619 242.484 106.323ZM270.141 93.3851L270.352 96.3148C272.164 94.0491 274.594 92.9163 277.641 92.9163C280.328 92.9163 282.328 93.7054 283.641 95.2835C284.953 96.8616 285.625 99.221 285.656 102.362V118.744H278.883V102.526C278.883 101.088 278.57 100.049 277.945 99.4085C277.32 98.7523 276.281 98.4241 274.828 98.4241C272.922 98.4241 271.492 99.2366 270.539 100.862V118.744H263.766V93.3851H270.141ZM302.484 119.213C298.766 119.213 295.734 118.073 293.391 115.791C291.062 113.51 289.898 110.471 289.898 106.674V106.018C289.898 103.471 290.391 101.198 291.375 99.1976C292.359 97.1819 293.75 95.6351 295.547 94.5569C297.359 93.4632 299.422 92.9163 301.734 92.9163C305.203 92.9163 307.93 94.0101 309.914 96.1976C311.914 98.3851 312.914 101.487 312.914 105.502V108.268H296.766C296.984 109.924 297.641 111.252 298.734 112.252C299.844 113.252 301.242 113.752 302.93 113.752C305.539 113.752 307.578 112.807 309.047 110.916L312.375 114.643C311.359 116.08 309.984 117.205 308.25 118.018C306.516 118.815 304.594 119.213 302.484 119.213ZM301.711 98.4007C300.367 98.4007 299.273 98.8538 298.43 99.7601C297.602 100.666 297.07 101.963 296.836 103.651H306.258V103.112C306.227 101.612 305.82 100.455 305.039 99.6429C304.258 98.8148 303.148 98.4007 301.711 98.4007ZM323.016 93.3851L323.227 96.3148C325.039 94.0491 327.469 92.9163 330.516 92.9163C333.203 92.9163 335.203 93.7054 336.516 95.2835C337.828 96.8616 338.5 99.221 338.531 102.362V118.744H331.758V102.526C331.758 101.088 331.445 100.049 330.82 99.4085C330.195 98.7523 329.156 98.4241 327.703 98.4241C325.797 98.4241 324.367 99.2366 323.414 100.862V118.744H316.641V93.3851H323.016ZM351.797 87.1507V93.3851H356.133V98.3538H351.797V111.01C351.797 111.948 351.977 112.619 352.336 113.026C352.695 113.432 353.383 113.635 354.398 113.635C355.148 113.635 355.812 113.58 356.391 113.471V118.604C355.062 119.01 353.695 119.213 352.289 119.213C347.539 119.213 345.117 116.815 345.023 112.018V98.3538H341.32V93.3851H345.023V87.1507H351.797ZM373.641 111.737C373.641 110.909 373.227 110.26 372.398 109.791C371.586 109.307 370.273 108.877 368.461 108.502C362.43 107.237 359.414 104.674 359.414 100.815C359.414 98.5648 360.344 96.6898 362.203 95.1898C364.078 93.6741 366.523 92.9163 369.539 92.9163C372.758 92.9163 375.328 93.6741 377.25 95.1898C379.188 96.7054 380.156 98.6741 380.156 101.096H373.383C373.383 100.127 373.07 99.3304 372.445 98.7054C371.82 98.0648 370.844 97.7444 369.516 97.7444C368.375 97.7444 367.492 98.0023 366.867 98.5179C366.242 99.0335 365.93 99.6898 365.93 100.487C365.93 101.237 366.281 101.846 366.984 102.315C367.703 102.768 368.906 103.166 370.594 103.51C372.281 103.838 373.703 104.213 374.859 104.635C378.438 105.948 380.227 108.221 380.227 111.455C380.227 113.768 379.234 115.643 377.25 117.08C375.266 118.502 372.703 119.213 369.562 119.213C367.438 119.213 365.547 118.838 363.891 118.088C362.25 117.323 360.961 116.284 360.023 114.971C359.086 113.643 358.617 112.213 358.617 110.682H365.039C365.102 111.885 365.547 112.807 366.375 113.448C367.203 114.088 368.312 114.409 369.703 114.409C371 114.409 371.977 114.166 372.633 113.682C373.305 113.182 373.641 112.534 373.641 111.737Z" fill="white"/>
<defs>
<filter id="filter0_d" x="0" y="0" width="489" height="225" filterUnits="userSpaceOnUse" color-interpolation-filters="sRGB">
<feFlood flood-opacity="0" result="BackgroundImageFix"/>
<feColorMatrix in="SourceAlpha" type="matrix" values="0 0 0 0 0 0 0 0 0 0 0 0 0 0 0 0 0 0 127 0" result="hardAlpha"/>
<feOffset dy="4"/>
<feGaussianBlur stdDeviation="2"/>
<feColorMatrix type="matrix" values="0 0 0 0 0 0 0 0 0 0 0 0 0 0 0 0 0 0 0.25 0"/>
<feBlend mode="normal" in2="BackgroundImageFix" result="effect1_dropShadow"/>
<feBlend mode="normal" in="SourceGraphic" in2="effect1_dropShadow" result="shape"/>
</filter>
</defs>
</svg>
