<svg width="488" height="224" viewBox="0 0 488 224" fill="none" xmlns="http://www.w3.org/2000/svg">
<g filter="url(#filter0_d)">
<rect x="4" width="480" height="216" rx="20" fill="#9B51E0"/>
<rect x="5" y="1" width="478" height="214" rx="19" stroke="black" stroke-width="2"/>
</g>
<path d="M175.703 105.908H170.102V118.4H163.07V84.275H175.75C179.781 84.275 182.891 85.1734 185.078 86.9703C187.266 88.7672 188.359 91.3063 188.359 94.5875C188.359 96.9156 187.852 98.8609 186.836 100.423C185.836 101.97 184.312 103.205 182.266 104.127L189.648 118.072V118.4H182.102L175.703 105.908ZM170.102 100.213H175.773C177.539 100.213 178.906 99.7672 179.875 98.8766C180.844 97.9703 181.328 96.7281 181.328 95.15C181.328 93.5406 180.867 92.275 179.945 91.3531C179.039 90.4313 177.641 89.9703 175.75 89.9703H170.102V100.213ZM192.227 105.486C192.227 102.97 192.711 100.728 193.68 98.7594C194.648 96.7906 196.039 95.2672 197.852 94.1891C199.68 93.1109 201.797 92.5719 204.203 92.5719C207.625 92.5719 210.414 93.6188 212.57 95.7125C214.742 97.8063 215.953 100.65 216.203 104.244L216.25 105.978C216.25 109.869 215.164 112.994 212.992 115.353C210.82 117.697 207.906 118.869 204.25 118.869C200.594 118.869 197.672 117.697 195.484 115.353C193.312 113.009 192.227 109.822 192.227 105.791V105.486ZM199 105.978C199 108.384 199.453 110.228 200.359 111.509C201.266 112.775 202.562 113.408 204.25 113.408C205.891 113.408 207.172 112.783 208.094 111.533C209.016 110.267 209.477 108.252 209.477 105.486C209.477 103.127 209.016 101.298 208.094 100.002C207.172 98.7047 205.875 98.0563 204.203 98.0563C202.547 98.0563 201.266 98.7047 200.359 100.002C199.453 101.283 199 103.275 199 105.978ZM235.609 115.822C233.937 117.853 231.625 118.869 228.672 118.869C225.953 118.869 223.875 118.088 222.437 116.525C221.016 114.963 220.289 112.673 220.258 109.658V93.0406H227.031V109.423C227.031 112.064 228.234 113.384 230.641 113.384C232.937 113.384 234.516 112.588 235.375 110.994V93.0406H242.172V118.4H235.797L235.609 115.822ZM255.391 86.8063V93.0406H259.727V98.0094H255.391V110.666C255.391 111.603 255.57 112.275 255.93 112.681C256.289 113.088 256.977 113.291 257.992 113.291C258.742 113.291 259.406 113.236 259.984 113.127V118.259C258.656 118.666 257.289 118.869 255.883 118.869C251.133 118.869 248.711 116.47 248.617 111.673V98.0094H244.914V93.0406H248.617V86.8063H255.391ZM270.648 118.4H263.852V93.0406H270.648V118.4ZM263.453 86.4781C263.453 85.4625 263.789 84.6266 264.461 83.9703C265.148 83.3141 266.078 82.9859 267.25 82.9859C268.406 82.9859 269.328 83.3141 270.016 83.9703C270.703 84.6266 271.047 85.4625 271.047 86.4781C271.047 87.5094 270.695 88.3531 269.992 89.0094C269.305 89.6656 268.391 89.9938 267.25 89.9938C266.109 89.9938 265.187 89.6656 264.484 89.0094C263.797 88.3531 263.453 87.5094 263.453 86.4781ZM282.484 93.0406L282.695 95.9703C284.508 93.7047 286.938 92.5719 289.984 92.5719C292.672 92.5719 294.672 93.3609 295.984 94.9391C297.297 96.5172 297.969 98.8766 298 102.017V118.4H291.227V102.181C291.227 100.744 290.914 99.7047 290.289 99.0641C289.664 98.4078 288.625 98.0797 287.172 98.0797C285.266 98.0797 283.836 98.8922 282.883 100.517V118.4H276.109V93.0406H282.484ZM302.172 105.533C302.172 101.642 303.094 98.5094 304.938 96.1344C306.797 93.7594 309.297 92.5719 312.438 92.5719C315.219 92.5719 317.383 93.525 318.93 95.4313L319.211 93.0406H325.352V117.556C325.352 119.775 324.844 121.705 323.828 123.345C322.828 124.986 321.414 126.236 319.586 127.095C317.758 127.955 315.617 128.384 313.164 128.384C311.305 128.384 309.492 128.009 307.727 127.259C305.961 126.525 304.625 125.572 303.719 124.4L306.719 120.275C308.406 122.166 310.453 123.111 312.859 123.111C314.656 123.111 316.055 122.627 317.055 121.658C318.055 120.705 318.555 119.345 318.555 117.58V116.22C316.992 117.986 314.938 118.869 312.391 118.869C309.344 118.869 306.875 117.681 304.984 115.306C303.109 112.916 302.172 109.752 302.172 105.814V105.533ZM308.945 106.025C308.945 108.322 309.406 110.127 310.328 111.439C311.25 112.736 312.516 113.384 314.125 113.384C316.188 113.384 317.664 112.611 318.555 111.064V100.4C317.648 98.8531 316.188 98.0797 314.172 98.0797C312.547 98.0797 311.266 98.7438 310.328 100.072C309.406 101.4 308.945 103.384 308.945 106.025Z" fill="white"/>
<defs>
<filter id="filter0_d" x="0" y="0" width="488" height="224" filterUnits="userSpaceOnUse" color-interpolation-filters="sRGB">
<feFlood flood-opacity="0" result="BackgroundImageFix"/>
<feColorMatrix in="SourceAlpha" type="matrix" values="0 0 0 0 0 0 0 0 0 0 0 0 0 0 0 0 0 0 127 0" result="hardAlpha"/>
<feOffset dy="4"/>
<feGaussianBlur stdDeviation="2"/>
<feColorMatrix type="matrix" values="0 0 0 0 0 0 0 0 0 0 0 0 0 0 0 0 0 0 0.25 0"/>
<feBlend mode="normal" in2="BackgroundImageFix" result="effect1_dropShadow"/>
<feBlend mode="normal" in="SourceGraphic" in2="effect1_dropShadow" result="shape"/>
</filter>
</defs>
</svg>
