<svg width="1288" height="688" viewBox="0 0 1288 688" fill="none" xmlns="http://www.w3.org/2000/svg">
<g filter="url(#filter0_d)">
<rect x="4" width="1280" height="680" rx="20" fill="white"/>
<rect x="5" y="1" width="1278" height="678" rx="19" stroke="#27AE60" stroke-width="2"/>
</g>
<path d="M575.49 37.3351L584.255 62.0851L592.974 37.3351H602.209V71.4601H595.154V62.132L595.857 46.0305L586.646 71.4601H581.818L572.63 46.0539L573.334 62.132V71.4601H566.302V37.3351H575.49ZM606.849 58.5461C606.849 56.0305 607.334 53.7883 608.302 51.8195C609.271 49.8508 610.662 48.3273 612.474 47.2492C614.302 46.1711 616.42 45.632 618.826 45.632C622.248 45.632 625.037 46.6789 627.193 48.7726C629.365 50.8664 630.576 53.7101 630.826 57.3039L630.873 59.0383C630.873 62.9289 629.787 66.0539 627.615 68.4133C625.443 70.757 622.529 71.9289 618.873 71.9289C615.216 71.9289 612.295 70.757 610.107 68.4133C607.935 66.0695 606.849 62.882 606.849 58.8508V58.5461ZM613.623 59.0383C613.623 61.4445 614.076 63.2883 614.982 64.5695C615.888 65.8351 617.185 66.468 618.873 66.468C620.513 66.468 621.795 65.843 622.716 64.593C623.638 63.3273 624.099 61.3117 624.099 58.5461C624.099 56.1867 623.638 54.3586 622.716 53.0617C621.795 51.7648 620.498 51.1164 618.826 51.1164C617.17 51.1164 615.888 51.7648 614.982 53.0617C614.076 54.343 613.623 56.3351 613.623 59.0383ZM633.99 58.593C633.99 54.6398 634.873 51.4914 636.638 49.1476C638.42 46.8039 640.849 45.632 643.927 45.632C646.396 45.632 648.435 46.5539 650.045 48.3976V35.4601H656.841V71.4601H650.724L650.396 68.7648C648.709 70.8742 646.537 71.9289 643.88 71.9289C640.896 71.9289 638.498 70.757 636.685 68.4133C634.888 66.0539 633.99 62.7805 633.99 58.593ZM640.763 59.0851C640.763 61.4601 641.177 63.2805 642.005 64.5461C642.834 65.8117 644.037 66.4445 645.615 66.4445C647.709 66.4445 649.185 65.5617 650.045 63.7961V53.7883C649.201 52.0226 647.74 51.1398 645.662 51.1398C642.396 51.1398 640.763 53.7883 640.763 59.0851ZM677.279 68.882C675.607 70.9133 673.295 71.9289 670.341 71.9289C667.623 71.9289 665.545 71.1476 664.107 69.5851C662.685 68.0226 661.959 65.7336 661.927 62.718V46.1008H668.701V62.4836C668.701 65.1242 669.904 66.4445 672.31 66.4445C674.607 66.4445 676.185 65.6476 677.045 64.0539V46.1008H683.841V71.4601H677.466L677.279 68.882ZM696.099 71.4601H689.302V35.4601H696.099V71.4601ZM713.373 71.9289C709.654 71.9289 706.623 70.7883 704.279 68.507C701.951 66.2258 700.787 63.1867 700.787 59.3898V58.7336C700.787 56.1867 701.279 53.9133 702.263 51.9133C703.248 49.8976 704.638 48.3508 706.435 47.2726C708.248 46.1789 710.31 45.632 712.623 45.632C716.091 45.632 718.818 46.7258 720.802 48.9133C722.802 51.1008 723.802 54.2023 723.802 58.218V60.9836H707.654C707.873 62.6398 708.529 63.968 709.623 64.968C710.732 65.968 712.13 66.468 713.818 66.468C716.427 66.468 718.466 65.5226 719.935 63.632L723.263 67.3586C722.248 68.7961 720.873 69.9211 719.138 70.7336C717.404 71.5305 715.482 71.9289 713.373 71.9289ZM712.599 51.1164C711.255 51.1164 710.162 51.5695 709.318 52.4758C708.49 53.382 707.959 54.6789 707.724 56.3664H717.146V55.8273C717.115 54.3273 716.709 53.1711 715.927 52.3586C715.146 51.5305 714.037 51.1164 712.599 51.1164Z" fill="#27AE60"/>
<g filter="url(#filter1_d)">
<rect x="578" y="96" width="124" height="124" rx="20" fill="#2F80ED"/>
<rect x="579" y="97" width="122" height="122" rx="19" stroke="black" stroke-width="2"/>
</g>
<path d="M627.641 179.865L605.776 158L627.641 136.135L620.987 129.48L592.467 158L620.987 186.52L627.641 179.865ZM652.359 179.865L674.224 158L652.359 136.135L659.013 129.48L687.533 158L659.013 186.52L652.359 179.865V179.865Z" fill="white"/>
<g filter="url(#filter2_d)">
<rect x="255" y="307" width="124" height="124" rx="20" fill="#2F80ED"/>
<rect x="256" y="308" width="122" height="122" rx="19" stroke="black" stroke-width="2"/>
</g>
<path d="M304.641 390.865L282.776 369L304.641 347.135L297.987 340.48L269.467 369L297.987 397.52L304.641 390.865ZM329.359 390.865L351.224 369L329.359 347.135L336.013 340.48L364.533 369L336.013 397.52L329.359 390.865V390.865Z" fill="white"/>
<g filter="url(#filter3_d)">
<rect x="255" y="307" width="124" height="124" rx="20" fill="#9B51E0"/>
<rect x="256" y="308" width="122" height="122" rx="19" stroke="black" stroke-width="2"/>
</g>
<path d="M304.641 390.865L282.776 369L304.641 347.135L297.987 340.48L269.467 369L297.987 397.52L304.641 390.865ZM329.359 390.865L351.224 369L329.359 347.135L336.013 340.48L364.533 369L336.013 397.52L329.359 390.865V390.865Z" fill="white"/>
<g filter="url(#filter4_d)">
<rect x="123" y="517" width="124" height="124" rx="20" fill="#2F80ED"/>
<rect x="124" y="518" width="122" height="122" rx="19" stroke="black" stroke-width="2"/>
</g>
<path d="M172.641 600.865L150.776 579L172.641 557.135L165.987 550.48L137.467 579L165.987 607.52L172.641 600.865ZM197.359 600.865L219.224 579L197.359 557.135L204.013 550.48L232.533 579L204.013 607.52L197.359 600.865V600.865Z" fill="white"/>
<g filter="url(#filter5_d)">
<rect x="387" y="517" width="124" height="124" rx="20" fill="#2F80ED"/>
<rect x="388" y="518" width="122" height="122" rx="19" stroke="black" stroke-width="2"/>
</g>
<path d="M436.641 600.865L414.776 579L436.641 557.135L429.987 550.48L401.467 579L429.987 607.52L436.641 600.865ZM461.359 600.865L483.224 579L461.359 557.135L468.013 550.48L496.533 579L468.013 607.52L461.359 600.865V600.865Z" fill="white"/>
<path d="M316.5 305V284.475C316.5 273.429 325.454 264.475 336.5 264.475L948.5 264.475C959.546 264.475 968.5 273.43 968.5 284.475L968.5 305" stroke="#333333" stroke-width="2"/>
<circle cx="642" cy="220.5" r="5.5" fill="white" stroke="#333333" stroke-width="2"/>
<line x1="642" y1="265" x2="642" y2="225" stroke="#333333" stroke-width="2"/>
<path d="M978.025 296L968.769 306L960 296" stroke="#333333" stroke-width="2" stroke-linecap="round" stroke-linejoin="round"/>
<path d="M326.025 296L316.769 306L308 296" stroke="#333333" stroke-width="2" stroke-linecap="round" stroke-linejoin="round"/>
<path d="M184.5 516V495.475C184.5 484.429 193.454 475.475 204.5 475.475L429.5 475.475C440.546 475.475 449.5 484.429 449.5 495.475L449.5 516" stroke="#333333" stroke-width="2"/>
<circle cx="316" cy="431.5" r="5.5" fill="white" stroke="#333333" stroke-width="2"/>
<line x1="316" y1="476" x2="316" y2="436" stroke="#333333" stroke-width="2"/>
<path d="M459.025 507L449.769 517L441 507" stroke="#333333" stroke-width="2" stroke-linecap="round" stroke-linejoin="round"/>
<path d="M194.025 507L184.769 517L176 507" stroke="#333333" stroke-width="2" stroke-linecap="round" stroke-linejoin="round"/>
<g filter="url(#filter6_d)">
<rect x="908" y="307" width="124" height="124" rx="20" fill="#9B51E0"/>
<rect x="909" y="308" width="122" height="122" rx="19" stroke="black" stroke-width="2"/>
</g>
<path d="M957.641 390.865L935.776 369L957.641 347.135L950.987 340.48L922.467 369L950.987 397.52L957.641 390.865ZM982.359 390.865L1004.22 369L982.359 347.135L989.013 340.48L1017.53 369L989.013 397.52L982.359 390.865V390.865Z" fill="white"/>
<g filter="url(#filter7_d)">
<rect x="776" y="517" width="124" height="124" rx="20" fill="#2F80ED"/>
<rect x="777" y="518" width="122" height="122" rx="19" stroke="black" stroke-width="2"/>
</g>
<path d="M825.641 600.865L803.776 579L825.641 557.135L818.987 550.48L790.467 579L818.987 607.52L825.641 600.865ZM850.359 600.865L872.224 579L850.359 557.135L857.013 550.48L885.533 579L857.013 607.52L850.359 600.865V600.865Z" fill="white"/>
<g filter="url(#filter8_d)">
<rect x="1040" y="517" width="124" height="124" rx="20" fill="#2F80ED"/>
<rect x="1041" y="518" width="122" height="122" rx="19" stroke="black" stroke-width="2"/>
</g>
<path d="M1089.64 600.865L1067.78 579L1089.64 557.135L1082.99 550.48L1054.47 579L1082.99 607.52L1089.64 600.865ZM1114.36 600.865L1136.22 579L1114.36 557.135L1121.01 550.48L1149.53 579L1121.01 607.52L1114.36 600.865V600.865Z" fill="white"/>
<path d="M837.5 516V495.475C837.5 484.429 846.454 475.475 857.5 475.475L1082.5 475.475C1093.55 475.475 1102.5 484.429 1102.5 495.475L1102.5 516" stroke="#333333" stroke-width="2"/>
<circle cx="969" cy="431.5" r="5.5" fill="white" stroke="#333333" stroke-width="2"/>
<line x1="969" y1="476" x2="969" y2="436" stroke="#333333" stroke-width="2"/>
<path d="M1112.03 507L1102.77 517L1094 507" stroke="#333333" stroke-width="2" stroke-linecap="round" stroke-linejoin="round"/>
<path d="M847.025 507L837.769 517L829 507" stroke="#333333" stroke-width="2" stroke-linecap="round" stroke-linejoin="round"/>
<g filter="url(#filter9_d)">
<rect x="556" y="517" width="124" height="124" rx="20" fill="#EB5757"/>
<rect x="557" y="518" width="122" height="122" rx="19" stroke="black" stroke-width="2"/>
</g>
<path d="M605.641 600.865L583.776 579L605.641 557.135L598.987 550.48L570.467 579L598.987 607.52L605.641 600.865ZM630.359 600.865L652.224 579L630.359 557.135L637.013 550.48L665.533 579L637.013 607.52L630.359 600.865V600.865Z" fill="white"/>
<path d="M511.34 580.237L519.328 587.483C519.971 588.066 521 587.61 521 586.743L521 572.649C521 571.795 519.998 571.334 519.349 571.89L511.361 578.737C510.904 579.129 510.894 579.832 511.34 580.237Z" fill="#333333"/>
<line x1="552" y1="579.5" x2="521" y2="579.5" stroke="#333333" stroke-width="2"/>
<circle cx="556.5" cy="579.5" r="4.5" transform="rotate(-180 556.5 579.5)" fill="white" stroke="#333333" stroke-width="2"/>
<g filter="url(#filter10_d)">
<rect x="424" y="307" width="124" height="124" rx="20" fill="#F2994A"/>
<rect x="425" y="308" width="122" height="122" rx="19" stroke="black" stroke-width="2"/>
</g>
<path d="M473.641 390.865L451.776 369L473.641 347.135L466.987 340.48L438.467 369L466.987 397.52L473.641 390.865ZM498.359 390.865L520.224 369L498.359 347.135L505.013 340.48L533.533 369L505.013 397.52L498.359 390.865V390.865Z" fill="white"/>
<path d="M379.34 370.237L387.328 377.483C387.971 378.066 389 377.61 389 376.743L389 362.649C389 361.795 387.998 361.334 387.349 361.89L379.361 368.737C378.904 369.129 378.894 369.832 379.34 370.237Z" fill="#333333"/>
<line x1="420" y1="369.5" x2="389" y2="369.5" stroke="#333333" stroke-width="2"/>
<circle cx="424.5" cy="369.5" r="4.5" transform="rotate(-180 424.5 369.5)" fill="white" stroke="#333333" stroke-width="2"/>
<defs>
<filter id="filter0_d" x="0" y="0" width="1288" height="688" filterUnits="userSpaceOnUse" color-interpolation-filters="sRGB">
<feFlood flood-opacity="0" result="BackgroundImageFix"/>
<feColorMatrix in="SourceAlpha" type="matrix" values="0 0 0 0 0 0 0 0 0 0 0 0 0 0 0 0 0 0 127 0"/>
<feOffset dy="4"/>
<feGaussianBlur stdDeviation="2"/>
<feColorMatrix type="matrix" values="0 0 0 0 0 0 0 0 0 0 0 0 0 0 0 0 0 0 0.25 0"/>
<feBlend mode="normal" in2="BackgroundImageFix" result="effect1_dropShadow"/>
<feBlend mode="normal" in="SourceGraphic" in2="effect1_dropShadow" result="shape"/>
</filter>
<filter id="filter1_d" x="574" y="96" width="132" height="132" filterUnits="userSpaceOnUse" color-interpolation-filters="sRGB">
<feFlood flood-opacity="0" result="BackgroundImageFix"/>
<feColorMatrix in="SourceAlpha" type="matrix" values="0 0 0 0 0 0 0 0 0 0 0 0 0 0 0 0 0 0 127 0"/>
<feOffset dy="4"/>
<feGaussianBlur stdDeviation="2"/>
<feColorMatrix type="matrix" values="0 0 0 0 0 0 0 0 0 0 0 0 0 0 0 0 0 0 0.25 0"/>
<feBlend mode="normal" in2="BackgroundImageFix" result="effect1_dropShadow"/>
<feBlend mode="normal" in="SourceGraphic" in2="effect1_dropShadow" result="shape"/>
</filter>
<filter id="filter2_d" x="251" y="307" width="132" height="132" filterUnits="userSpaceOnUse" color-interpolation-filters="sRGB">
<feFlood flood-opacity="0" result="BackgroundImageFix"/>
<feColorMatrix in="SourceAlpha" type="matrix" values="0 0 0 0 0 0 0 0 0 0 0 0 0 0 0 0 0 0 127 0"/>
<feOffset dy="4"/>
<feGaussianBlur stdDeviation="2"/>
<feColorMatrix type="matrix" values="0 0 0 0 0 0 0 0 0 0 0 0 0 0 0 0 0 0 0.25 0"/>
<feBlend mode="normal" in2="BackgroundImageFix" result="effect1_dropShadow"/>
<feBlend mode="normal" in="SourceGraphic" in2="effect1_dropShadow" result="shape"/>
</filter>
<filter id="filter3_d" x="251" y="307" width="132" height="132" filterUnits="userSpaceOnUse" color-interpolation-filters="sRGB">
<feFlood flood-opacity="0" result="BackgroundImageFix"/>
<feColorMatrix in="SourceAlpha" type="matrix" values="0 0 0 0 0 0 0 0 0 0 0 0 0 0 0 0 0 0 127 0"/>
<feOffset dy="4"/>
<feGaussianBlur stdDeviation="2"/>
<feColorMatrix type="matrix" values="0 0 0 0 0 0 0 0 0 0 0 0 0 0 0 0 0 0 0.25 0"/>
<feBlend mode="normal" in2="BackgroundImageFix" result="effect1_dropShadow"/>
<feBlend mode="normal" in="SourceGraphic" in2="effect1_dropShadow" result="shape"/>
</filter>
<filter id="filter4_d" x="119" y="517" width="132" height="132" filterUnits="userSpaceOnUse" color-interpolation-filters="sRGB">
<feFlood flood-opacity="0" result="BackgroundImageFix"/>
<feColorMatrix in="SourceAlpha" type="matrix" values="0 0 0 0 0 0 0 0 0 0 0 0 0 0 0 0 0 0 127 0"/>
<feOffset dy="4"/>
<feGaussianBlur stdDeviation="2"/>
<feColorMatrix type="matrix" values="0 0 0 0 0 0 0 0 0 0 0 0 0 0 0 0 0 0 0.25 0"/>
<feBlend mode="normal" in2="BackgroundImageFix" result="effect1_dropShadow"/>
<feBlend mode="normal" in="SourceGraphic" in2="effect1_dropShadow" result="shape"/>
</filter>
<filter id="filter5_d" x="383" y="517" width="132" height="132" filterUnits="userSpaceOnUse" color-interpolation-filters="sRGB">
<feFlood flood-opacity="0" result="BackgroundImageFix"/>
<feColorMatrix in="SourceAlpha" type="matrix" values="0 0 0 0 0 0 0 0 0 0 0 0 0 0 0 0 0 0 127 0"/>
<feOffset dy="4"/>
<feGaussianBlur stdDeviation="2"/>
<feColorMatrix type="matrix" values="0 0 0 0 0 0 0 0 0 0 0 0 0 0 0 0 0 0 0.25 0"/>
<feBlend mode="normal" in2="BackgroundImageFix" result="effect1_dropShadow"/>
<feBlend mode="normal" in="SourceGraphic" in2="effect1_dropShadow" result="shape"/>
</filter>
<filter id="filter6_d" x="904" y="307" width="132" height="132" filterUnits="userSpaceOnUse" color-interpolation-filters="sRGB">
<feFlood flood-opacity="0" result="BackgroundImageFix"/>
<feColorMatrix in="SourceAlpha" type="matrix" values="0 0 0 0 0 0 0 0 0 0 0 0 0 0 0 0 0 0 127 0"/>
<feOffset dy="4"/>
<feGaussianBlur stdDeviation="2"/>
<feColorMatrix type="matrix" values="0 0 0 0 0 0 0 0 0 0 0 0 0 0 0 0 0 0 0.25 0"/>
<feBlend mode="normal" in2="BackgroundImageFix" result="effect1_dropShadow"/>
<feBlend mode="normal" in="SourceGraphic" in2="effect1_dropShadow" result="shape"/>
</filter>
<filter id="filter7_d" x="772" y="517" width="132" height="132" filterUnits="userSpaceOnUse" color-interpolation-filters="sRGB">
<feFlood flood-opacity="0" result="BackgroundImageFix"/>
<feColorMatrix in="SourceAlpha" type="matrix" values="0 0 0 0 0 0 0 0 0 0 0 0 0 0 0 0 0 0 127 0"/>
<feOffset dy="4"/>
<feGaussianBlur stdDeviation="2"/>
<feColorMatrix type="matrix" values="0 0 0 0 0 0 0 0 0 0 0 0 0 0 0 0 0 0 0.25 0"/>
<feBlend mode="normal" in2="BackgroundImageFix" result="effect1_dropShadow"/>
<feBlend mode="normal" in="SourceGraphic" in2="effect1_dropShadow" result="shape"/>
</filter>
<filter id="filter8_d" x="1036" y="517" width="132" height="132" filterUnits="userSpaceOnUse" color-interpolation-filters="sRGB">
<feFlood flood-opacity="0" result="BackgroundImageFix"/>
<feColorMatrix in="SourceAlpha" type="matrix" values="0 0 0 0 0 0 0 0 0 0 0 0 0 0 0 0 0 0 127 0"/>
<feOffset dy="4"/>
<feGaussianBlur stdDeviation="2"/>
<feColorMatrix type="matrix" values="0 0 0 0 0 0 0 0 0 0 0 0 0 0 0 0 0 0 0.25 0"/>
<feBlend mode="normal" in2="BackgroundImageFix" result="effect1_dropShadow"/>
<feBlend mode="normal" in="SourceGraphic" in2="effect1_dropShadow" result="shape"/>
</filter>
<filter id="filter9_d" x="552" y="517" width="132" height="132" filterUnits="userSpaceOnUse" color-interpolation-filters="sRGB">
<feFlood flood-opacity="0" result="BackgroundImageFix"/>
<feColorMatrix in="SourceAlpha" type="matrix" values="0 0 0 0 0 0 0 0 0 0 0 0 0 0 0 0 0 0 127 0"/>
<feOffset dy="4"/>
<feGaussianBlur stdDeviation="2"/>
<feColorMatrix type="matrix" values="0 0 0 0 0 0 0 0 0 0 0 0 0 0 0 0 0 0 0.25 0"/>
<feBlend mode="normal" in2="BackgroundImageFix" result="effect1_dropShadow"/>
<feBlend mode="normal" in="SourceGraphic" in2="effect1_dropShadow" result="shape"/>
</filter>
<filter id="filter10_d" x="420" y="307" width="132" height="132" filterUnits="userSpaceOnUse" color-interpolation-filters="sRGB">
<feFlood flood-opacity="0" result="BackgroundImageFix"/>
<feColorMatrix in="SourceAlpha" type="matrix" values="0 0 0 0 0 0 0 0 0 0 0 0 0 0 0 0 0 0 127 0"/>
<feOffset dy="4"/>
<feGaussianBlur stdDeviation="2"/>
<feColorMatrix type="matrix" values="0 0 0 0 0 0 0 0 0 0 0 0 0 0 0 0 0 0 0.25 0"/>
<feBlend mode="normal" in2="BackgroundImageFix" result="effect1_dropShadow"/>
<feBlend mode="normal" in="SourceGraphic" in2="effect1_dropShadow" result="shape"/>
</filter>
</defs>
</svg>
