<svg width="1288" height="688" viewBox="0 0 1288 688" fill="none" xmlns="http://www.w3.org/2000/svg">
<g filter="url(#filter0_d)">
<rect x="4" width="1280" height="680" rx="20" fill="white"/>
<rect x="5" y="1" width="1278" height="678" rx="19" stroke="#27AE60" stroke-width="2"/>
</g>
<path d="M575.49 37.3351L584.256 62.0851L592.974 37.3351H602.209V71.4601H595.154V62.132L595.857 46.0305L586.646 71.4601H581.818L572.631 46.0539L573.334 62.132V71.4601H566.303V37.3351H575.49ZM606.849 58.5461C606.849 56.0305 607.334 53.7883 608.303 51.8195C609.271 49.8508 610.662 48.3273 612.474 47.2492C614.303 46.1711 616.42 45.632 618.826 45.632C622.248 45.632 625.037 46.6789 627.193 48.7726C629.365 50.8664 630.576 53.7101 630.826 57.3039L630.873 59.0383C630.873 62.9289 629.787 66.0539 627.615 68.4133C625.443 70.757 622.529 71.9289 618.873 71.9289C615.217 71.9289 612.295 70.757 610.107 68.4133C607.935 66.0695 606.849 62.882 606.849 58.8508V58.5461ZM613.623 59.0383C613.623 61.4445 614.076 63.2883 614.982 64.5695C615.889 65.8351 617.185 66.468 618.873 66.468C620.514 66.468 621.795 65.843 622.717 64.593C623.639 63.3273 624.099 61.3117 624.099 58.5461C624.099 56.1867 623.639 54.3586 622.717 53.0617C621.795 51.7648 620.498 51.1164 618.826 51.1164C617.17 51.1164 615.889 51.7648 614.982 53.0617C614.076 54.343 613.623 56.3351 613.623 59.0383ZM633.99 58.593C633.99 54.6398 634.873 51.4914 636.639 49.1476C638.42 46.8039 640.849 45.632 643.928 45.632C646.396 45.632 648.435 46.5539 650.045 48.3976V35.4601H656.842V71.4601H650.724L650.396 68.7648C648.709 70.8742 646.537 71.9289 643.881 71.9289C640.896 71.9289 638.498 70.757 636.685 68.4133C634.889 66.0539 633.99 62.7805 633.99 58.593ZM640.764 59.0851C640.764 61.4601 641.178 63.2805 642.006 64.5461C642.834 65.8117 644.037 66.4445 645.615 66.4445C647.709 66.4445 649.185 65.5617 650.045 63.7961V53.7883C649.201 52.0226 647.74 51.1398 645.662 51.1398C642.396 51.1398 640.764 53.7883 640.764 59.0851ZM677.279 68.882C675.607 70.9133 673.295 71.9289 670.342 71.9289C667.623 71.9289 665.545 71.1476 664.107 69.5851C662.685 68.0226 661.959 65.7336 661.928 62.718V46.1008H668.701V62.4836C668.701 65.1242 669.904 66.4445 672.31 66.4445C674.607 66.4445 676.185 65.6476 677.045 64.0539V46.1008H683.842V71.4601H677.467L677.279 68.882ZM696.099 71.4601H689.303V35.4601H696.099V71.4601ZM713.373 71.9289C709.654 71.9289 706.623 70.7883 704.279 68.507C701.951 66.2258 700.787 63.1867 700.787 59.3898V58.7336C700.787 56.1867 701.279 53.9133 702.264 51.9133C703.248 49.8976 704.639 48.3508 706.435 47.2726C708.248 46.1789 710.31 45.632 712.623 45.632C716.092 45.632 718.818 46.7258 720.803 48.9133C722.803 51.1008 723.803 54.2023 723.803 58.218V60.9836H707.654C707.873 62.6398 708.529 63.968 709.623 64.968C710.732 65.968 712.131 66.468 713.818 66.468C716.428 66.468 718.467 65.5226 719.935 63.632L723.264 67.3586C722.248 68.7961 720.873 69.9211 719.139 70.7336C717.404 71.5305 715.482 71.9289 713.373 71.9289ZM712.599 51.1164C711.256 51.1164 710.162 51.5695 709.318 52.4758C708.49 53.382 707.959 54.6789 707.724 56.3664H717.146V55.8273C717.115 54.3273 716.709 53.1711 715.928 52.3586C715.146 51.5305 714.037 51.1164 712.599 51.1164Z" fill="#27AE60"/>
<defs>
<filter id="filter0_d" x="0" y="0" width="1288" height="688" filterUnits="userSpaceOnUse" color-interpolation-filters="sRGB">
<feFlood flood-opacity="0" result="BackgroundImageFix"/>
<feColorMatrix in="SourceAlpha" type="matrix" values="0 0 0 0 0 0 0 0 0 0 0 0 0 0 0 0 0 0 127 0"/>
<feOffset dy="4"/>
<feGaussianBlur stdDeviation="2"/>
<feColorMatrix type="matrix" values="0 0 0 0 0 0 0 0 0 0 0 0 0 0 0 0 0 0 0.25 0"/>
<feBlend mode="normal" in2="BackgroundImageFix" result="effect1_dropShadow"/>
<feBlend mode="normal" in="SourceGraphic" in2="effect1_dropShadow" result="shape"/>
</filter>
</defs>
</svg>
