<svg width="1608" height="502" viewBox="0 0 1608 502" fill="none" xmlns="http://www.w3.org/2000/svg">
<g filter="url(#filter0_d)">
<rect x="841" y="278" width="482" height="216" rx="20" fill="#F2994A"/>
<rect x="842" y="279" width="480" height="214" rx="19" stroke="black" stroke-width="2"/>
</g>
<path d="M1009.65 387.447C1009.65 386.119 1009.18 385.103 1008.24 384.4C1007.3 383.681 1005.62 382.931 1003.18 382.15C1000.74 381.353 998.812 380.572 997.391 379.806C993.516 377.713 991.578 374.892 991.578 371.345C991.578 369.502 992.094 367.861 993.125 366.423C994.172 364.97 995.664 363.838 997.601 363.025C999.555 362.213 1001.74 361.806 1004.16 361.806C1006.6 361.806 1008.77 362.252 1010.68 363.142C1012.59 364.017 1014.06 365.259 1015.11 366.869C1016.17 368.478 1016.7 370.306 1016.7 372.353H1009.67C1009.67 370.791 1009.18 369.58 1008.2 368.72C1007.21 367.845 1005.83 367.408 1004.05 367.408C1002.33 367.408 1000.99 367.775 1000.04 368.509C999.086 369.228 998.609 370.181 998.609 371.369C998.609 372.478 999.164 373.408 1000.27 374.158C1001.4 374.908 1003.05 375.611 1005.22 376.267C1009.22 377.47 1012.13 378.963 1013.96 380.744C1015.79 382.525 1016.7 384.744 1016.7 387.4C1016.7 390.353 1015.59 392.673 1013.35 394.361C1011.12 396.033 1008.11 396.869 1004.33 396.869C1001.7 396.869 999.312 396.392 997.156 395.439C995 394.47 993.351 393.15 992.211 391.478C991.086 389.806 990.523 387.869 990.523 385.666H997.578C997.578 389.431 999.828 391.314 1004.33 391.314C1006 391.314 1007.3 390.978 1008.24 390.306C1009.18 389.619 1009.65 388.666 1009.65 387.447ZM1032.71 396.869C1028.99 396.869 1025.96 395.728 1023.62 393.447C1021.29 391.166 1020.12 388.127 1020.12 384.33V383.673C1020.12 381.127 1020.62 378.853 1021.6 376.853C1022.59 374.838 1023.98 373.291 1025.77 372.213C1027.59 371.119 1029.65 370.572 1031.96 370.572C1035.43 370.572 1038.16 371.666 1040.14 373.853C1042.14 376.041 1043.14 379.142 1043.14 383.158V385.923H1026.99C1027.21 387.58 1027.87 388.908 1028.96 389.908C1030.07 390.908 1031.47 391.408 1033.16 391.408C1035.77 391.408 1037.8 390.463 1039.27 388.572L1042.6 392.298C1041.59 393.736 1040.21 394.861 1038.48 395.673C1036.74 396.47 1034.82 396.869 1032.71 396.869ZM1031.94 376.056C1030.59 376.056 1029.5 376.509 1028.66 377.416C1027.83 378.322 1027.3 379.619 1027.06 381.306H1036.48V380.767C1036.45 379.267 1036.05 378.111 1035.27 377.298C1034.48 376.47 1033.37 376.056 1031.94 376.056ZM1061.26 377.392C1060.34 377.267 1059.52 377.205 1058.82 377.205C1056.26 377.205 1054.58 378.072 1053.78 379.806V396.4H1047.01V371.041H1053.41L1053.59 374.064C1054.95 371.736 1056.84 370.572 1059.24 370.572C1059.99 370.572 1060.7 370.673 1061.35 370.877L1061.26 377.392ZM1074.45 388.127L1079.16 371.041H1086.24L1077.69 396.4H1071.22L1062.66 371.041H1069.74L1074.45 388.127ZM1096.39 396.4H1089.59V371.041H1096.39V396.4ZM1089.2 364.478C1089.2 363.463 1089.53 362.627 1090.2 361.97C1090.89 361.314 1091.82 360.986 1092.99 360.986C1094.15 360.986 1095.07 361.314 1095.76 361.97C1096.45 362.627 1096.79 363.463 1096.79 364.478C1096.79 365.509 1096.44 366.353 1095.73 367.009C1095.05 367.666 1094.13 367.994 1092.99 367.994C1091.85 367.994 1090.93 367.666 1090.23 367.009C1089.54 366.353 1089.2 365.509 1089.2 364.478ZM1112.54 391.408C1113.79 391.408 1114.8 391.064 1115.59 390.377C1116.37 389.689 1116.77 388.775 1116.8 387.634H1123.16C1123.14 389.353 1122.67 390.931 1121.75 392.369C1120.83 393.791 1119.56 394.9 1117.95 395.697C1116.36 396.478 1114.59 396.869 1112.66 396.869C1109.03 396.869 1106.17 395.72 1104.08 393.423C1101.98 391.111 1100.94 387.923 1100.94 383.861V383.416C1100.94 379.509 1101.98 376.392 1104.05 374.064C1106.13 371.736 1108.98 370.572 1112.61 370.572C1115.78 370.572 1118.32 371.478 1120.23 373.291C1122.15 375.088 1123.12 377.486 1123.16 380.486H1116.8C1116.77 379.173 1116.37 378.111 1115.59 377.298C1114.8 376.47 1113.77 376.056 1112.49 376.056C1110.91 376.056 1109.72 376.634 1108.91 377.791C1108.11 378.931 1107.71 380.791 1107.71 383.369V384.072C1107.71 386.681 1108.11 388.556 1108.91 389.697C1109.7 390.838 1110.91 391.408 1112.54 391.408ZM1138.7 396.869C1134.98 396.869 1131.95 395.728 1129.6 393.447C1127.27 391.166 1126.11 388.127 1126.11 384.33V383.673C1126.11 381.127 1126.6 378.853 1127.59 376.853C1128.57 374.838 1129.96 373.291 1131.76 372.213C1133.57 371.119 1135.63 370.572 1137.95 370.572C1141.41 370.572 1144.14 371.666 1146.12 373.853C1148.12 376.041 1149.12 379.142 1149.12 383.158V385.923H1132.98C1133.2 387.58 1133.85 388.908 1134.95 389.908C1136.05 390.908 1137.45 391.408 1139.14 391.408C1141.75 391.408 1143.79 390.463 1145.26 388.572L1148.59 392.298C1147.57 393.736 1146.2 394.861 1144.46 395.673C1142.73 396.47 1140.8 396.869 1138.7 396.869ZM1137.92 376.056C1136.58 376.056 1135.48 376.509 1134.64 377.416C1133.81 378.322 1133.28 379.619 1133.05 381.306H1142.47V380.767C1142.44 379.267 1142.03 378.111 1141.25 377.298C1140.47 376.47 1139.36 376.056 1137.92 376.056ZM1166.73 389.392C1166.73 388.564 1166.31 387.916 1165.48 387.447C1164.67 386.963 1163.36 386.533 1161.55 386.158C1155.52 384.892 1152.5 382.33 1152.5 378.47C1152.5 376.22 1153.43 374.345 1155.29 372.845C1157.16 371.33 1159.61 370.572 1162.62 370.572C1165.84 370.572 1168.41 371.33 1170.34 372.845C1172.27 374.361 1173.24 376.33 1173.24 378.752H1166.47C1166.47 377.783 1166.16 376.986 1165.53 376.361C1164.91 375.72 1163.93 375.4 1162.6 375.4C1161.46 375.4 1160.58 375.658 1159.95 376.173C1159.33 376.689 1159.02 377.345 1159.02 378.142C1159.02 378.892 1159.37 379.502 1160.07 379.97C1160.79 380.423 1161.99 380.822 1163.68 381.166C1165.37 381.494 1166.79 381.869 1167.95 382.291C1171.52 383.603 1173.31 385.877 1173.31 389.111C1173.31 391.423 1172.32 393.298 1170.34 394.736C1168.35 396.158 1165.79 396.869 1162.65 396.869C1160.52 396.869 1158.63 396.494 1156.98 395.744C1155.34 394.978 1154.05 393.939 1153.11 392.627C1152.17 391.298 1151.7 389.869 1151.7 388.338H1158.12C1158.19 389.541 1158.63 390.463 1159.46 391.103C1160.29 391.744 1161.4 392.064 1162.79 392.064C1164.09 392.064 1165.06 391.822 1165.72 391.338C1166.39 390.838 1166.73 390.189 1166.73 389.392Z" fill="white"/>
<g filter="url(#filter1_d)">
<rect x="282" y="278" width="480" height="216" rx="20" fill="#9B51E0"/>
<rect x="283" y="279" width="478" height="214" rx="19" stroke="black" stroke-width="2"/>
</g>
<path d="M453.703 383.908H448.102V396.4H441.07V362.275H453.75C457.781 362.275 460.891 363.173 463.078 364.97C465.266 366.767 466.359 369.306 466.359 372.588C466.359 374.916 465.852 376.861 464.836 378.423C463.836 379.97 462.312 381.205 460.266 382.127L467.648 396.072V396.4H460.102L453.703 383.908ZM448.102 378.213H453.773C455.539 378.213 456.906 377.767 457.875 376.877C458.844 375.97 459.328 374.728 459.328 373.15C459.328 371.541 458.867 370.275 457.945 369.353C457.039 368.431 455.641 367.97 453.75 367.97H448.102V378.213ZM470.227 383.486C470.227 380.97 470.711 378.728 471.68 376.759C472.648 374.791 474.039 373.267 475.852 372.189C477.68 371.111 479.797 370.572 482.203 370.572C485.625 370.572 488.414 371.619 490.57 373.713C492.742 375.806 493.953 378.65 494.203 382.244L494.25 383.978C494.25 387.869 493.164 390.994 490.992 393.353C488.82 395.697 485.906 396.869 482.25 396.869C478.594 396.869 475.672 395.697 473.484 393.353C471.312 391.009 470.227 387.822 470.227 383.791V383.486ZM477 383.978C477 386.384 477.453 388.228 478.359 389.509C479.266 390.775 480.562 391.408 482.25 391.408C483.891 391.408 485.172 390.783 486.094 389.533C487.016 388.267 487.477 386.252 487.477 383.486C487.477 381.127 487.016 379.298 486.094 378.002C485.172 376.705 483.875 376.056 482.203 376.056C480.547 376.056 479.266 376.705 478.359 378.002C477.453 379.283 477 381.275 477 383.978ZM513.609 393.822C511.937 395.853 509.625 396.869 506.672 396.869C503.953 396.869 501.875 396.088 500.437 394.525C499.016 392.963 498.289 390.673 498.258 387.658V371.041H505.031V387.423C505.031 390.064 506.234 391.384 508.641 391.384C510.937 391.384 512.516 390.588 513.375 388.994V371.041H520.172V396.4H513.797L513.609 393.822ZM533.391 364.806V371.041H537.727V376.009H533.391V388.666C533.391 389.603 533.57 390.275 533.93 390.681C534.289 391.088 534.977 391.291 535.992 391.291C536.742 391.291 537.406 391.236 537.984 391.127V396.259C536.656 396.666 535.289 396.869 533.883 396.869C529.133 396.869 526.711 394.47 526.617 389.673V376.009H522.914V371.041H526.617V364.806H533.391ZM548.648 396.4H541.852V371.041H548.648V396.4ZM541.453 364.478C541.453 363.463 541.789 362.627 542.461 361.97C543.148 361.314 544.078 360.986 545.25 360.986C546.406 360.986 547.328 361.314 548.016 361.97C548.703 362.627 549.047 363.463 549.047 364.478C549.047 365.509 548.695 366.353 547.992 367.009C547.305 367.666 546.391 367.994 545.25 367.994C544.109 367.994 543.187 367.666 542.484 367.009C541.797 366.353 541.453 365.509 541.453 364.478ZM560.484 371.041L560.695 373.97C562.508 371.705 564.938 370.572 567.984 370.572C570.672 370.572 572.672 371.361 573.984 372.939C575.297 374.517 575.969 376.877 576 380.017V396.4H569.227V380.181C569.227 378.744 568.914 377.705 568.289 377.064C567.664 376.408 566.625 376.08 565.172 376.08C563.266 376.08 561.836 376.892 560.883 378.517V396.4H554.109V371.041H560.484ZM580.172 383.533C580.172 379.642 581.094 376.509 582.938 374.134C584.797 371.759 587.297 370.572 590.438 370.572C593.219 370.572 595.383 371.525 596.93 373.431L597.211 371.041H603.352V395.556C603.352 397.775 602.844 399.705 601.828 401.345C600.828 402.986 599.414 404.236 597.586 405.095C595.758 405.955 593.617 406.384 591.164 406.384C589.305 406.384 587.492 406.009 585.727 405.259C583.961 404.525 582.625 403.572 581.719 402.4L584.719 398.275C586.406 400.166 588.453 401.111 590.859 401.111C592.656 401.111 594.055 400.627 595.055 399.658C596.055 398.705 596.555 397.345 596.555 395.58V394.22C594.992 395.986 592.938 396.869 590.391 396.869C587.344 396.869 584.875 395.681 582.984 393.306C581.109 390.916 580.172 387.752 580.172 383.814V383.533ZM586.945 384.025C586.945 386.322 587.406 388.127 588.328 389.439C589.25 390.736 590.516 391.384 592.125 391.384C594.188 391.384 595.664 390.611 596.555 389.064V378.4C595.648 376.853 594.188 376.08 592.172 376.08C590.547 376.08 589.266 376.744 588.328 378.072C587.406 379.4 586.945 381.384 586.945 384.025Z" fill="white"/>
<g filter="url(#filter2_d)">
<rect x="1123" width="481" height="217" rx="20" fill="#EB5757"/>
<rect x="1124" y="1" width="479" height="215" rx="19" stroke="black" stroke-width="2"/>
</g>
<path d="M1258.73 118.744V84.6194H1269.23C1272.23 84.6194 1274.91 85.2991 1277.27 86.6585C1279.65 88.0023 1281.5 89.9241 1282.83 92.4241C1284.16 94.9085 1284.82 97.7366 1284.82 100.909V102.479C1284.82 105.651 1284.16 108.471 1282.85 110.94C1281.55 113.409 1279.72 115.323 1277.34 116.682C1274.97 118.041 1272.29 118.729 1269.3 118.744H1258.73ZM1265.77 90.3148V113.096H1269.16C1271.91 113.096 1274.02 112.198 1275.47 110.401C1276.92 108.604 1277.66 106.034 1277.7 102.69V100.885C1277.7 97.4163 1276.98 94.7913 1275.54 93.0101C1274.1 91.2132 1272 90.3148 1269.23 90.3148H1265.77ZM1296.66 118.744H1289.86V93.3851H1296.66V118.744ZM1289.46 86.8226C1289.46 85.8069 1289.8 84.971 1290.47 84.3148C1291.16 83.6585 1292.09 83.3304 1293.26 83.3304C1294.41 83.3304 1295.34 83.6585 1296.02 84.3148C1296.71 84.971 1297.05 85.8069 1297.05 86.8226C1297.05 87.8538 1296.7 88.6976 1296 89.3538C1295.31 90.0101 1294.4 90.3382 1293.26 90.3382C1292.12 90.3382 1291.2 90.0101 1290.49 89.3538C1289.8 88.6976 1289.46 87.8538 1289.46 86.8226ZM1316.51 99.7366C1315.59 99.6116 1314.77 99.5491 1314.07 99.5491C1311.51 99.5491 1309.83 100.416 1309.03 102.151V118.744H1302.26V93.3851H1308.66L1308.84 96.4085C1310.2 94.0804 1312.09 92.9163 1314.49 92.9163C1315.24 92.9163 1315.95 93.0179 1316.6 93.221L1316.51 99.7366ZM1330.99 119.213C1327.27 119.213 1324.24 118.073 1321.9 115.791C1319.57 113.51 1318.41 110.471 1318.41 106.674V106.018C1318.41 103.471 1318.9 101.198 1319.88 99.1976C1320.87 97.1819 1322.26 95.6351 1324.05 94.5569C1325.87 93.4632 1327.93 92.9163 1330.24 92.9163C1333.71 92.9163 1336.44 94.0101 1338.42 96.1976C1340.42 98.3851 1341.42 101.487 1341.42 105.502V108.268H1325.27C1325.49 109.924 1326.15 111.252 1327.24 112.252C1328.35 113.252 1329.75 113.752 1331.44 113.752C1334.05 113.752 1336.09 112.807 1337.55 110.916L1340.88 114.643C1339.87 116.08 1338.49 117.205 1336.76 118.018C1335.02 118.815 1333.1 119.213 1330.99 119.213ZM1330.22 98.4007C1328.88 98.4007 1327.78 98.8538 1326.94 99.7601C1326.11 100.666 1325.58 101.963 1325.34 103.651H1334.77V103.112C1334.73 101.612 1334.33 100.455 1333.55 99.6429C1332.77 98.8148 1331.66 98.4007 1330.22 98.4007ZM1355.84 113.752C1357.09 113.752 1358.1 113.409 1358.88 112.721C1359.66 112.034 1360.07 111.119 1360.1 109.979H1366.45C1366.44 111.698 1365.97 113.276 1365.05 114.713C1364.13 116.135 1362.86 117.244 1361.25 118.041C1359.66 118.823 1357.89 119.213 1355.95 119.213C1352.33 119.213 1349.47 118.065 1347.38 115.768C1345.28 113.455 1344.23 110.268 1344.23 106.205V105.76C1344.23 101.854 1345.27 98.7366 1347.35 96.4085C1349.43 94.0804 1352.28 92.9163 1355.91 92.9163C1359.08 92.9163 1361.62 93.8226 1363.52 95.6351C1365.45 97.4319 1366.42 99.8304 1366.45 102.83H1360.1C1360.07 101.518 1359.66 100.455 1358.88 99.6429C1358.1 98.8148 1357.07 98.4007 1355.79 98.4007C1354.21 98.4007 1353.02 98.9788 1352.2 100.135C1351.41 101.276 1351.01 103.135 1351.01 105.713V106.416C1351.01 109.026 1351.41 110.901 1352.2 112.041C1353 113.182 1354.21 113.752 1355.84 113.752ZM1378.43 87.1507V93.3851H1382.77V98.3538H1378.43V111.01C1378.43 111.948 1378.61 112.619 1378.97 113.026C1379.33 113.432 1380.02 113.635 1381.03 113.635C1381.78 113.635 1382.45 113.58 1383.02 113.471V118.604C1381.7 119.01 1380.33 119.213 1378.92 119.213C1374.17 119.213 1371.75 116.815 1371.66 112.018V98.3538H1367.95V93.3851H1371.66V87.1507H1378.43ZM1393.69 118.744H1386.89V93.3851H1393.69V118.744ZM1386.49 86.8226C1386.49 85.8069 1386.83 84.971 1387.5 84.3148C1388.19 83.6585 1389.12 83.3304 1390.29 83.3304C1391.45 83.3304 1392.37 83.6585 1393.05 84.3148C1393.74 84.971 1394.09 85.8069 1394.09 86.8226C1394.09 87.8538 1393.73 88.6976 1393.03 89.3538C1392.34 90.0101 1391.43 90.3382 1390.29 90.3382C1389.15 90.3382 1388.23 90.0101 1387.52 89.3538C1386.84 88.6976 1386.49 87.8538 1386.49 86.8226ZM1408.78 110.471L1413.49 93.3851H1420.57L1412.02 118.744H1405.55L1396.99 93.3851H1404.07L1408.78 110.471ZM1434.91 119.213C1431.2 119.213 1428.16 118.073 1425.82 115.791C1423.49 113.51 1422.33 110.471 1422.33 106.674V106.018C1422.33 103.471 1422.82 101.198 1423.8 99.1976C1424.79 97.1819 1426.18 95.6351 1427.98 94.5569C1429.79 93.4632 1431.85 92.9163 1434.16 92.9163C1437.63 92.9163 1440.36 94.0101 1442.34 96.1976C1444.34 98.3851 1445.34 101.487 1445.34 105.502V108.268H1429.2C1429.41 109.924 1430.07 111.252 1431.16 112.252C1432.27 113.252 1433.67 113.752 1435.36 113.752C1437.97 113.752 1440.01 112.807 1441.48 110.916L1444.8 114.643C1443.79 116.08 1442.41 117.205 1440.68 118.018C1438.95 118.815 1437.02 119.213 1434.91 119.213ZM1434.14 98.4007C1432.8 98.4007 1431.7 98.8538 1430.86 99.7601C1430.03 100.666 1429.5 101.963 1429.27 103.651H1438.69V103.112C1438.66 101.612 1438.25 100.455 1437.47 99.6429C1436.69 98.8148 1435.58 98.4007 1434.14 98.4007ZM1462.95 111.737C1462.95 110.909 1462.53 110.26 1461.7 109.791C1460.89 109.307 1459.58 108.877 1457.77 108.502C1451.73 107.237 1448.72 104.674 1448.72 100.815C1448.72 98.5648 1449.65 96.6898 1451.51 95.1898C1453.38 93.6741 1455.83 92.9163 1458.84 92.9163C1462.06 92.9163 1464.63 93.6741 1466.55 95.1898C1468.49 96.7054 1469.46 98.6741 1469.46 101.096H1462.69C1462.69 100.127 1462.38 99.3304 1461.75 98.7054C1461.13 98.0648 1460.15 97.7444 1458.82 97.7444C1457.68 97.7444 1456.8 98.0023 1456.17 98.5179C1455.55 99.0335 1455.23 99.6898 1455.23 100.487C1455.23 101.237 1455.59 101.846 1456.29 102.315C1457.01 102.768 1458.21 103.166 1459.9 103.51C1461.59 103.838 1463.01 104.213 1464.16 104.635C1467.74 105.948 1469.53 108.221 1469.53 111.455C1469.53 113.768 1468.54 115.643 1466.55 117.08C1464.57 118.502 1462.01 119.213 1458.87 119.213C1456.74 119.213 1454.85 118.838 1453.2 118.088C1451.55 117.323 1450.27 116.284 1449.33 114.971C1448.39 113.643 1447.92 112.213 1447.92 110.682H1454.34C1454.41 111.885 1454.85 112.807 1455.68 113.448C1456.51 114.088 1457.62 114.409 1459.01 114.409C1460.3 114.409 1461.28 114.166 1461.94 113.682C1462.61 113.182 1462.95 112.534 1462.95 111.737Z" fill="white"/>
<g filter="url(#filter3_d)">
<rect x="563" width="481" height="217" rx="20" fill="#2F80ED"/>
<rect x="564" y="1" width="479" height="215" rx="19" stroke="black" stroke-width="2"/>
</g>
<path d="M695.828 107.377C695.562 111.049 694.203 113.94 691.75 116.049C689.312 118.159 686.094 119.213 682.094 119.213C677.719 119.213 674.273 117.744 671.758 114.807C669.258 111.854 668.008 107.807 668.008 102.666V100.58C668.008 97.2991 668.586 94.4085 669.742 91.9085C670.898 89.4085 672.547 87.4944 674.688 86.1663C676.844 84.8226 679.344 84.1507 682.188 84.1507C686.125 84.1507 689.297 85.2054 691.703 87.3148C694.109 89.4241 695.5 92.3851 695.875 96.1976H688.844C688.672 93.9944 688.055 92.4007 686.992 91.4163C685.945 90.4163 684.344 89.9163 682.188 89.9163C679.844 89.9163 678.086 90.7601 676.914 92.4476C675.758 94.1194 675.164 96.721 675.133 100.252V102.83C675.133 106.518 675.688 109.213 676.797 110.916C677.922 112.619 679.688 113.471 682.094 113.471C684.266 113.471 685.883 112.979 686.945 111.994C688.023 110.994 688.641 109.455 688.797 107.377H695.828ZM698.945 105.83C698.945 103.315 699.43 101.073 700.398 99.1038C701.367 97.1351 702.758 95.6116 704.57 94.5335C706.398 93.4554 708.516 92.9163 710.922 92.9163C714.344 92.9163 717.133 93.9632 719.289 96.0569C721.461 98.1507 722.672 100.994 722.922 104.588L722.969 106.323C722.969 110.213 721.883 113.338 719.711 115.698C717.539 118.041 714.625 119.213 710.969 119.213C707.312 119.213 704.391 118.041 702.203 115.698C700.031 113.354 698.945 110.166 698.945 106.135V105.83ZM705.719 106.323C705.719 108.729 706.172 110.573 707.078 111.854C707.984 113.119 709.281 113.752 710.969 113.752C712.609 113.752 713.891 113.127 714.812 111.877C715.734 110.612 716.195 108.596 716.195 105.83C716.195 103.471 715.734 101.643 714.812 100.346C713.891 99.0491 712.594 98.4007 710.922 98.4007C709.266 98.4007 707.984 99.0491 707.078 100.346C706.172 101.627 705.719 103.619 705.719 106.323ZM733.492 93.3851L733.703 96.221C735.5 94.0179 737.93 92.9163 740.992 92.9163C744.258 92.9163 746.5 94.2054 747.719 96.7835C749.5 94.2054 752.039 92.9163 755.336 92.9163C758.086 92.9163 760.133 93.721 761.477 95.3304C762.82 96.9241 763.492 99.3304 763.492 102.549V118.744H756.695V102.573C756.695 101.135 756.414 100.088 755.852 99.4319C755.289 98.7601 754.297 98.4241 752.875 98.4241C750.844 98.4241 749.438 99.3929 748.656 101.33L748.68 118.744H741.906V102.596C741.906 101.127 741.617 100.065 741.039 99.4085C740.461 98.7523 739.477 98.4241 738.086 98.4241C736.164 98.4241 734.773 99.221 733.914 100.815V118.744H727.141V93.3851H733.492ZM791.547 106.299C791.547 110.205 790.656 113.338 788.875 115.698C787.109 118.041 784.719 119.213 781.703 119.213C779.141 119.213 777.07 118.323 775.492 116.541V128.494H768.719V93.3851H775L775.234 95.8694C776.875 93.9007 779.016 92.9163 781.656 92.9163C784.781 92.9163 787.211 94.0726 788.945 96.3851C790.68 98.6976 791.547 101.885 791.547 105.948V106.299ZM784.773 105.807C784.773 103.448 784.352 101.627 783.508 100.346C782.68 99.0648 781.469 98.4241 779.875 98.4241C777.75 98.4241 776.289 99.2366 775.492 100.862V111.244C776.32 112.916 777.797 113.752 779.922 113.752C783.156 113.752 784.773 111.104 784.773 105.807ZM794.711 105.83C794.711 103.315 795.195 101.073 796.164 99.1038C797.133 97.1351 798.523 95.6116 800.336 94.5335C802.164 93.4554 804.281 92.9163 806.688 92.9163C810.109 92.9163 812.898 93.9632 815.055 96.0569C817.227 98.1507 818.438 100.994 818.688 104.588L818.734 106.323C818.734 110.213 817.648 113.338 815.477 115.698C813.305 118.041 810.391 119.213 806.734 119.213C803.078 119.213 800.156 118.041 797.969 115.698C795.797 113.354 794.711 110.166 794.711 106.135V105.83ZM801.484 106.323C801.484 108.729 801.938 110.573 802.844 111.854C803.75 113.119 805.047 113.752 806.734 113.752C808.375 113.752 809.656 113.127 810.578 111.877C811.5 110.612 811.961 108.596 811.961 105.83C811.961 103.471 811.5 101.643 810.578 100.346C809.656 99.0491 808.359 98.4007 806.688 98.4007C805.031 98.4007 803.75 99.0491 802.844 100.346C801.938 101.627 801.484 103.619 801.484 106.323ZM829.141 93.3851L829.352 96.3148C831.164 94.0491 833.594 92.9163 836.641 92.9163C839.328 92.9163 841.328 93.7054 842.641 95.2835C843.953 96.8616 844.625 99.221 844.656 102.362V118.744H837.883V102.526C837.883 101.088 837.57 100.049 836.945 99.4085C836.32 98.7523 835.281 98.4241 833.828 98.4241C831.922 98.4241 830.492 99.2366 829.539 100.862V118.744H822.766V93.3851H829.141ZM861.484 119.213C857.766 119.213 854.734 118.073 852.391 115.791C850.062 113.51 848.898 110.471 848.898 106.674V106.018C848.898 103.471 849.391 101.198 850.375 99.1976C851.359 97.1819 852.75 95.6351 854.547 94.5569C856.359 93.4632 858.422 92.9163 860.734 92.9163C864.203 92.9163 866.93 94.0101 868.914 96.1976C870.914 98.3851 871.914 101.487 871.914 105.502V108.268H855.766C855.984 109.924 856.641 111.252 857.734 112.252C858.844 113.252 860.242 113.752 861.93 113.752C864.539 113.752 866.578 112.807 868.047 110.916L871.375 114.643C870.359 116.08 868.984 117.205 867.25 118.018C865.516 118.815 863.594 119.213 861.484 119.213ZM860.711 98.4007C859.367 98.4007 858.273 98.8538 857.43 99.7601C856.602 100.666 856.07 101.963 855.836 103.651H865.258V103.112C865.227 101.612 864.82 100.455 864.039 99.6429C863.258 98.8148 862.148 98.4007 860.711 98.4007ZM882.016 93.3851L882.227 96.3148C884.039 94.0491 886.469 92.9163 889.516 92.9163C892.203 92.9163 894.203 93.7054 895.516 95.2835C896.828 96.8616 897.5 99.221 897.531 102.362V118.744H890.758V102.526C890.758 101.088 890.445 100.049 889.82 99.4085C889.195 98.7523 888.156 98.4241 886.703 98.4241C884.797 98.4241 883.367 99.2366 882.414 100.862V118.744H875.641V93.3851H882.016ZM910.797 87.1507V93.3851H915.133V98.3538H910.797V111.01C910.797 111.948 910.977 112.619 911.336 113.026C911.695 113.432 912.383 113.635 913.398 113.635C914.148 113.635 914.812 113.58 915.391 113.471V118.604C914.062 119.01 912.695 119.213 911.289 119.213C906.539 119.213 904.117 116.815 904.023 112.018V98.3538H900.32V93.3851H904.023V87.1507H910.797ZM932.641 111.737C932.641 110.909 932.227 110.26 931.398 109.791C930.586 109.307 929.273 108.877 927.461 108.502C921.43 107.237 918.414 104.674 918.414 100.815C918.414 98.5648 919.344 96.6898 921.203 95.1898C923.078 93.6741 925.523 92.9163 928.539 92.9163C931.758 92.9163 934.328 93.6741 936.25 95.1898C938.188 96.7054 939.156 98.6741 939.156 101.096H932.383C932.383 100.127 932.07 99.3304 931.445 98.7054C930.82 98.0648 929.844 97.7444 928.516 97.7444C927.375 97.7444 926.492 98.0023 925.867 98.5179C925.242 99.0335 924.93 99.6898 924.93 100.487C924.93 101.237 925.281 101.846 925.984 102.315C926.703 102.768 927.906 103.166 929.594 103.51C931.281 103.838 932.703 104.213 933.859 104.635C937.438 105.948 939.227 108.221 939.227 111.455C939.227 113.768 938.234 115.643 936.25 117.08C934.266 118.502 931.703 119.213 928.562 119.213C926.438 119.213 924.547 118.838 922.891 118.088C921.25 117.323 919.961 116.284 919.023 114.971C918.086 113.643 917.617 112.213 917.617 110.682H924.039C924.102 111.885 924.547 112.807 925.375 113.448C926.203 114.088 927.312 114.409 928.703 114.409C930 114.409 930.977 114.166 931.633 113.682C932.305 113.182 932.641 112.534 932.641 111.737Z" fill="white"/>
<g filter="url(#filter4_d)">
<rect x="4" width="481" height="217" rx="20" fill="#27AE60"/>
<rect x="5" y="1" width="479" height="215" rx="19" stroke="black" stroke-width="2"/>
</g>
<path d="M163.477 84.6194L172.242 109.369L180.961 84.6194H190.195V118.744H183.141V109.416L183.844 93.3148L174.633 118.744H169.805L160.617 93.3382L161.32 109.416V118.744H154.289V84.6194H163.477ZM194.836 105.83C194.836 103.315 195.32 101.073 196.289 99.1038C197.258 97.1351 198.648 95.6116 200.461 94.5335C202.289 93.4554 204.406 92.9163 206.812 92.9163C210.234 92.9163 213.023 93.9632 215.18 96.0569C217.352 98.1507 218.562 100.994 218.812 104.588L218.859 106.323C218.859 110.213 217.773 113.338 215.602 115.698C213.43 118.041 210.516 119.213 206.859 119.213C203.203 119.213 200.281 118.041 198.094 115.698C195.922 113.354 194.836 110.166 194.836 106.135V105.83ZM201.609 106.323C201.609 108.729 202.062 110.573 202.969 111.854C203.875 113.119 205.172 113.752 206.859 113.752C208.5 113.752 209.781 113.127 210.703 111.877C211.625 110.612 212.086 108.596 212.086 105.83C212.086 103.471 211.625 101.643 210.703 100.346C209.781 99.0491 208.484 98.4007 206.812 98.4007C205.156 98.4007 203.875 99.0491 202.969 100.346C202.062 101.627 201.609 103.619 201.609 106.323ZM221.977 105.877C221.977 101.924 222.859 98.7757 224.625 96.4319C226.406 94.0882 228.836 92.9163 231.914 92.9163C234.383 92.9163 236.422 93.8382 238.031 95.6819V82.7444H244.828V118.744H238.711L238.383 116.049C236.695 118.159 234.523 119.213 231.867 119.213C228.883 119.213 226.484 118.041 224.672 115.698C222.875 113.338 221.977 110.065 221.977 105.877ZM228.75 106.369C228.75 108.744 229.164 110.565 229.992 111.83C230.82 113.096 232.023 113.729 233.602 113.729C235.695 113.729 237.172 112.846 238.031 111.08V101.073C237.188 99.3069 235.727 98.4241 233.648 98.4241C230.383 98.4241 228.75 101.073 228.75 106.369ZM265.266 116.166C263.594 118.198 261.281 119.213 258.328 119.213C255.609 119.213 253.531 118.432 252.094 116.869C250.672 115.307 249.945 113.018 249.914 110.002V93.3851H256.688V109.768C256.688 112.409 257.891 113.729 260.297 113.729C262.594 113.729 264.172 112.932 265.031 111.338V93.3851H271.828V118.744H265.453L265.266 116.166ZM284.086 118.744H277.289V82.7444H284.086V118.744ZM301.359 119.213C297.641 119.213 294.609 118.073 292.266 115.791C289.938 113.51 288.773 110.471 288.773 106.674V106.018C288.773 103.471 289.266 101.198 290.25 99.1976C291.234 97.1819 292.625 95.6351 294.422 94.5569C296.234 93.4632 298.297 92.9163 300.609 92.9163C304.078 92.9163 306.805 94.0101 308.789 96.1976C310.789 98.3851 311.789 101.487 311.789 105.502V108.268H295.641C295.859 109.924 296.516 111.252 297.609 112.252C298.719 113.252 300.117 113.752 301.805 113.752C304.414 113.752 306.453 112.807 307.922 110.916L311.25 114.643C310.234 116.08 308.859 117.205 307.125 118.018C305.391 118.815 303.469 119.213 301.359 119.213ZM300.586 98.4007C299.242 98.4007 298.148 98.8538 297.305 99.7601C296.477 100.666 295.945 101.963 295.711 103.651H305.133V103.112C305.102 101.612 304.695 100.455 303.914 99.6429C303.133 98.8148 302.023 98.4007 300.586 98.4007ZM329.391 111.737C329.391 110.909 328.977 110.26 328.148 109.791C327.336 109.307 326.023 108.877 324.211 108.502C318.18 107.237 315.164 104.674 315.164 100.815C315.164 98.5648 316.094 96.6898 317.953 95.1898C319.828 93.6741 322.273 92.9163 325.289 92.9163C328.508 92.9163 331.078 93.6741 333 95.1898C334.938 96.7054 335.906 98.6741 335.906 101.096H329.133C329.133 100.127 328.82 99.3304 328.195 98.7054C327.57 98.0648 326.594 97.7444 325.266 97.7444C324.125 97.7444 323.242 98.0023 322.617 98.5179C321.992 99.0335 321.68 99.6898 321.68 100.487C321.68 101.237 322.031 101.846 322.734 102.315C323.453 102.768 324.656 103.166 326.344 103.51C328.031 103.838 329.453 104.213 330.609 104.635C334.188 105.948 335.977 108.221 335.977 111.455C335.977 113.768 334.984 115.643 333 117.08C331.016 118.502 328.453 119.213 325.312 119.213C323.188 119.213 321.297 118.838 319.641 118.088C318 117.323 316.711 116.284 315.773 114.971C314.836 113.643 314.367 112.213 314.367 110.682H320.789C320.852 111.885 321.297 112.807 322.125 113.448C322.953 114.088 324.062 114.409 325.453 114.409C326.75 114.409 327.727 114.166 328.383 113.682C329.055 113.182 329.391 112.534 329.391 111.737Z" fill="white"/>
<defs>
<filter id="filter0_d" x="837" y="278" width="490" height="224" filterUnits="userSpaceOnUse" color-interpolation-filters="sRGB">
<feFlood flood-opacity="0" result="BackgroundImageFix"/>
<feColorMatrix in="SourceAlpha" type="matrix" values="0 0 0 0 0 0 0 0 0 0 0 0 0 0 0 0 0 0 127 0" result="hardAlpha"/>
<feOffset dy="4"/>
<feGaussianBlur stdDeviation="2"/>
<feColorMatrix type="matrix" values="0 0 0 0 0 0 0 0 0 0 0 0 0 0 0 0 0 0 0.25 0"/>
<feBlend mode="normal" in2="BackgroundImageFix" result="effect1_dropShadow"/>
<feBlend mode="normal" in="SourceGraphic" in2="effect1_dropShadow" result="shape"/>
</filter>
<filter id="filter1_d" x="278" y="278" width="488" height="224" filterUnits="userSpaceOnUse" color-interpolation-filters="sRGB">
<feFlood flood-opacity="0" result="BackgroundImageFix"/>
<feColorMatrix in="SourceAlpha" type="matrix" values="0 0 0 0 0 0 0 0 0 0 0 0 0 0 0 0 0 0 127 0" result="hardAlpha"/>
<feOffset dy="4"/>
<feGaussianBlur stdDeviation="2"/>
<feColorMatrix type="matrix" values="0 0 0 0 0 0 0 0 0 0 0 0 0 0 0 0 0 0 0.25 0"/>
<feBlend mode="normal" in2="BackgroundImageFix" result="effect1_dropShadow"/>
<feBlend mode="normal" in="SourceGraphic" in2="effect1_dropShadow" result="shape"/>
</filter>
<filter id="filter2_d" x="1119" y="0" width="489" height="225" filterUnits="userSpaceOnUse" color-interpolation-filters="sRGB">
<feFlood flood-opacity="0" result="BackgroundImageFix"/>
<feColorMatrix in="SourceAlpha" type="matrix" values="0 0 0 0 0 0 0 0 0 0 0 0 0 0 0 0 0 0 127 0" result="hardAlpha"/>
<feOffset dy="4"/>
<feGaussianBlur stdDeviation="2"/>
<feColorMatrix type="matrix" values="0 0 0 0 0 0 0 0 0 0 0 0 0 0 0 0 0 0 0.25 0"/>
<feBlend mode="normal" in2="BackgroundImageFix" result="effect1_dropShadow"/>
<feBlend mode="normal" in="SourceGraphic" in2="effect1_dropShadow" result="shape"/>
</filter>
<filter id="filter3_d" x="559" y="0" width="489" height="225" filterUnits="userSpaceOnUse" color-interpolation-filters="sRGB">
<feFlood flood-opacity="0" result="BackgroundImageFix"/>
<feColorMatrix in="SourceAlpha" type="matrix" values="0 0 0 0 0 0 0 0 0 0 0 0 0 0 0 0 0 0 127 0" result="hardAlpha"/>
<feOffset dy="4"/>
<feGaussianBlur stdDeviation="2"/>
<feColorMatrix type="matrix" values="0 0 0 0 0 0 0 0 0 0 0 0 0 0 0 0 0 0 0.25 0"/>
<feBlend mode="normal" in2="BackgroundImageFix" result="effect1_dropShadow"/>
<feBlend mode="normal" in="SourceGraphic" in2="effect1_dropShadow" result="shape"/>
</filter>
<filter id="filter4_d" x="0" y="0" width="489" height="225" filterUnits="userSpaceOnUse" color-interpolation-filters="sRGB">
<feFlood flood-opacity="0" result="BackgroundImageFix"/>
<feColorMatrix in="SourceAlpha" type="matrix" values="0 0 0 0 0 0 0 0 0 0 0 0 0 0 0 0 0 0 127 0" result="hardAlpha"/>
<feOffset dy="4"/>
<feGaussianBlur stdDeviation="2"/>
<feColorMatrix type="matrix" values="0 0 0 0 0 0 0 0 0 0 0 0 0 0 0 0 0 0 0.25 0"/>
<feBlend mode="normal" in2="BackgroundImageFix" result="effect1_dropShadow"/>
<feBlend mode="normal" in="SourceGraphic" in2="effect1_dropShadow" result="shape"/>
</filter>
</defs>
</svg>
