<svg width="780" height="540" viewBox="0 0 780 540" fill="none" xmlns="http://www.w3.org/2000/svg">
<rect width="780" height="540" rx="20" fill="white"/>
<g filter="url(#filter0_d)">
<rect x="675" y="15" width="89" height="510" rx="20" fill="#2F80ED"/>
<rect x="676" y="16" width="87" height="508" rx="19" stroke="black" stroke-width="2"/>
</g>
<path d="M716.367 174.68C712.695 174.414 709.805 173.055 707.695 170.602C705.586 168.164 704.531 164.945 704.531 160.945C704.531 156.57 706 153.125 708.937 150.609C711.891 148.109 715.937 146.859 721.078 146.859L723.164 146.859C726.445 146.859 729.336 147.438 731.836 148.594C734.336 149.75 736.25 151.398 737.578 153.539C738.922 155.695 739.594 158.195 739.594 161.039C739.594 164.977 738.539 168.148 736.43 170.555C734.32 172.961 731.359 174.352 727.547 174.727L727.547 167.695C729.75 167.523 731.344 166.906 732.328 165.844C733.328 164.797 733.828 163.195 733.828 161.039C733.828 158.695 732.984 156.938 731.297 155.766C729.625 154.609 727.023 154.016 723.492 153.984L720.914 153.984C717.227 153.984 714.531 154.539 712.828 155.648C711.125 156.773 710.273 158.539 710.273 160.945C710.273 163.117 710.766 164.734 711.75 165.797C712.75 166.875 714.289 167.492 716.367 167.648L716.367 174.68ZM717.914 177.797C720.43 177.797 722.672 178.281 724.641 179.25C726.609 180.219 728.133 181.609 729.211 183.422C730.289 185.25 730.828 187.367 730.828 189.773C730.828 193.195 729.781 195.984 727.687 198.141C725.594 200.313 722.75 201.523 719.156 201.773L717.422 201.82C713.531 201.82 710.406 200.734 708.047 198.563C705.703 196.391 704.531 193.477 704.531 189.82C704.531 186.164 705.703 183.242 708.047 181.055C710.391 178.883 713.578 177.797 717.609 177.797L717.914 177.797ZM717.422 184.57C715.016 184.57 713.172 185.023 711.891 185.93C710.625 186.836 709.992 188.133 709.992 189.82C709.992 191.461 710.617 192.742 711.867 193.664C713.133 194.586 715.148 195.047 717.914 195.047C720.273 195.047 722.102 194.586 723.398 193.664C724.695 192.742 725.344 191.445 725.344 189.773C725.344 188.117 724.695 186.836 723.398 185.93C722.117 185.023 720.125 184.57 717.422 184.57ZM730.359 212.344L727.523 212.555C729.727 214.352 730.828 216.781 730.828 219.844C730.828 223.109 729.539 225.352 726.961 226.57C729.539 228.352 730.828 230.891 730.828 234.188C730.828 236.938 730.023 238.984 728.414 240.328C726.82 241.672 724.414 242.344 721.195 242.344L705 242.344L705 235.547L721.172 235.547C722.609 235.547 723.656 235.266 724.312 234.703C724.984 234.141 725.32 233.148 725.32 231.727C725.32 229.695 724.352 228.289 722.414 227.508L705 227.531L705 220.758L721.148 220.758C722.617 220.758 723.68 220.469 724.336 219.891C724.992 219.313 725.32 218.328 725.32 216.938C725.32 215.016 724.523 213.625 722.93 212.766L705 212.766L705 205.992L730.359 205.992L730.359 212.344ZM717.445 270.398C713.539 270.398 710.406 269.508 708.047 267.727C705.703 265.961 704.531 263.57 704.531 260.555C704.531 257.992 705.422 255.922 707.203 254.344L695.25 254.344L695.25 247.57L730.359 247.57L730.359 253.852L727.875 254.086C729.844 255.727 730.828 257.867 730.828 260.508C730.828 263.633 729.672 266.063 727.359 267.797C725.047 269.531 721.859 270.398 717.797 270.398L717.445 270.398ZM717.937 263.625C720.297 263.625 722.117 263.203 723.398 262.359C724.68 261.531 725.32 260.32 725.32 258.727C725.32 256.602 724.508 255.141 722.883 254.344L712.5 254.344C710.828 255.172 709.992 256.648 709.992 258.773C709.992 262.008 712.641 263.625 717.937 263.625ZM717.914 273.563C720.43 273.563 722.672 274.047 724.641 275.016C726.609 275.984 728.133 277.375 729.211 279.188C730.289 281.016 730.828 283.133 730.828 285.539C730.828 288.961 729.781 291.75 727.687 293.906C725.594 296.078 722.75 297.289 719.156 297.539L717.422 297.586C713.531 297.586 710.406 296.5 708.047 294.328C705.703 292.156 704.531 289.242 704.531 285.586C704.531 281.93 705.703 279.008 708.047 276.82C710.391 274.648 713.578 273.563 717.609 273.563L717.914 273.563ZM717.422 280.336C715.016 280.336 713.172 280.789 711.891 281.695C710.625 282.602 709.992 283.898 709.992 285.586C709.992 287.227 710.617 288.508 711.867 289.43C713.133 290.352 715.148 290.813 717.914 290.813C720.273 290.813 722.102 290.352 723.398 289.43C724.695 288.508 725.344 287.211 725.344 285.539C725.344 283.883 724.695 282.602 723.398 281.695C722.117 280.789 720.125 280.336 717.422 280.336ZM730.359 307.992L727.43 308.203C729.695 310.016 730.828 312.445 730.828 315.492C730.828 318.18 730.039 320.18 728.461 321.492C726.883 322.805 724.523 323.477 721.383 323.508L705 323.508L705 316.734L721.219 316.734C722.656 316.734 723.695 316.422 724.336 315.797C724.992 315.172 725.32 314.133 725.32 312.68C725.32 310.773 724.508 309.344 722.883 308.391L705 308.391L705 301.617L730.359 301.617L730.359 307.992ZM704.531 340.336C704.531 336.617 705.672 333.586 707.953 331.242C710.234 328.914 713.273 327.75 717.07 327.75L717.727 327.75C720.273 327.75 722.547 328.242 724.547 329.227C726.562 330.211 728.109 331.602 729.187 333.398C730.281 335.211 730.828 337.273 730.828 339.586C730.828 343.055 729.734 345.781 727.547 347.766C725.359 349.766 722.258 350.766 718.242 350.766L715.477 350.766L715.477 334.617C713.82 334.836 712.492 335.492 711.492 336.586C710.492 337.695 709.992 339.094 709.992 340.781C709.992 343.391 710.937 345.43 712.828 346.898L709.102 350.227C707.664 349.211 706.539 347.836 705.727 346.102C704.93 344.367 704.531 342.445 704.531 340.336ZM725.344 339.563C725.344 338.219 724.891 337.125 723.984 336.281C723.078 335.453 721.781 334.922 720.094 334.688L720.094 344.109L720.633 344.109C722.133 344.078 723.289 343.672 724.102 342.891C724.93 342.109 725.344 341 725.344 339.563ZM730.359 360.867L727.43 361.078C729.695 362.891 730.828 365.32 730.828 368.367C730.828 371.055 730.039 373.055 728.461 374.367C726.883 375.68 724.523 376.352 721.383 376.383L705 376.383L705 369.609L721.219 369.609C722.656 369.609 723.695 369.297 724.336 368.672C724.992 368.047 725.32 367.008 725.32 365.555C725.32 363.648 724.508 362.219 722.883 361.266L705 361.266L705 354.492L730.359 354.492L730.359 360.867ZM736.594 389.648L730.359 389.648L730.359 393.984L725.391 393.984L725.391 389.648L712.734 389.648C711.797 389.648 711.125 389.828 710.719 390.188C710.312 390.547 710.109 391.234 710.109 392.25C710.109 393 710.164 393.664 710.273 394.242L705.141 394.242C704.734 392.914 704.531 391.547 704.531 390.141C704.531 385.391 706.93 382.969 711.727 382.875L725.391 382.875L725.391 379.172L730.359 379.172L730.359 382.875L736.594 382.875L736.594 389.648Z" fill="white"/>
<g filter="url(#filter1_d)">
<rect x="113" y="525" width="89" height="510" rx="20" transform="rotate(-180 113 525)" fill="#27AE60"/>
<rect x="112" y="524" width="87" height="508" rx="19" transform="rotate(-180 112 524)" stroke="black" stroke-width="2"/>
</g>
<path d="M54.5703 342.703L54.5703 353.156L83 353.156L83 360.188L54.5703 360.188L54.5703 370.5L48.875 370.5L48.875 342.703L54.5703 342.703ZM83.4688 329.555C83.4688 333.273 82.3281 336.305 80.0469 338.648C77.7656 340.977 74.7266 342.141 70.9297 342.141L70.2735 342.141C67.7266 342.141 65.4531 341.648 63.4531 340.664C61.4375 339.68 59.8906 338.289 58.8125 336.492C57.7188 334.68 57.1719 332.617 57.1719 330.305C57.1719 326.836 58.2656 324.109 60.4531 322.125C62.6406 320.125 65.7422 319.125 69.7578 319.125L72.5235 319.125L72.5235 335.273C74.1797 335.055 75.5078 334.398 76.5078 333.305C77.5078 332.195 78.0078 330.797 78.0078 329.109C78.0078 326.5 77.0625 324.461 75.1719 322.992L78.8985 319.664C80.336 320.68 81.461 322.055 82.2735 323.789C83.0703 325.523 83.4688 327.445 83.4688 329.555ZM62.6563 330.328C62.6563 331.672 63.1094 332.766 64.0156 333.609C64.9219 334.438 66.2188 334.969 67.9063 335.203L67.9063 325.781L67.3672 325.781C65.8672 325.813 64.711 326.219 63.8985 327C63.0703 327.781 62.6563 328.891 62.6563 330.328ZM57.6407 308.906L60.4766 308.695C58.2735 306.898 57.1719 304.469 57.1719 301.406C57.1719 298.141 58.461 295.898 61.0391 294.68C58.461 292.898 57.1719 290.359 57.1719 287.063C57.1719 284.313 57.9766 282.266 59.586 280.922C61.1797 279.578 63.586 278.906 66.8047 278.906L83 278.906L83 285.703L66.8282 285.703C65.3907 285.703 64.3438 285.984 63.6875 286.547C63.0157 287.109 62.6797 288.102 62.6797 289.523C62.6797 291.555 63.6485 292.961 65.586 293.742L83 293.719L83 300.492L66.8516 300.492C65.3828 300.492 64.3203 300.781 63.6641 301.359C63.0078 301.938 62.6797 302.922 62.6797 304.313C62.6797 306.234 63.4766 307.625 65.0703 308.484L83 308.484L83 315.258L57.6407 315.258L57.6407 308.906ZM70.5547 250.852C74.461 250.852 77.5938 251.742 79.9532 253.523C82.2969 255.289 83.4688 257.68 83.4688 260.695C83.4688 263.258 82.5782 265.328 80.7969 266.906L92.75 266.906L92.75 273.68L57.6407 273.68L57.6407 267.398L60.125 267.164C58.1563 265.523 57.1719 263.383 57.1719 260.742C57.1719 257.617 58.3282 255.188 60.6407 253.453C62.9532 251.719 66.1407 250.852 70.2032 250.852L70.5547 250.852ZM70.0625 257.625C67.7032 257.625 65.8828 258.047 64.6016 258.891C63.3203 259.719 62.6797 260.93 62.6797 262.523C62.6797 264.648 63.4922 266.109 65.1172 266.906L75.5 266.906C77.1719 266.078 78.0078 264.602 78.0078 262.477C78.0078 259.242 75.3594 257.625 70.0625 257.625ZM83 239.484L83 246.281L47 246.281L47 239.484L83 239.484ZM83 219.188C82.3907 219.5 81.6329 219.727 80.7266 219.867C82.5547 221.508 83.4688 223.641 83.4688 226.266C83.4688 228.75 82.75 230.813 81.3125 232.453C79.875 234.078 78.0625 234.891 75.875 234.891C73.1875 234.891 71.125 233.898 69.6875 231.914C68.25 229.914 67.5235 227.031 67.5079 223.266L67.5079 220.148L66.0547 220.148C64.8829 220.148 63.9454 220.453 63.2422 221.063C62.5391 221.656 62.1875 222.602 62.1875 223.898C62.1875 225.039 62.461 225.938 63.0079 226.594C63.5547 227.234 64.3047 227.555 65.2579 227.555L65.2578 234.328C63.7891 234.328 62.4297 233.875 61.1797 232.969C59.9297 232.063 58.9532 230.781 58.25 229.125C57.5313 227.469 57.1719 225.609 57.1719 223.547C57.1719 220.422 57.961 217.945 59.5391 216.117C61.1016 214.273 63.3047 213.352 66.1485 213.352L77.1407 213.352C79.5469 213.336 81.3672 213 82.6016 212.344L83 212.344L83 219.188ZM78.2891 224.789C78.2891 223.789 78.0704 222.867 77.6329 222.023C77.1797 221.18 76.5782 220.555 75.8282 220.148L71.4688 220.148L71.4688 222.68C71.4688 226.07 72.6407 227.875 74.9844 228.094L75.3829 228.117C76.2266 228.117 76.9219 227.82 77.4688 227.227C78.0157 226.633 78.2891 225.82 78.2891 224.789ZM51.4063 200.039L57.6407 200.039L57.6407 195.703L62.6094 195.703L62.6094 200.039L75.2657 200.039C76.2032 200.039 76.875 199.859 77.2813 199.5C77.6875 199.141 77.8907 198.453 77.8907 197.438C77.8907 196.688 77.836 196.023 77.7266 195.445L82.8594 195.445C83.2657 196.774 83.4688 198.141 83.4688 199.547C83.4688 204.297 81.0704 206.719 76.2735 206.813L62.6094 206.813L62.6094 210.516L57.6407 210.516L57.6407 206.813L51.4063 206.813L51.4063 200.039ZM83.4688 180.258C83.4688 183.977 82.3282 187.008 80.0469 189.352C77.7657 191.68 74.7266 192.844 70.9297 192.844L70.2735 192.844C67.7266 192.844 65.4532 192.352 63.4532 191.367C61.4375 190.383 59.8907 188.992 58.8125 187.195C57.7188 185.383 57.1719 183.32 57.1719 181.008C57.1719 177.539 58.2657 174.813 60.4532 172.828C62.6407 170.828 65.7422 169.828 69.7579 169.828L72.5235 169.828L72.5235 185.977C74.1797 185.758 75.5079 185.102 76.5079 184.008C77.5079 182.898 78.0079 181.5 78.0079 179.813C78.0079 177.203 77.0625 175.164 75.1719 173.695L78.8985 170.367C80.336 171.383 81.461 172.758 82.2735 174.492C83.0704 176.227 83.4688 178.149 83.4688 180.258ZM62.6563 181.031C62.6563 182.375 63.1094 183.469 64.0157 184.313C64.9219 185.141 66.2188 185.672 67.9063 185.906L67.9063 176.484L67.3672 176.484C65.8672 176.516 64.711 176.922 63.8985 177.703C63.0704 178.484 62.6563 179.594 62.6563 181.031Z" fill="white"/>
<path d="M111.34 81.2369L119.328 88.4834C119.971 89.0663 121 88.6103 121 87.7427L121 73.6492C121 72.7949 119.998 72.334 119.349 72.89L111.361 79.737C110.904 80.1287 110.894 80.8325 111.34 81.2369Z" fill="#333333"/>
<line x1="668" y1="80.5" x2="121" y2="80.5" stroke="#333333" stroke-width="2"/>
<circle cx="672.5" cy="80.5" r="4.5" transform="rotate(-180 672.5 80.5)" fill="white" stroke="#333333" stroke-width="2"/>
<path d="M302.984 67.4375C297.359 65.8594 294.547 62.2266 294.547 56.5391V51.875C294.547 48.5781 293.156 46.9297 290.375 46.9297V42.0781C293.094 42.0781 294.484 40.5234 294.547 37.4141V32.4453C294.547 29.5547 295.25 27.2188 296.656 25.4375C298.062 23.6562 300.172 22.3672 302.984 21.5703L304.297 25.3438C303.109 25.7812 302.211 26.5469 301.602 27.6406C300.992 28.7188 300.672 30.2188 300.641 32.1406V37.0625C300.641 40.5938 299.242 43.0703 296.445 44.4922C299.242 45.9297 300.641 48.4219 300.641 51.9688V56.9375C300.719 60.5938 301.938 62.8281 304.297 63.6406L302.984 67.4375ZM318.828 67.4375C313.203 65.8594 310.391 62.2266 310.391 56.5391V51.875C310.391 48.5781 309 46.9297 306.219 46.9297V42.0781C308.938 42.0781 310.328 40.5234 310.391 37.4141V32.4453C310.391 29.5547 311.094 27.2188 312.5 25.4375C313.906 23.6562 316.016 22.3672 318.828 21.5703L320.141 25.3438C318.953 25.7812 318.055 26.5469 317.445 27.6406C316.836 28.7188 316.516 30.2188 316.484 32.1406V37.0625C316.484 40.5938 315.086 43.0703 312.289 44.4922C315.086 45.9297 316.484 48.4219 316.484 51.9688V56.9375C316.562 60.5938 317.781 62.8281 320.141 63.6406L318.828 67.4375ZM344.984 50.7266L349.695 33.6406H356.773L348.219 59H341.75L333.195 33.6406H340.273L344.984 50.7266ZM374.094 59C373.781 58.3906 373.555 57.6328 373.414 56.7266C371.773 58.5547 369.641 59.4688 367.016 59.4688C364.531 59.4688 362.469 58.75 360.828 57.3125C359.203 55.875 358.391 54.0625 358.391 51.875C358.391 49.1875 359.383 47.125 361.367 45.6875C363.367 44.25 366.25 43.5234 370.016 43.5078H373.133V42.0547C373.133 40.8828 372.828 39.9453 372.219 39.2422C371.625 38.5391 370.68 38.1875 369.383 38.1875C368.242 38.1875 367.344 38.4609 366.688 39.0078C366.047 39.5547 365.727 40.3047 365.727 41.2578H358.953C358.953 39.7891 359.406 38.4297 360.312 37.1797C361.219 35.9297 362.5 34.9531 364.156 34.25C365.812 33.5312 367.672 33.1719 369.734 33.1719C372.859 33.1719 375.336 33.9609 377.164 35.5391C379.008 37.1016 379.93 39.3047 379.93 42.1484V53.1406C379.945 55.5469 380.281 57.3672 380.938 58.6016V59H374.094ZM368.492 54.2891C369.492 54.2891 370.414 54.0703 371.258 53.6328C372.102 53.1797 372.727 52.5781 373.133 51.8281V47.4688H370.602C367.211 47.4688 365.406 48.6406 365.188 50.9844L365.164 51.3828C365.164 52.2266 365.461 52.9219 366.055 53.4688C366.648 54.0156 367.461 54.2891 368.492 54.2891ZM392.281 59H385.484V23H392.281V59ZM413.07 56.4219C411.398 58.4531 409.086 59.4688 406.133 59.4688C403.414 59.4688 401.336 58.6875 399.898 57.125C398.477 55.5625 397.75 53.2734 397.719 50.2578V33.6406H404.492V50.0234C404.492 52.6641 405.695 53.9844 408.102 53.9844C410.398 53.9844 411.977 53.1875 412.836 51.5938V33.6406H419.633V59H413.258L413.07 56.4219ZM436.414 59.4688C432.695 59.4688 429.664 58.3281 427.32 56.0469C424.992 53.7656 423.828 50.7266 423.828 46.9297V46.2734C423.828 43.7266 424.32 41.4531 425.305 39.4531C426.289 37.4375 427.68 35.8906 429.477 34.8125C431.289 33.7188 433.352 33.1719 435.664 33.1719C439.133 33.1719 441.859 34.2656 443.844 36.4531C445.844 38.6406 446.844 41.7422 446.844 45.7578V48.5234H430.695C430.914 50.1797 431.57 51.5078 432.664 52.5078C433.773 53.5078 435.172 54.0078 436.859 54.0078C439.469 54.0078 441.508 53.0625 442.977 51.1719L446.305 54.8984C445.289 56.3359 443.914 57.4609 442.18 58.2734C440.445 59.0703 438.523 59.4688 436.414 59.4688ZM435.641 38.6562C434.297 38.6562 433.203 39.1094 432.359 40.0156C431.531 40.9219 431 42.2188 430.766 43.9062H440.188V43.3672C440.156 41.8672 439.75 40.7109 438.969 39.8984C438.188 39.0703 437.078 38.6562 435.641 38.6562ZM460.859 63.6406C463.234 62.7969 464.453 60.5312 464.516 56.8438V51.875C464.516 48.3438 465.945 45.8906 468.805 44.5156C465.945 43.1406 464.516 40.6484 464.516 37.0391V32.1406C464.453 28.5 463.234 26.2344 460.859 25.3438L462.172 21.5703C464.969 22.3516 467.07 23.6328 468.477 25.4141C469.883 27.1797 470.594 29.5 470.609 32.375V37.4141C470.672 40.5234 472.062 42.0781 474.781 42.0781V46.9297C472 46.9297 470.609 48.5625 470.609 51.8281V56.9141C470.484 62.3828 467.672 65.8906 462.172 67.4375L460.859 63.6406ZM476.703 63.6406C479.078 62.7969 480.297 60.5312 480.359 56.8438V51.875C480.359 48.3438 481.789 45.8906 484.648 44.5156C481.789 43.1406 480.359 40.6484 480.359 37.0391V32.1406C480.297 28.5 479.078 26.2344 476.703 25.3438L478.016 21.5703C480.812 22.3516 482.914 23.6328 484.32 25.4141C485.727 27.1797 486.438 29.5 486.453 32.375V37.4141C486.516 40.5234 487.906 42.0781 490.625 42.0781V46.9297C487.844 46.9297 486.453 48.5625 486.453 51.8281V56.9141C486.328 62.3828 483.516 65.8906 478.016 67.4375L476.703 63.6406Z" fill="black"/>
<path d="M114.34 208.237L122.328 215.483C122.971 216.066 124 215.61 124 214.743L124 200.649C124 199.795 122.998 199.334 122.349 199.89L114.361 206.737C113.904 207.129 113.894 207.832 114.34 208.237Z" fill="#333333"/>
<line x1="671" y1="207.5" x2="124" y2="207.5" stroke="#333333" stroke-width="2"/>
<circle cx="675.5" cy="207.5" r="4.5" transform="rotate(-180 675.5 207.5)" fill="white" stroke="#333333" stroke-width="2"/>
<path d="M198.352 151.523H195.023V188.719H198.352V193.945H188.227V146.297H198.352V151.523ZM224.203 173.555C224.203 177.461 223.312 180.594 221.531 182.953C219.766 185.297 217.375 186.469 214.359 186.469C211.797 186.469 209.727 185.578 208.148 183.797V195.75H201.375V160.641H207.656L207.891 163.125C209.531 161.156 211.672 160.172 214.312 160.172C217.438 160.172 219.867 161.328 221.602 163.641C223.336 165.953 224.203 169.141 224.203 173.203V173.555ZM217.43 173.062C217.43 170.703 217.008 168.883 216.164 167.602C215.336 166.32 214.125 165.68 212.531 165.68C210.406 165.68 208.945 166.492 208.148 168.117V178.5C208.977 180.172 210.453 181.008 212.578 181.008C215.812 181.008 217.43 178.359 217.43 173.062ZM242.672 166.992C241.75 166.867 240.938 166.805 240.234 166.805C237.672 166.805 235.992 167.672 235.195 169.406V186H228.422V160.641H234.82L235.008 163.664C236.367 161.336 238.25 160.172 240.656 160.172C241.406 160.172 242.109 160.273 242.766 160.477L242.672 166.992ZM244.055 173.086C244.055 170.57 244.539 168.328 245.508 166.359C246.477 164.391 247.867 162.867 249.68 161.789C251.508 160.711 253.625 160.172 256.031 160.172C259.453 160.172 262.242 161.219 264.398 163.312C266.57 165.406 267.781 168.25 268.031 171.844L268.078 173.578C268.078 177.469 266.992 180.594 264.82 182.953C262.648 185.297 259.734 186.469 256.078 186.469C252.422 186.469 249.5 185.297 247.312 182.953C245.141 180.609 244.055 177.422 244.055 173.391V173.086ZM250.828 173.578C250.828 175.984 251.281 177.828 252.188 179.109C253.094 180.375 254.391 181.008 256.078 181.008C257.719 181.008 259 180.383 259.922 179.133C260.844 177.867 261.305 175.852 261.305 173.086C261.305 170.727 260.844 168.898 259.922 167.602C259 166.305 257.703 165.656 256.031 165.656C254.375 165.656 253.094 166.305 252.188 167.602C251.281 168.883 250.828 170.875 250.828 173.578ZM295.078 173.555C295.078 177.461 294.188 180.594 292.406 182.953C290.641 185.297 288.25 186.469 285.234 186.469C282.672 186.469 280.602 185.578 279.023 183.797V195.75H272.25V160.641H278.531L278.766 163.125C280.406 161.156 282.547 160.172 285.188 160.172C288.312 160.172 290.742 161.328 292.477 163.641C294.211 165.953 295.078 169.141 295.078 173.203V173.555ZM288.305 173.062C288.305 170.703 287.883 168.883 287.039 167.602C286.211 166.32 285 165.68 283.406 165.68C281.281 165.68 279.82 166.492 279.023 168.117V178.5C279.852 180.172 281.328 181.008 283.453 181.008C286.688 181.008 288.305 178.359 288.305 173.062ZM310.969 186.469C307.25 186.469 304.219 185.328 301.875 183.047C299.547 180.766 298.383 177.727 298.383 173.93V173.273C298.383 170.727 298.875 168.453 299.859 166.453C300.844 164.438 302.234 162.891 304.031 161.812C305.844 160.719 307.906 160.172 310.219 160.172C313.688 160.172 316.414 161.266 318.398 163.453C320.398 165.641 321.398 168.742 321.398 172.758V175.523H305.25C305.469 177.18 306.125 178.508 307.219 179.508C308.328 180.508 309.727 181.008 311.414 181.008C314.023 181.008 316.062 180.062 317.531 178.172L320.859 181.898C319.844 183.336 318.469 184.461 316.734 185.273C315 186.07 313.078 186.469 310.969 186.469ZM310.195 165.656C308.852 165.656 307.758 166.109 306.914 167.016C306.086 167.922 305.555 169.219 305.32 170.906H314.742V170.367C314.711 168.867 314.305 167.711 313.523 166.898C312.742 166.07 311.633 165.656 310.195 165.656ZM339.516 166.992C338.594 166.867 337.781 166.805 337.078 166.805C334.516 166.805 332.836 167.672 332.039 169.406V186H325.266V160.641H331.664L331.852 163.664C333.211 161.336 335.094 160.172 337.5 160.172C338.25 160.172 338.953 160.273 339.609 160.477L339.516 166.992ZM352.078 154.406V160.641H356.414V165.609H352.078V178.266C352.078 179.203 352.258 179.875 352.617 180.281C352.977 180.688 353.664 180.891 354.68 180.891C355.43 180.891 356.094 180.836 356.672 180.727V185.859C355.344 186.266 353.977 186.469 352.57 186.469C347.82 186.469 345.398 184.07 345.305 179.273V165.609H341.602V160.641H345.305V154.406H352.078ZM369.656 176.414L374.344 160.641H381.609L371.414 189.938L370.852 191.273C369.336 194.586 366.836 196.242 363.352 196.242C362.367 196.242 361.367 196.094 360.352 195.797V190.664L361.383 190.688C362.664 190.688 363.617 190.492 364.242 190.102C364.883 189.711 365.383 189.062 365.742 188.156L366.539 186.07L357.656 160.641H364.945L369.656 176.414ZM381.984 146.297H392.109V193.945H381.984V188.719H385.336V151.523H381.984V146.297ZM431.133 168.516H410.18V162.984H431.133V168.516ZM431.133 178.664H410.18V173.133H431.133V178.664ZM451.289 162.352L448.102 160.5C449.445 158.391 450.141 156.211 450.188 153.961V150H455.578V153.633C455.578 155.039 455.188 156.562 454.406 158.203C453.625 159.844 452.586 161.227 451.289 162.352ZM459.422 162.352L456.234 160.5C457.578 158.391 458.273 156.211 458.32 153.961V150H463.711V153.633C463.711 155.039 463.32 156.562 462.539 158.203C461.758 159.844 460.719 161.227 459.422 162.352ZM478.148 177.727L482.859 160.641H489.938L481.383 186H474.914L466.359 160.641H473.438L478.148 177.727ZM507.258 186C506.945 185.391 506.719 184.633 506.578 183.727C504.938 185.555 502.805 186.469 500.18 186.469C497.695 186.469 495.633 185.75 493.992 184.312C492.367 182.875 491.555 181.062 491.555 178.875C491.555 176.188 492.547 174.125 494.531 172.688C496.531 171.25 499.414 170.523 503.18 170.508H506.297V169.055C506.297 167.883 505.992 166.945 505.383 166.242C504.789 165.539 503.844 165.188 502.547 165.188C501.406 165.188 500.508 165.461 499.852 166.008C499.211 166.555 498.891 167.305 498.891 168.258H492.117C492.117 166.789 492.57 165.43 493.477 164.18C494.383 162.93 495.664 161.953 497.32 161.25C498.977 160.531 500.836 160.172 502.898 160.172C506.023 160.172 508.5 160.961 510.328 162.539C512.172 164.102 513.094 166.305 513.094 169.148V180.141C513.109 182.547 513.445 184.367 514.102 185.602V186H507.258ZM501.656 181.289C502.656 181.289 503.578 181.07 504.422 180.633C505.266 180.18 505.891 179.578 506.297 178.828V174.469H503.766C500.375 174.469 498.57 175.641 498.352 177.984L498.328 178.383C498.328 179.227 498.625 179.922 499.219 180.469C499.812 181.016 500.625 181.289 501.656 181.289ZM525.445 186H518.648V150H525.445V186ZM546.234 183.422C544.562 185.453 542.25 186.469 539.297 186.469C536.578 186.469 534.5 185.688 533.062 184.125C531.641 182.562 530.914 180.273 530.883 177.258V160.641H537.656V177.023C537.656 179.664 538.859 180.984 541.266 180.984C543.562 180.984 545.141 180.188 546 178.594V160.641H552.797V186H546.422L546.234 183.422ZM569.578 186.469C565.859 186.469 562.828 185.328 560.484 183.047C558.156 180.766 556.992 177.727 556.992 173.93V173.273C556.992 170.727 557.484 168.453 558.469 166.453C559.453 164.438 560.844 162.891 562.641 161.812C564.453 160.719 566.516 160.172 568.828 160.172C572.297 160.172 575.023 161.266 577.008 163.453C579.008 165.641 580.008 168.742 580.008 172.758V175.523H563.859C564.078 177.18 564.734 178.508 565.828 179.508C566.938 180.508 568.336 181.008 570.023 181.008C572.633 181.008 574.672 180.062 576.141 178.172L579.469 181.898C578.453 183.336 577.078 184.461 575.344 185.273C573.609 186.07 571.688 186.469 569.578 186.469ZM568.805 165.656C567.461 165.656 566.367 166.109 565.523 167.016C564.695 167.922 564.164 169.219 563.93 170.906H573.352V170.367C573.32 168.867 572.914 167.711 572.133 166.898C571.352 166.07 570.242 165.656 568.805 165.656ZM585.82 162.352L582.633 160.5C583.977 158.391 584.672 156.211 584.719 153.961V150H590.109V153.633C590.109 155.039 589.719 156.562 588.938 158.203C588.156 159.844 587.117 161.227 585.82 162.352ZM593.953 162.352L590.766 160.5C592.109 158.391 592.805 156.211 592.852 153.961V150H598.242V153.633C598.242 155.039 597.852 156.562 597.07 158.203C596.289 159.844 595.25 161.227 593.953 162.352Z" fill="black"/>
<path d="M672.66 333.763L664.672 326.517C664.029 325.934 663 326.39 663 327.257V341.351C663 342.205 664.002 342.666 664.651 342.11L672.639 335.263C673.096 334.871 673.106 334.168 672.66 333.763Z" fill="#333333"/>
<line x1="116" y1="334.5" x2="663" y2="334.5" stroke="#333333" stroke-width="2"/>
<circle cx="111.5" cy="334.5" r="4.5" fill="white" stroke="#333333" stroke-width="2"/>
<path d="M672.66 461.763L664.672 454.517C664.029 453.934 663 454.39 663 455.257V469.351C663 470.205 664.002 470.666 664.651 470.11L672.639 463.263C673.096 462.871 673.106 462.168 672.66 461.763Z" fill="#333333"/>
<path d="M114.84 462.762L122.828 470.008C123.471 470.591 124.5 470.135 124.5 469.268L124.5 455.174C124.5 454.32 123.498 453.859 122.849 454.415L114.861 461.262C114.404 461.654 114.394 462.358 114.84 462.762Z" fill="#333333"/>
<line x1="116" y1="462.5" x2="663" y2="462.5" stroke="#333333" stroke-width="2"/>
<path d="M193.32 299.125C193.32 295.547 193.797 292.141 194.75 288.906C195.703 285.672 197.109 282.812 198.969 280.328C200.828 277.828 202.844 276.094 205.016 275.125L206.328 278.781C204.047 280.469 202.266 283.078 200.984 286.609C199.703 290.141 199.062 294.266 199.062 298.984V299.711C199.062 304.445 199.695 308.586 200.961 312.133C202.227 315.68 204.016 318.328 206.328 320.078L205.016 323.664C202.891 322.711 200.906 321.023 199.062 318.602C197.234 316.195 195.836 313.414 194.867 310.258C193.898 307.102 193.383 303.805 193.32 300.367V299.125ZM221.562 313.469C217.844 313.469 214.812 312.328 212.469 310.047C210.141 307.766 208.977 304.727 208.977 300.93V300.273C208.977 297.727 209.469 295.453 210.453 293.453C211.438 291.438 212.828 289.891 214.625 288.812C216.438 287.719 218.5 287.172 220.812 287.172C224.281 287.172 227.008 288.266 228.992 290.453C230.992 292.641 231.992 295.742 231.992 299.758V302.523H215.844C216.062 304.18 216.719 305.508 217.812 306.508C218.922 307.508 220.32 308.008 222.008 308.008C224.617 308.008 226.656 307.062 228.125 305.172L231.453 308.898C230.438 310.336 229.062 311.461 227.328 312.273C225.594 313.07 223.672 313.469 221.562 313.469ZM220.789 292.656C219.445 292.656 218.352 293.109 217.508 294.016C216.68 294.922 216.148 296.219 215.914 297.906H225.336V297.367C225.305 295.867 224.898 294.711 224.117 293.898C223.336 293.07 222.227 292.656 220.789 292.656ZM245.023 304.727L249.734 287.641H256.812L248.258 313H241.789L233.234 287.641H240.312L245.023 304.727ZM271.156 313.469C267.438 313.469 264.406 312.328 262.062 310.047C259.734 307.766 258.57 304.727 258.57 300.93V300.273C258.57 297.727 259.062 295.453 260.047 293.453C261.031 291.438 262.422 289.891 264.219 288.812C266.031 287.719 268.094 287.172 270.406 287.172C273.875 287.172 276.602 288.266 278.586 290.453C280.586 292.641 281.586 295.742 281.586 299.758V302.523H265.438C265.656 304.18 266.312 305.508 267.406 306.508C268.516 307.508 269.914 308.008 271.602 308.008C274.211 308.008 276.25 307.062 277.719 305.172L281.047 308.898C280.031 310.336 278.656 311.461 276.922 312.273C275.188 313.07 273.266 313.469 271.156 313.469ZM270.383 292.656C269.039 292.656 267.945 293.109 267.102 294.016C266.273 294.922 265.742 296.219 265.508 297.906H274.93V297.367C274.898 295.867 274.492 294.711 273.711 293.898C272.93 293.07 271.82 292.656 270.383 292.656ZM291.688 287.641L291.898 290.57C293.711 288.305 296.141 287.172 299.188 287.172C301.875 287.172 303.875 287.961 305.188 289.539C306.5 291.117 307.172 293.477 307.203 296.617V313H300.43V296.781C300.43 295.344 300.117 294.305 299.492 293.664C298.867 293.008 297.828 292.68 296.375 292.68C294.469 292.68 293.039 293.492 292.086 295.117V313H285.312V287.641H291.688ZM320.469 281.406V287.641H324.805V292.609H320.469V305.266C320.469 306.203 320.648 306.875 321.008 307.281C321.367 307.688 322.055 307.891 323.07 307.891C323.82 307.891 324.484 307.836 325.062 307.727V312.859C323.734 313.266 322.367 313.469 320.961 313.469C316.211 313.469 313.789 311.07 313.695 306.273V292.609H309.992V287.641H313.695V281.406H320.469ZM340.25 299.664C340.25 303.195 339.742 306.594 338.727 309.859C337.711 313.125 336.25 316.008 334.344 318.508C332.438 321.008 330.398 322.727 328.227 323.664L326.914 320.078C329.133 318.406 330.883 315.828 332.164 312.344C333.445 308.859 334.109 304.852 334.156 300.32V299.078C334.156 294.406 333.516 290.289 332.234 286.727C330.969 283.164 329.195 280.492 326.914 278.711L328.227 275.125C330.352 276.047 332.352 277.719 334.227 280.141C336.117 282.562 337.578 285.383 338.609 288.602C339.656 291.82 340.203 295.156 340.25 298.609V299.664ZM378.992 295.516H358.039V289.984H378.992V295.516ZM378.992 305.664H358.039V300.133H378.992V305.664ZM401.164 276.203L404.352 278.055C403.008 280.18 402.312 282.336 402.266 284.523V288.438H396.898V284.922C396.898 283.453 397.305 281.891 398.117 280.234C398.945 278.562 399.961 277.219 401.164 276.203ZM409.203 276.203L412.391 278.055C411.047 280.18 410.352 282.336 410.305 284.523V288.438H404.938V284.922C404.938 283.453 405.344 281.891 406.156 280.234C406.984 278.562 408 277.219 409.203 276.203ZM422.984 290.406C424.781 288.25 427.039 287.172 429.758 287.172C435.258 287.172 438.047 290.367 438.125 296.758V313H431.352V296.945C431.352 295.492 431.039 294.422 430.414 293.734C429.789 293.031 428.75 292.68 427.297 292.68C425.312 292.68 423.875 293.445 422.984 294.977V313H416.211V277H422.984V290.406ZM457.93 313C457.617 312.391 457.391 311.633 457.25 310.727C455.609 312.555 453.477 313.469 450.852 313.469C448.367 313.469 446.305 312.75 444.664 311.312C443.039 309.875 442.227 308.062 442.227 305.875C442.227 303.188 443.219 301.125 445.203 299.688C447.203 298.25 450.086 297.523 453.852 297.508H456.969V296.055C456.969 294.883 456.664 293.945 456.055 293.242C455.461 292.539 454.516 292.188 453.219 292.188C452.078 292.188 451.18 292.461 450.523 293.008C449.883 293.555 449.562 294.305 449.562 295.258H442.789C442.789 293.789 443.242 292.43 444.148 291.18C445.055 289.93 446.336 288.953 447.992 288.25C449.648 287.531 451.508 287.172 453.57 287.172C456.695 287.172 459.172 287.961 461 289.539C462.844 291.102 463.766 293.305 463.766 296.148V307.141C463.781 309.547 464.117 311.367 464.773 312.602V313H457.93ZM452.328 308.289C453.328 308.289 454.25 308.07 455.094 307.633C455.938 307.18 456.562 306.578 456.969 305.828V301.469H454.438C451.047 301.469 449.242 302.641 449.023 304.984L449 305.383C449 306.227 449.297 306.922 449.891 307.469C450.484 308.016 451.297 308.289 452.328 308.289ZM475.203 287.641L475.414 290.57C477.227 288.305 479.656 287.172 482.703 287.172C485.391 287.172 487.391 287.961 488.703 289.539C490.016 291.117 490.688 293.477 490.719 296.617V313H483.945V296.781C483.945 295.344 483.633 294.305 483.008 293.664C482.383 293.008 481.344 292.68 479.891 292.68C477.984 292.68 476.555 293.492 475.602 295.117V313H468.828V287.641H475.203ZM494.82 300.133C494.82 296.18 495.703 293.031 497.469 290.688C499.25 288.344 501.68 287.172 504.758 287.172C507.227 287.172 509.266 288.094 510.875 289.938V277H517.672V313H511.555L511.227 310.305C509.539 312.414 507.367 313.469 504.711 313.469C501.727 313.469 499.328 312.297 497.516 309.953C495.719 307.594 494.82 304.32 494.82 300.133ZM501.594 300.625C501.594 303 502.008 304.82 502.836 306.086C503.664 307.352 504.867 307.984 506.445 307.984C508.539 307.984 510.016 307.102 510.875 305.336V295.328C510.031 293.562 508.57 292.68 506.492 292.68C503.227 292.68 501.594 295.328 501.594 300.625ZM530.07 313H523.273V277H530.07V313ZM547.344 313.469C543.625 313.469 540.594 312.328 538.25 310.047C535.922 307.766 534.758 304.727 534.758 300.93V300.273C534.758 297.727 535.25 295.453 536.234 293.453C537.219 291.438 538.609 289.891 540.406 288.812C542.219 287.719 544.281 287.172 546.594 287.172C550.062 287.172 552.789 288.266 554.773 290.453C556.773 292.641 557.773 295.742 557.773 299.758V302.523H541.625C541.844 304.18 542.5 305.508 543.594 306.508C544.703 307.508 546.102 308.008 547.789 308.008C550.398 308.008 552.438 307.062 553.906 305.172L557.234 308.898C556.219 310.336 554.844 311.461 553.109 312.273C551.375 313.07 549.453 313.469 547.344 313.469ZM546.57 292.656C545.227 292.656 544.133 293.109 543.289 294.016C542.461 294.922 541.93 296.219 541.695 297.906H551.117V297.367C551.086 295.867 550.68 294.711 549.898 293.898C549.117 293.07 548.008 292.656 546.57 292.656ZM575.891 293.992C574.969 293.867 574.156 293.805 573.453 293.805C570.891 293.805 569.211 294.672 568.414 296.406V313H561.641V287.641H568.039L568.227 290.664C569.586 288.336 571.469 287.172 573.875 287.172C574.625 287.172 575.328 287.273 575.984 287.477L575.891 293.992ZM581.82 289.352L578.633 287.5C579.977 285.391 580.672 283.211 580.719 280.961V277H586.109V280.633C586.109 282.039 585.719 283.562 584.938 285.203C584.156 286.844 583.117 288.227 581.82 289.352ZM589.953 289.352L586.766 287.5C588.109 285.391 588.805 283.211 588.852 280.961V277H594.242V280.633C594.242 282.039 593.852 283.562 593.07 285.203C592.289 286.844 591.25 288.227 589.953 289.352Z" fill="black"/>
<path d="M145.305 406.523H141.977V443.719H145.305V448.945H135.18V401.297H145.305V406.523ZM148.633 427.125C148.633 423.547 149.109 420.141 150.062 416.906C151.016 413.672 152.422 410.812 154.281 408.328C156.141 405.828 158.156 404.094 160.328 403.125L161.641 406.781C159.359 408.469 157.578 411.078 156.297 414.609C155.016 418.141 154.375 422.266 154.375 426.984V427.711C154.375 432.445 155.008 436.586 156.273 440.133C157.539 443.68 159.328 446.328 161.641 448.078L160.328 451.664C158.203 450.711 156.219 449.023 154.375 446.602C152.547 444.195 151.148 441.414 150.18 438.258C149.211 435.102 148.695 431.805 148.633 428.367V427.125ZM171.438 415.641L171.648 418.57C173.461 416.305 175.891 415.172 178.938 415.172C181.625 415.172 183.625 415.961 184.938 417.539C186.25 419.117 186.922 421.477 186.953 424.617V441H180.18V424.781C180.18 423.344 179.867 422.305 179.242 421.664C178.617 421.008 177.578 420.68 176.125 420.68C174.219 420.68 172.789 421.492 171.836 423.117V441H165.062V415.641H171.438ZM191.125 428.133C191.125 424.242 192.047 421.109 193.891 418.734C195.75 416.359 198.25 415.172 201.391 415.172C204.172 415.172 206.336 416.125 207.883 418.031L208.164 415.641H214.305V440.156C214.305 442.375 213.797 444.305 212.781 445.945C211.781 447.586 210.367 448.836 208.539 449.695C206.711 450.555 204.57 450.984 202.117 450.984C200.258 450.984 198.445 450.609 196.68 449.859C194.914 449.125 193.578 448.172 192.672 447L195.672 442.875C197.359 444.766 199.406 445.711 201.812 445.711C203.609 445.711 205.008 445.227 206.008 444.258C207.008 443.305 207.508 441.945 207.508 440.18V438.82C205.945 440.586 203.891 441.469 201.344 441.469C198.297 441.469 195.828 440.281 193.938 437.906C192.062 435.516 191.125 432.352 191.125 428.414V428.133ZM197.898 428.625C197.898 430.922 198.359 432.727 199.281 434.039C200.203 435.336 201.469 435.984 203.078 435.984C205.141 435.984 206.617 435.211 207.508 433.664V423C206.602 421.453 205.141 420.68 203.125 420.68C201.5 420.68 200.219 421.344 199.281 422.672C198.359 424 197.898 425.984 197.898 428.625ZM229.164 406.875L237.93 431.625L246.648 406.875H255.883V441H248.828V431.672L249.531 415.57L240.32 441H235.492L226.305 415.594L227.008 431.672V441H219.977V406.875H229.164ZM260.523 428.086C260.523 425.57 261.008 423.328 261.977 421.359C262.945 419.391 264.336 417.867 266.148 416.789C267.977 415.711 270.094 415.172 272.5 415.172C275.922 415.172 278.711 416.219 280.867 418.312C283.039 420.406 284.25 423.25 284.5 426.844L284.547 428.578C284.547 432.469 283.461 435.594 281.289 437.953C279.117 440.297 276.203 441.469 272.547 441.469C268.891 441.469 265.969 440.297 263.781 437.953C261.609 435.609 260.523 432.422 260.523 428.391V428.086ZM267.297 428.578C267.297 430.984 267.75 432.828 268.656 434.109C269.562 435.375 270.859 436.008 272.547 436.008C274.188 436.008 275.469 435.383 276.391 434.133C277.312 432.867 277.773 430.852 277.773 428.086C277.773 425.727 277.312 423.898 276.391 422.602C275.469 421.305 274.172 420.656 272.5 420.656C270.844 420.656 269.562 421.305 268.656 422.602C267.75 423.883 267.297 425.875 267.297 428.578ZM287.664 428.133C287.664 424.18 288.547 421.031 290.312 418.688C292.094 416.344 294.523 415.172 297.602 415.172C300.07 415.172 302.109 416.094 303.719 417.938V405H310.516V441H304.398L304.07 438.305C302.383 440.414 300.211 441.469 297.555 441.469C294.57 441.469 292.172 440.297 290.359 437.953C288.562 435.594 287.664 432.32 287.664 428.133ZM294.438 428.625C294.438 431 294.852 432.82 295.68 434.086C296.508 435.352 297.711 435.984 299.289 435.984C301.383 435.984 302.859 435.102 303.719 433.336V423.328C302.875 421.562 301.414 420.68 299.336 420.68C296.07 420.68 294.438 423.328 294.438 428.625ZM327.438 441.469C323.719 441.469 320.688 440.328 318.344 438.047C316.016 435.766 314.852 432.727 314.852 428.93V428.273C314.852 425.727 315.344 423.453 316.328 421.453C317.312 419.438 318.703 417.891 320.5 416.812C322.312 415.719 324.375 415.172 326.688 415.172C330.156 415.172 332.883 416.266 334.867 418.453C336.867 420.641 337.867 423.742 337.867 427.758V430.523H321.719C321.938 432.18 322.594 433.508 323.688 434.508C324.797 435.508 326.195 436.008 327.883 436.008C330.492 436.008 332.531 435.062 334 433.172L337.328 436.898C336.312 438.336 334.938 439.461 333.203 440.273C331.469 441.07 329.547 441.469 327.438 441.469ZM326.664 420.656C325.32 420.656 324.227 421.109 323.383 422.016C322.555 422.922 322.023 424.219 321.789 425.906H331.211V425.367C331.18 423.867 330.773 422.711 329.992 421.898C329.211 421.07 328.102 420.656 326.664 420.656ZM348.883 441H342.086V405H348.883V441ZM366.156 427.664C366.156 431.195 365.648 434.594 364.633 437.859C363.617 441.125 362.156 444.008 360.25 446.508C358.344 449.008 356.305 450.727 354.133 451.664L352.82 448.078C355.039 446.406 356.789 443.828 358.07 440.344C359.352 436.859 360.016 432.852 360.062 428.32V427.078C360.062 422.406 359.422 418.289 358.141 414.727C356.875 411.164 355.102 408.492 352.82 406.711L354.133 403.125C356.258 404.047 358.258 405.719 360.133 408.141C362.023 410.562 363.484 413.383 364.516 416.602C365.562 419.82 366.109 423.156 366.156 426.609V427.664ZM369.109 401.297H379.234V448.945H369.109V443.719H372.461V406.523H369.109V401.297ZM418.258 423.516H397.305V417.984H418.258V423.516ZM418.258 433.664H397.305V428.133H418.258V433.664ZM438.414 417.352L435.227 415.5C436.57 413.391 437.266 411.211 437.312 408.961V405H442.703V408.633C442.703 410.039 442.312 411.562 441.531 413.203C440.75 414.844 439.711 416.227 438.414 417.352ZM446.547 417.352L443.359 415.5C444.703 413.391 445.398 411.211 445.445 408.961V405H450.836V408.633C450.836 410.039 450.445 411.562 449.664 413.203C448.883 414.844 447.844 416.227 446.547 417.352ZM478.141 428.555C478.141 432.461 477.25 435.594 475.469 437.953C473.703 440.297 471.312 441.469 468.297 441.469C465.734 441.469 463.664 440.578 462.086 438.797V450.75H455.312V415.641H461.594L461.828 418.125C463.469 416.156 465.609 415.172 468.25 415.172C471.375 415.172 473.805 416.328 475.539 418.641C477.273 420.953 478.141 424.141 478.141 428.203V428.555ZM471.367 428.062C471.367 425.703 470.945 423.883 470.102 422.602C469.273 421.32 468.062 420.68 466.469 420.68C464.344 420.68 462.883 421.492 462.086 423.117V433.5C462.914 435.172 464.391 436.008 466.516 436.008C469.75 436.008 471.367 433.359 471.367 428.062ZM496.609 421.992C495.688 421.867 494.875 421.805 494.172 421.805C491.609 421.805 489.93 422.672 489.133 424.406V441H482.359V415.641H488.758L488.945 418.664C490.305 416.336 492.188 415.172 494.594 415.172C495.344 415.172 496.047 415.273 496.703 415.477L496.609 421.992ZM497.992 428.086C497.992 425.57 498.477 423.328 499.445 421.359C500.414 419.391 501.805 417.867 503.617 416.789C505.445 415.711 507.562 415.172 509.969 415.172C513.391 415.172 516.18 416.219 518.336 418.312C520.508 420.406 521.719 423.25 521.969 426.844L522.016 428.578C522.016 432.469 520.93 435.594 518.758 437.953C516.586 440.297 513.672 441.469 510.016 441.469C506.359 441.469 503.438 440.297 501.25 437.953C499.078 435.609 497.992 432.422 497.992 428.391V428.086ZM504.766 428.578C504.766 430.984 505.219 432.828 506.125 434.109C507.031 435.375 508.328 436.008 510.016 436.008C511.656 436.008 512.938 435.383 513.859 434.133C514.781 432.867 515.242 430.852 515.242 428.086C515.242 425.727 514.781 423.898 513.859 422.602C512.938 421.305 511.641 420.656 509.969 420.656C508.312 420.656 507.031 421.305 506.125 422.602C505.219 423.883 504.766 425.875 504.766 428.578ZM549.016 428.555C549.016 432.461 548.125 435.594 546.344 437.953C544.578 440.297 542.188 441.469 539.172 441.469C536.609 441.469 534.539 440.578 532.961 438.797V450.75H526.188V415.641H532.469L532.703 418.125C534.344 416.156 536.484 415.172 539.125 415.172C542.25 415.172 544.68 416.328 546.414 418.641C548.148 420.953 549.016 424.141 549.016 428.203V428.555ZM542.242 428.062C542.242 425.703 541.82 423.883 540.977 422.602C540.148 421.32 538.938 420.68 537.344 420.68C535.219 420.68 533.758 421.492 532.961 423.117V433.5C533.789 435.172 535.266 436.008 537.391 436.008C540.625 436.008 542.242 433.359 542.242 428.062ZM564.906 441.469C561.188 441.469 558.156 440.328 555.812 438.047C553.484 435.766 552.32 432.727 552.32 428.93V428.273C552.32 425.727 552.812 423.453 553.797 421.453C554.781 419.438 556.172 417.891 557.969 416.812C559.781 415.719 561.844 415.172 564.156 415.172C567.625 415.172 570.352 416.266 572.336 418.453C574.336 420.641 575.336 423.742 575.336 427.758V430.523H559.188C559.406 432.18 560.062 433.508 561.156 434.508C562.266 435.508 563.664 436.008 565.352 436.008C567.961 436.008 570 435.062 571.469 433.172L574.797 436.898C573.781 438.336 572.406 439.461 570.672 440.273C568.938 441.07 567.016 441.469 564.906 441.469ZM564.133 420.656C562.789 420.656 561.695 421.109 560.852 422.016C560.023 422.922 559.492 424.219 559.258 425.906H568.68V425.367C568.648 423.867 568.242 422.711 567.461 421.898C566.68 421.07 565.57 420.656 564.133 420.656ZM593.453 421.992C592.531 421.867 591.719 421.805 591.016 421.805C588.453 421.805 586.773 422.672 585.977 424.406V441H579.203V415.641H585.602L585.789 418.664C587.148 416.336 589.031 415.172 591.438 415.172C592.188 415.172 592.891 415.273 593.547 415.477L593.453 421.992ZM606.016 409.406V415.641H610.352V420.609H606.016V433.266C606.016 434.203 606.195 434.875 606.555 435.281C606.914 435.688 607.602 435.891 608.617 435.891C609.367 435.891 610.031 435.836 610.609 435.727V440.859C609.281 441.266 607.914 441.469 606.508 441.469C601.758 441.469 599.336 439.07 599.242 434.273V420.609H595.539V415.641H599.242V409.406H606.016ZM623.594 431.414L628.281 415.641H635.547L625.352 444.938L624.789 446.273C623.273 449.586 620.773 451.242 617.289 451.242C616.305 451.242 615.305 451.094 614.289 450.797V445.664L615.32 445.688C616.602 445.688 617.555 445.492 618.18 445.102C618.82 444.711 619.32 444.062 619.68 443.156L620.477 441.07L611.594 415.641H618.883L623.594 431.414ZM640.867 417.352L637.68 415.5C639.023 413.391 639.719 411.211 639.766 408.961V405H645.156V408.633C645.156 410.039 644.766 411.562 643.984 413.203C643.203 414.844 642.164 416.227 640.867 417.352ZM649 417.352L645.812 415.5C647.156 413.391 647.852 411.211 647.898 408.961V405H653.289V408.633C653.289 410.039 652.898 411.562 652.117 413.203C651.336 414.844 650.297 416.227 649 417.352Z" fill="black"/>
<defs>
<filter id="filter0_d" x="671" y="15" width="97" height="518" filterUnits="userSpaceOnUse" color-interpolation-filters="sRGB">
<feFlood flood-opacity="0" result="BackgroundImageFix"/>
<feColorMatrix in="SourceAlpha" type="matrix" values="0 0 0 0 0 0 0 0 0 0 0 0 0 0 0 0 0 0 127 0" result="hardAlpha"/>
<feOffset dy="4"/>
<feGaussianBlur stdDeviation="2"/>
<feColorMatrix type="matrix" values="0 0 0 0 0 0 0 0 0 0 0 0 0 0 0 0 0 0 0.25 0"/>
<feBlend mode="normal" in2="BackgroundImageFix" result="effect1_dropShadow"/>
<feBlend mode="normal" in="SourceGraphic" in2="effect1_dropShadow" result="shape"/>
</filter>
<filter id="filter1_d" x="20" y="15" width="97.0001" height="518" filterUnits="userSpaceOnUse" color-interpolation-filters="sRGB">
<feFlood flood-opacity="0" result="BackgroundImageFix"/>
<feColorMatrix in="SourceAlpha" type="matrix" values="0 0 0 0 0 0 0 0 0 0 0 0 0 0 0 0 0 0 127 0" result="hardAlpha"/>
<feOffset dy="4"/>
<feGaussianBlur stdDeviation="2"/>
<feColorMatrix type="matrix" values="0 0 0 0 0 0 0 0 0 0 0 0 0 0 0 0 0 0 0.25 0"/>
<feBlend mode="normal" in2="BackgroundImageFix" result="effect1_dropShadow"/>
<feBlend mode="normal" in="SourceGraphic" in2="effect1_dropShadow" result="shape"/>
</filter>
</defs>
</svg>
