<svg width="1376" height="680" viewBox="0 0 1376 680" fill="none" xmlns="http://www.w3.org/2000/svg">
<g filter="url(#filter0_d)">
<rect x="623" y="96" width="124" height="124" rx="20" fill="#2F80ED"/>
<rect x="624" y="97" width="122" height="122" rx="19" stroke="black" stroke-width="2"/>
</g>
<path d="M672.641 179.865L650.776 158L672.641 136.135L665.986 129.48L637.466 158L665.986 186.52L672.641 179.865ZM697.358 179.865L719.224 158L697.358 136.135L704.013 129.48L732.533 158L704.013 186.52L697.358 179.865Z" fill="white"/>
<g filter="url(#filter1_d)">
<rect x="300" y="307" width="124" height="124" rx="20" fill="#2F80ED"/>
<rect x="301" y="308" width="122" height="122" rx="19" stroke="black" stroke-width="2"/>
</g>
<path d="M349.641 390.865L327.776 369L349.641 347.135L342.986 340.48L314.466 369L342.986 397.52L349.641 390.865ZM374.358 390.865L396.224 369L374.358 347.135L381.013 340.48L409.533 369L381.013 397.52L374.358 390.865Z" fill="white"/>
<path d="M361.5 305V284.475C361.5 273.43 370.454 264.475 381.5 264.475L993.5 264.475C1004.55 264.475 1013.5 273.43 1013.5 284.475L1013.5 305" stroke="#333333" stroke-width="2"/>
<circle cx="687" cy="220.5" r="5.5" fill="white" stroke="#333333" stroke-width="2"/>
<line x1="687" y1="265" x2="687" y2="225" stroke="#333333" stroke-width="2"/>
<path d="M1023.03 296L1013.77 306L1005 296" stroke="#333333" stroke-width="2" stroke-linecap="round" stroke-linejoin="round"/>
<path d="M371.026 296L361.769 306L353 296" stroke="#333333" stroke-width="2" stroke-linecap="round" stroke-linejoin="round"/>
<g filter="url(#filter2_d)">
<rect x="952" y="307" width="124" height="124" rx="20" fill="#2F80ED"/>
<rect x="953" y="308" width="122" height="122" rx="19" stroke="black" stroke-width="2"/>
</g>
<path d="M1001.64 390.865L979.776 369L1001.64 347.135L994.987 340.48L966.467 369L994.987 397.52L1001.64 390.865ZM1026.36 390.865L1048.22 369L1026.36 347.135L1033.01 340.48L1061.53 369L1033.01 397.52L1026.36 390.865Z" fill="white"/>
<path d="M454.615 239.176C454.475 242.012 453.771 244.25 452.506 245.891C451.24 247.531 449.547 248.352 447.426 248.352C445.234 248.352 443.828 247.367 443.207 245.398C442.574 246.395 441.848 247.139 441.027 247.631C440.219 248.111 439.381 248.352 438.514 248.352C436.85 248.352 435.59 247.672 434.734 246.312C433.879 244.953 433.562 243.072 433.785 240.67C433.961 238.736 434.4 237.014 435.104 235.502C435.818 233.979 436.732 232.783 437.846 231.916C438.971 231.049 440.148 230.615 441.379 230.615C442.328 230.615 443.178 230.744 443.928 231.002C444.678 231.248 445.521 231.74 446.459 232.479L445.545 242.217C445.322 244.924 446.072 246.277 447.795 246.277C449.119 246.277 450.191 245.621 451.012 244.309C451.832 242.996 452.277 241.285 452.348 239.176C452.57 234.617 451.721 231.143 449.799 228.752C447.889 226.361 444.977 225.166 441.062 225.166C438.707 225.166 436.615 225.752 434.787 226.924C432.959 228.084 431.518 229.766 430.463 231.969C429.408 234.172 428.816 236.715 428.688 239.598C428.547 242.504 428.898 245.029 429.742 247.174C430.586 249.307 431.869 250.936 433.592 252.061C435.326 253.197 437.418 253.766 439.867 253.766C440.922 253.766 441.977 253.637 443.031 253.379C444.098 253.121 444.982 252.787 445.686 252.377L446.336 254.398C445.609 254.855 444.643 255.23 443.436 255.523C442.24 255.816 441.027 255.963 439.797 255.963C436.867 255.963 434.348 255.301 432.238 253.977C430.129 252.664 428.547 250.766 427.492 248.281C426.449 245.809 425.998 242.914 426.139 239.598C426.279 236.375 427 233.48 428.301 230.914C429.602 228.336 431.365 226.35 433.592 224.955C435.818 223.549 438.332 222.846 441.133 222.846C444.051 222.846 446.553 223.502 448.639 224.814C450.725 226.127 452.277 228.02 453.297 230.492C454.316 232.965 454.756 235.859 454.615 239.176ZM436.58 240.67C436.416 242.334 436.568 243.611 437.037 244.502C437.518 245.393 438.273 245.838 439.305 245.838C440.008 245.838 440.682 245.539 441.326 244.941C441.982 244.344 442.521 243.488 442.943 242.375L442.961 242.217L443.77 233.375C443.113 233.035 442.41 232.865 441.66 232.865C440.289 232.865 439.152 233.562 438.25 234.957C437.359 236.352 436.803 238.256 436.58 240.67ZM463 248H459.625V222.406H463V248ZM471.754 228.98L471.859 231.371C473.312 229.543 475.211 228.629 477.555 228.629C481.574 228.629 483.602 230.896 483.637 235.432V248H480.385V235.414C480.373 234.043 480.057 233.029 479.436 232.373C478.826 231.717 477.871 231.389 476.57 231.389C475.516 231.389 474.59 231.67 473.793 232.232C472.996 232.795 472.375 233.533 471.93 234.447V248H468.678V228.98H471.754ZM504.607 238.701C504.607 241.596 503.945 243.928 502.621 245.697C501.297 247.467 499.504 248.352 497.242 248.352C494.934 248.352 493.117 247.619 491.793 246.154V255.312H488.541V228.98H491.512L491.67 231.09C492.994 229.449 494.834 228.629 497.189 228.629C499.475 228.629 501.279 229.49 502.604 231.213C503.939 232.936 504.607 235.332 504.607 238.402V238.701ZM501.355 238.332C501.355 236.188 500.898 234.494 499.984 233.252C499.07 232.01 497.816 231.389 496.223 231.389C494.254 231.389 492.777 232.262 491.793 234.008V243.096C492.766 244.83 494.254 245.697 496.258 245.697C497.816 245.697 499.053 245.082 499.967 243.852C500.893 242.609 501.355 240.77 501.355 238.332ZM520.498 246.119C519.232 247.607 517.375 248.352 514.926 248.352C512.898 248.352 511.352 247.766 510.285 246.594C509.23 245.41 508.697 243.664 508.686 241.355V228.98H511.938V241.268C511.938 244.15 513.109 245.592 515.453 245.592C517.938 245.592 519.59 244.666 520.41 242.814V228.98H523.662V248H520.568L520.498 246.119ZM533.031 224.375V228.98H536.582V231.494H533.031V243.289C533.031 244.051 533.189 244.625 533.506 245.012C533.822 245.387 534.361 245.574 535.123 245.574C535.498 245.574 536.014 245.504 536.67 245.363V248C535.814 248.234 534.982 248.352 534.174 248.352C532.721 248.352 531.625 247.912 530.887 247.033C530.148 246.154 529.779 244.906 529.779 243.289V231.494H526.316V228.98H529.779V224.375H533.031Z" fill="#55A275"/>
<path d="M868.615 239.176C868.475 242.012 867.771 244.25 866.506 245.891C865.24 247.531 863.547 248.352 861.426 248.352C859.234 248.352 857.828 247.367 857.207 245.398C856.574 246.395 855.848 247.139 855.027 247.631C854.219 248.111 853.381 248.352 852.514 248.352C850.85 248.352 849.59 247.672 848.734 246.312C847.879 244.953 847.562 243.072 847.785 240.67C847.961 238.736 848.4 237.014 849.104 235.502C849.818 233.979 850.732 232.783 851.846 231.916C852.971 231.049 854.148 230.615 855.379 230.615C856.328 230.615 857.178 230.744 857.928 231.002C858.678 231.248 859.521 231.74 860.459 232.479L859.545 242.217C859.322 244.924 860.072 246.277 861.795 246.277C863.119 246.277 864.191 245.621 865.012 244.309C865.832 242.996 866.277 241.285 866.348 239.176C866.57 234.617 865.721 231.143 863.799 228.752C861.889 226.361 858.977 225.166 855.062 225.166C852.707 225.166 850.615 225.752 848.787 226.924C846.959 228.084 845.518 229.766 844.463 231.969C843.408 234.172 842.816 236.715 842.688 239.598C842.547 242.504 842.898 245.029 843.742 247.174C844.586 249.307 845.869 250.936 847.592 252.061C849.326 253.197 851.418 253.766 853.867 253.766C854.922 253.766 855.977 253.637 857.031 253.379C858.098 253.121 858.982 252.787 859.686 252.377L860.336 254.398C859.609 254.855 858.643 255.23 857.436 255.523C856.24 255.816 855.027 255.963 853.797 255.963C850.867 255.963 848.348 255.301 846.238 253.977C844.129 252.664 842.547 250.766 841.492 248.281C840.449 245.809 839.998 242.914 840.139 239.598C840.279 236.375 841 233.48 842.301 230.914C843.602 228.336 845.365 226.35 847.592 224.955C849.818 223.549 852.332 222.846 855.133 222.846C858.051 222.846 860.553 223.502 862.639 224.814C864.725 226.127 866.277 228.02 867.297 230.492C868.316 232.965 868.756 235.859 868.615 239.176ZM850.58 240.67C850.416 242.334 850.568 243.611 851.037 244.502C851.518 245.393 852.273 245.838 853.305 245.838C854.008 245.838 854.682 245.539 855.326 244.941C855.982 244.344 856.521 243.488 856.943 242.375L856.961 242.217L857.77 233.375C857.113 233.035 856.41 232.865 855.66 232.865C854.289 232.865 853.152 233.562 852.25 234.957C851.359 236.352 850.803 238.256 850.58 240.67ZM877 248H873.625V222.406H877V248ZM885.754 228.98L885.859 231.371C887.312 229.543 889.211 228.629 891.555 228.629C895.574 228.629 897.602 230.896 897.637 235.432V248H894.385V235.414C894.373 234.043 894.057 233.029 893.436 232.373C892.826 231.717 891.871 231.389 890.57 231.389C889.516 231.389 888.59 231.67 887.793 232.232C886.996 232.795 886.375 233.533 885.93 234.447V248H882.678V228.98H885.754ZM918.607 238.701C918.607 241.596 917.945 243.928 916.621 245.697C915.297 247.467 913.504 248.352 911.242 248.352C908.934 248.352 907.117 247.619 905.793 246.154V255.312H902.541V228.98H905.512L905.67 231.09C906.994 229.449 908.834 228.629 911.189 228.629C913.475 228.629 915.279 229.49 916.604 231.213C917.939 232.936 918.607 235.332 918.607 238.402V238.701ZM915.355 238.332C915.355 236.188 914.898 234.494 913.984 233.252C913.07 232.01 911.816 231.389 910.223 231.389C908.254 231.389 906.777 232.262 905.793 234.008V243.096C906.766 244.83 908.254 245.697 910.258 245.697C911.816 245.697 913.053 245.082 913.967 243.852C914.893 242.609 915.355 240.77 915.355 238.332ZM934.498 246.119C933.232 247.607 931.375 248.352 928.926 248.352C926.898 248.352 925.352 247.766 924.285 246.594C923.23 245.41 922.697 243.664 922.686 241.355V228.98H925.938V241.268C925.938 244.15 927.109 245.592 929.453 245.592C931.938 245.592 933.59 244.666 934.41 242.814V228.98H937.662V248H934.568L934.498 246.119ZM947.031 224.375V228.98H950.582V231.494H947.031V243.289C947.031 244.051 947.189 244.625 947.506 245.012C947.822 245.387 948.361 245.574 949.123 245.574C949.498 245.574 950.014 245.504 950.67 245.363V248C949.814 248.234 948.982 248.352 948.174 248.352C946.721 248.352 945.625 247.912 944.887 247.033C944.148 246.154 943.779 244.906 943.779 243.289V231.494H940.316V228.98H943.779V224.375H947.031Z" fill="#55A175"/>
<path d="M947 367L727 367C704.909 367 687 349.091 687 327L687 267.5" stroke="#333333" stroke-width="2" stroke-linecap="round" stroke-linejoin="round"/>
<path d="M687.762 266.34L695.008 274.328C695.591 274.971 695.135 276 694.268 276L680.174 276C679.32 276 678.859 274.998 679.415 274.349L686.262 266.361C686.654 265.904 687.357 265.894 687.762 266.34Z" fill="#333333"/>
<circle r="5.5" transform="matrix(4.37114e-08 -1 -1 -4.37114e-08 951.5 367.5)" fill="white" stroke="#333333" stroke-width="2"/>
<path d="M783.799 389.176C783.658 392.012 782.955 394.25 781.69 395.891C780.424 397.531 778.731 398.352 776.61 398.352C774.418 398.352 773.012 397.367 772.391 395.398C771.758 396.395 771.031 397.139 770.211 397.631C769.403 398.111 768.565 398.352 767.698 398.352C766.033 398.352 764.774 397.672 763.918 396.312C763.063 394.953 762.746 393.072 762.969 390.67C763.145 388.736 763.584 387.014 764.287 385.502C765.002 383.979 765.916 382.783 767.03 381.916C768.155 381.049 769.332 380.615 770.563 380.615C771.512 380.615 772.362 380.744 773.112 381.002C773.862 381.248 774.705 381.74 775.643 382.479L774.729 392.217C774.506 394.924 775.256 396.277 776.979 396.277C778.303 396.277 779.375 395.621 780.196 394.309C781.016 392.996 781.461 391.285 781.531 389.176C781.754 384.617 780.905 381.143 778.983 378.752C777.073 376.361 774.16 375.166 770.246 375.166C767.891 375.166 765.799 375.752 763.971 376.924C762.143 378.084 760.701 379.766 759.647 381.969C758.592 384.172 758 386.715 757.871 389.598C757.731 392.504 758.082 395.029 758.926 397.174C759.77 399.307 761.053 400.936 762.776 402.061C764.51 403.197 766.602 403.766 769.051 403.766C770.106 403.766 771.16 403.637 772.215 403.379C773.281 403.121 774.166 402.787 774.869 402.377L775.52 404.398C774.793 404.855 773.826 405.23 772.619 405.523C771.424 405.816 770.211 405.963 768.981 405.963C766.051 405.963 763.531 405.301 761.422 403.977C759.313 402.664 757.731 400.766 756.676 398.281C755.633 395.809 755.182 392.914 755.323 389.598C755.463 386.375 756.184 383.48 757.485 380.914C758.785 378.336 760.549 376.35 762.776 374.955C765.002 373.549 767.516 372.846 770.317 372.846C773.235 372.846 775.737 373.502 777.823 374.814C779.908 376.127 781.461 378.02 782.481 380.492C783.5 382.965 783.94 385.859 783.799 389.176ZM765.764 390.67C765.6 392.334 765.752 393.611 766.221 394.502C766.701 395.393 767.457 395.838 768.489 395.838C769.192 395.838 769.865 395.539 770.51 394.941C771.166 394.344 771.705 393.488 772.127 392.375L772.145 392.217L772.953 383.375C772.297 383.035 771.594 382.865 770.844 382.865C769.473 382.865 768.336 383.562 767.434 384.957C766.543 386.352 765.987 388.256 765.764 390.67ZM808.25 386.029C808.25 388.537 807.828 390.729 806.985 392.604C806.141 394.467 804.946 395.891 803.399 396.875C801.852 397.859 800.047 398.352 797.985 398.352C795.969 398.352 794.182 397.859 792.623 396.875C791.065 395.879 789.852 394.467 788.985 392.639C788.129 390.799 787.69 388.672 787.666 386.258V384.412C787.666 381.951 788.094 379.777 788.949 377.891C789.805 376.004 791.012 374.562 792.571 373.566C794.141 372.559 795.934 372.055 797.949 372.055C800 372.055 801.805 372.553 803.364 373.549C804.934 374.533 806.141 375.969 806.985 377.855C807.828 379.73 808.25 381.916 808.25 384.412V386.029ZM804.893 384.377C804.893 381.342 804.283 379.016 803.065 377.398C801.846 375.77 800.141 374.955 797.949 374.955C795.817 374.955 794.135 375.77 792.905 377.398C791.686 379.016 791.059 381.266 791.024 384.148V386.029C791.024 388.971 791.639 391.285 792.869 392.973C794.112 394.648 795.817 395.486 797.985 395.486C800.164 395.486 801.852 394.695 803.047 393.113C804.242 391.52 804.858 389.24 804.893 386.275V384.377ZM824.545 396.119C823.28 397.607 821.422 398.352 818.973 398.352C816.946 398.352 815.399 397.766 814.332 396.594C813.278 395.41 812.744 393.664 812.733 391.355V378.98H815.985V391.268C815.985 394.15 817.156 395.592 819.5 395.592C821.985 395.592 823.637 394.666 824.457 392.814V378.98H827.709V398H824.615L824.545 396.119ZM837.078 374.375V378.98H840.629V381.494H837.078V393.289C837.078 394.051 837.237 394.625 837.553 395.012C837.869 395.387 838.408 395.574 839.17 395.574C839.545 395.574 840.061 395.504 840.717 395.363V398C839.862 398.234 839.03 398.352 838.221 398.352C836.768 398.352 835.672 397.912 834.934 397.033C834.196 396.154 833.826 394.906 833.826 393.289V381.494H830.364V378.98H833.826V374.375H837.078ZM860.51 388.701C860.51 391.596 859.848 393.928 858.524 395.697C857.199 397.467 855.406 398.352 853.145 398.352C850.836 398.352 849.02 397.619 847.696 396.154V405.312H844.444V378.98H847.414L847.573 381.09C848.897 379.449 850.737 378.629 853.092 378.629C855.377 378.629 857.182 379.49 858.506 381.213C859.842 382.936 860.51 385.332 860.51 388.402V388.701ZM857.258 388.332C857.258 386.188 856.801 384.494 855.887 383.252C854.973 382.01 853.719 381.389 852.125 381.389C850.156 381.389 848.68 382.262 847.696 384.008V393.096C848.668 394.83 850.156 395.697 852.16 395.697C853.719 395.697 854.955 395.082 855.869 393.852C856.795 392.609 857.258 390.77 857.258 388.332ZM876.401 396.119C875.135 397.607 873.278 398.352 870.828 398.352C868.801 398.352 867.254 397.766 866.188 396.594C865.133 395.41 864.6 393.664 864.588 391.355V378.98H867.84V391.268C867.84 394.15 869.012 395.592 871.356 395.592C873.84 395.592 875.492 394.666 876.313 392.814V378.98H879.565V398H876.471L876.401 396.119ZM888.934 374.375V378.98H892.485V381.494H888.934V393.289C888.934 394.051 889.092 394.625 889.408 395.012C889.725 395.387 890.264 395.574 891.026 395.574C891.401 395.574 891.916 395.504 892.573 395.363V398C891.717 398.234 890.885 398.352 890.076 398.352C888.623 398.352 887.528 397.912 886.789 397.033C886.051 396.154 885.682 394.906 885.682 393.289V381.494H882.219V378.98H885.682V374.375H888.934Z" fill="#2D9CDB"/>
<path d="M429 367L647 367C669.091 367 687 349.091 687 327L687 267.5" stroke="#333333" stroke-width="2" stroke-linecap="round" stroke-linejoin="round"/>
<path d="M686.238 266.34L678.992 274.328C678.409 274.971 678.865 276 679.732 276L693.826 276C694.68 276 695.141 274.998 694.585 274.349L687.738 266.361C687.346 265.904 686.643 265.894 686.238 266.34Z" fill="#333333"/>
<circle cx="424.5" cy="367.5" r="5.5" transform="rotate(-90 424.5 367.5)" fill="white" stroke="#333333" stroke-width="2"/>
<path d="M511.756 389.176C511.615 392.012 510.912 394.25 509.646 395.891C508.381 397.531 506.688 398.352 504.566 398.352C502.375 398.352 500.969 397.367 500.348 395.398C499.715 396.395 498.988 397.139 498.168 397.631C497.359 398.111 496.521 398.352 495.654 398.352C493.99 398.352 492.73 397.672 491.875 396.312C491.02 394.953 490.703 393.072 490.926 390.67C491.102 388.736 491.541 387.014 492.244 385.502C492.959 383.979 493.873 382.783 494.986 381.916C496.111 381.049 497.289 380.615 498.52 380.615C499.469 380.615 500.318 380.744 501.068 381.002C501.818 381.248 502.662 381.74 503.6 382.479L502.686 392.217C502.463 394.924 503.213 396.277 504.936 396.277C506.26 396.277 507.332 395.621 508.152 394.309C508.973 392.996 509.418 391.285 509.488 389.176C509.711 384.617 508.861 381.143 506.939 378.752C505.029 376.361 502.117 375.166 498.203 375.166C495.848 375.166 493.756 375.752 491.928 376.924C490.1 378.084 488.658 379.766 487.604 381.969C486.549 384.172 485.957 386.715 485.828 389.598C485.688 392.504 486.039 395.029 486.883 397.174C487.727 399.307 489.01 400.936 490.732 402.061C492.467 403.197 494.559 403.766 497.008 403.766C498.062 403.766 499.117 403.637 500.172 403.379C501.238 403.121 502.123 402.787 502.826 402.377L503.477 404.398C502.75 404.855 501.783 405.23 500.576 405.523C499.381 405.816 498.168 405.963 496.938 405.963C494.008 405.963 491.488 405.301 489.379 403.977C487.27 402.664 485.688 400.766 484.633 398.281C483.59 395.809 483.139 392.914 483.279 389.598C483.42 386.375 484.141 383.48 485.441 380.914C486.742 378.336 488.506 376.35 490.732 374.955C492.959 373.549 495.473 372.846 498.273 372.846C501.191 372.846 503.693 373.502 505.779 374.814C507.865 376.127 509.418 378.02 510.438 380.492C511.457 382.965 511.896 385.859 511.756 389.176ZM493.721 390.67C493.557 392.334 493.709 393.611 494.178 394.502C494.658 395.393 495.414 395.838 496.445 395.838C497.148 395.838 497.822 395.539 498.467 394.941C499.123 394.344 499.662 393.488 500.084 392.375L500.102 392.217L500.91 383.375C500.254 383.035 499.551 382.865 498.801 382.865C497.43 382.865 496.293 383.562 495.391 384.957C494.5 386.352 493.943 388.256 493.721 390.67ZM536.207 386.029C536.207 388.537 535.785 390.729 534.941 392.604C534.098 394.467 532.902 395.891 531.355 396.875C529.809 397.859 528.004 398.352 525.941 398.352C523.926 398.352 522.139 397.859 520.58 396.875C519.021 395.879 517.809 394.467 516.941 392.639C516.086 390.799 515.646 388.672 515.623 386.258V384.412C515.623 381.951 516.051 379.777 516.906 377.891C517.762 376.004 518.969 374.562 520.527 373.566C522.098 372.559 523.891 372.055 525.906 372.055C527.957 372.055 529.762 372.553 531.32 373.549C532.891 374.533 534.098 375.969 534.941 377.855C535.785 379.73 536.207 381.916 536.207 384.412V386.029ZM532.85 384.377C532.85 381.342 532.24 379.016 531.021 377.398C529.803 375.77 528.098 374.955 525.906 374.955C523.773 374.955 522.092 375.77 520.861 377.398C519.643 379.016 519.016 381.266 518.98 384.148V386.029C518.98 388.971 519.596 391.285 520.826 392.973C522.068 394.648 523.773 395.486 525.941 395.486C528.121 395.486 529.809 394.695 531.004 393.113C532.199 391.52 532.814 389.24 532.85 386.275V384.377ZM552.502 396.119C551.236 397.607 549.379 398.352 546.93 398.352C544.902 398.352 543.355 397.766 542.289 396.594C541.234 395.41 540.701 393.664 540.689 391.355V378.98H543.941V391.268C543.941 394.15 545.113 395.592 547.457 395.592C549.941 395.592 551.594 394.666 552.414 392.814V378.98H555.666V398H552.572L552.502 396.119ZM565.035 374.375V378.98H568.586V381.494H565.035V393.289C565.035 394.051 565.193 394.625 565.51 395.012C565.826 395.387 566.365 395.574 567.127 395.574C567.502 395.574 568.018 395.504 568.674 395.363V398C567.818 398.234 566.986 398.352 566.178 398.352C564.725 398.352 563.629 397.912 562.891 397.033C562.152 396.154 561.783 394.906 561.783 393.289V381.494H558.32V378.98H561.783V374.375H565.035ZM588.467 388.701C588.467 391.596 587.805 393.928 586.48 395.697C585.156 397.467 583.363 398.352 581.102 398.352C578.793 398.352 576.977 397.619 575.652 396.154V405.312H572.4V378.98H575.371L575.529 381.09C576.854 379.449 578.693 378.629 581.049 378.629C583.334 378.629 585.139 379.49 586.463 381.213C587.799 382.936 588.467 385.332 588.467 388.402V388.701ZM585.215 388.332C585.215 386.188 584.758 384.494 583.844 383.252C582.93 382.01 581.676 381.389 580.082 381.389C578.113 381.389 576.637 382.262 575.652 384.008V393.096C576.625 394.83 578.113 395.697 580.117 395.697C581.676 395.697 582.912 395.082 583.826 393.852C584.752 392.609 585.215 390.77 585.215 388.332ZM604.357 396.119C603.092 397.607 601.234 398.352 598.785 398.352C596.758 398.352 595.211 397.766 594.145 396.594C593.09 395.41 592.557 393.664 592.545 391.355V378.98H595.797V391.268C595.797 394.15 596.969 395.592 599.312 395.592C601.797 395.592 603.449 394.666 604.27 392.814V378.98H607.521V398H604.428L604.357 396.119ZM616.891 374.375V378.98H620.441V381.494H616.891V393.289C616.891 394.051 617.049 394.625 617.365 395.012C617.682 395.387 618.221 395.574 618.982 395.574C619.357 395.574 619.873 395.504 620.529 395.363V398C619.674 398.234 618.842 398.352 618.033 398.352C616.58 398.352 615.484 397.912 614.746 397.033C614.008 396.154 613.639 394.906 613.639 393.289V381.494H610.176V378.98H613.639V374.375H616.891Z" fill="#2D9CDB"/>
<g filter="url(#filter3_d)">
<path d="M106.5 30L57.5 30C46.4544 30 37.5 38.9543 37.5 50L37.5 464.5C37.5 475.546 28.5457 484.5 17.5 484.5L4 484.5L82 540L160 484.5L146.5 484.5C135.454 484.5 126.5 475.546 126.5 464.5L126.5 50C126.5 38.9543 117.546 30 106.5 30Z" fill="#6FCF97"/>
<path d="M38.5 50C38.5 39.5066 47.0066 31 57.5 31L106.5 31C116.993 31 125.5 39.5066 125.5 50L125.5 464.5C125.5 476.098 134.902 485.5 146.5 485.5L156.87 485.5L82 538.773L7.13028 485.5L17.5 485.5C29.098 485.5 38.5 476.098 38.5 464.5L38.5 50Z" stroke="black" stroke-width="2"/>
</g>
<path d="M97.5 330.925L63.375 330.925V320.425C63.375 317.425 64.0547 314.745 65.4141 312.386C66.7578 310.011 68.6797 308.159 71.1797 306.831C73.6641 305.503 76.4922 304.839 79.6641 304.839L81.2344 304.839C84.4063 304.839 87.2266 305.495 89.6953 306.808C92.1641 308.105 94.0781 309.94 95.4375 312.315C96.7969 314.69 97.4844 317.37 97.5 320.355V330.925ZM69.0703 323.894L91.8516 323.894V320.495C91.8516 317.745 90.9531 315.644 89.1563 314.19C87.3594 312.737 84.7891 311.995 81.4453 311.964L79.6406 311.964C76.1719 311.964 73.5469 312.683 71.7656 314.12C69.9688 315.558 69.0703 317.659 69.0703 320.425V323.894ZM97.5 285.456C96.8906 285.769 96.1328 285.995 95.2266 286.136C97.0547 287.776 97.9688 289.909 97.9688 292.534C97.9688 295.019 97.25 297.081 95.8125 298.722C94.375 300.347 92.5625 301.159 90.375 301.159C87.6875 301.159 85.625 300.167 84.1875 298.183C82.75 296.183 82.0234 293.3 82.0078 289.534V286.417L80.5547 286.417C79.3828 286.417 78.4453 286.722 77.7422 287.331C77.0391 287.925 76.6875 288.87 76.6875 290.167C76.6875 291.308 76.9609 292.206 77.5078 292.862C78.0547 293.503 78.8047 293.823 79.7578 293.823V300.597C78.2891 300.597 76.9297 300.144 75.6797 299.237C74.4297 298.331 73.4531 297.05 72.75 295.394C72.0313 293.737 71.6719 291.878 71.6719 289.815C71.6719 286.69 72.4609 284.214 74.0391 282.386C75.6016 280.542 77.8047 279.62 80.6484 279.62L91.6406 279.62C94.0469 279.605 95.8672 279.269 97.1016 278.612L97.5 278.612V285.456ZM92.7891 291.058C92.7891 290.058 92.5703 289.136 92.1328 288.292C91.6797 287.448 91.0781 286.823 90.3281 286.417L85.9688 286.417V288.948C85.9688 292.339 87.1406 294.144 89.4844 294.362L89.8828 294.386C90.7266 294.386 91.4219 294.089 91.9688 293.495C92.5156 292.901 92.7891 292.089 92.7891 291.058ZM65.9063 266.308L72.1406 266.308V261.972L77.1094 261.972V266.308L89.7656 266.308C90.7031 266.308 91.375 266.128 91.7813 265.769C92.1875 265.409 92.3906 264.722 92.3906 263.706C92.3906 262.956 92.3359 262.292 92.2266 261.714L97.3594 261.714C97.7656 263.042 97.9688 264.409 97.9688 265.815C97.9688 270.565 95.5703 272.987 90.7734 273.081L77.1094 273.081V276.784L72.1406 276.784V273.081L65.9063 273.081V266.308ZM97.5 243.503C96.8906 243.815 96.1328 244.042 95.2266 244.183C97.0547 245.823 97.9688 247.956 97.9688 250.581C97.9688 253.065 97.25 255.128 95.8125 256.769C94.375 258.394 92.5625 259.206 90.375 259.206C87.6875 259.206 85.625 258.214 84.1875 256.23C82.75 254.23 82.0234 251.347 82.0078 247.581V244.464L80.5547 244.464C79.3828 244.464 78.4453 244.769 77.7422 245.378C77.0391 245.972 76.6875 246.917 76.6875 248.214C76.6875 249.355 76.9609 250.253 77.5078 250.909C78.0547 251.55 78.8047 251.87 79.7578 251.87V258.644C78.2891 258.644 76.9297 258.19 75.6797 257.284C74.4297 256.378 73.4531 255.097 72.75 253.44C72.0313 251.784 71.6719 249.925 71.6719 247.862C71.6719 244.737 72.4609 242.261 74.0391 240.433C75.6016 238.589 77.8047 237.667 80.6484 237.667L91.6406 237.667C94.0469 237.651 95.8672 237.315 97.1016 236.659L97.5 236.659V243.503ZM92.7891 249.105C92.7891 248.105 92.5703 247.183 92.1328 246.339C91.6797 245.495 91.0781 244.87 90.3281 244.464L85.9688 244.464V246.995C85.9688 250.386 87.1406 252.19 89.4844 252.409L89.8828 252.433C90.7266 252.433 91.4219 252.136 91.9688 251.542C92.5156 250.948 92.7891 250.136 92.7891 249.105Z" fill="white"/>
<g filter="url(#filter4_d)">
<path d="M1269.5 540H1318.5C1329.55 540 1338.5 531.046 1338.5 520V105.5C1338.5 94.4543 1347.45 85.5 1358.5 85.5H1372L1294 30L1216 85.5H1229.5C1240.55 85.5 1249.5 94.4543 1249.5 105.5V520C1249.5 531.046 1258.45 540 1269.5 540Z" fill="#2D9CDB"/>
<path d="M1337.5 520C1337.5 530.493 1328.99 539 1318.5 539H1269.5C1259.01 539 1250.5 530.493 1250.5 520V105.5C1250.5 93.902 1241.1 84.5 1229.5 84.5H1219.13L1294 31.2273L1368.87 84.5H1358.5C1346.9 84.5 1337.5 93.902 1337.5 105.5V520Z" stroke="black" stroke-width="2"/>
</g>
<path d="M1293.79 236.026V222.526L1284.65 222.526V238.37L1279 238.37V215.495L1313.12 215.495V238.323L1307.43 238.323V222.526L1299.3 222.526V236.026L1293.79 236.026ZM1287.27 250.933L1304.36 255.644V262.722L1279 254.167V247.698L1304.36 239.144V246.222L1287.27 250.933ZM1278.53 277.065C1278.53 273.347 1279.67 270.315 1281.95 267.972C1284.23 265.644 1287.27 264.479 1291.07 264.479L1291.73 264.479C1294.27 264.479 1296.55 264.972 1298.55 265.956C1300.56 266.94 1302.11 268.331 1303.19 270.128C1304.28 271.94 1304.83 274.003 1304.83 276.315C1304.83 279.784 1303.73 282.511 1301.55 284.495C1299.36 286.495 1296.26 287.495 1292.24 287.495L1289.48 287.495V271.347C1287.82 271.565 1286.49 272.222 1285.49 273.315C1284.49 274.425 1283.99 275.823 1283.99 277.511C1283.99 280.12 1284.94 282.159 1286.83 283.628L1283.1 286.956C1281.66 285.94 1280.54 284.565 1279.73 282.831C1278.93 281.097 1278.53 279.175 1278.53 277.065ZM1299.34 276.292C1299.34 274.948 1298.89 273.854 1297.98 273.011C1297.08 272.183 1295.78 271.651 1294.09 271.417V280.839L1294.63 280.839C1296.13 280.808 1297.29 280.401 1298.1 279.62C1298.93 278.839 1299.34 277.729 1299.34 276.292ZM1304.36 297.597L1301.43 297.808C1303.7 299.62 1304.83 302.05 1304.83 305.097C1304.83 307.784 1304.04 309.784 1302.46 311.097C1300.88 312.409 1298.52 313.081 1295.38 313.112L1279 313.112V306.339L1295.22 306.339C1296.66 306.339 1297.7 306.026 1298.34 305.401C1298.99 304.776 1299.32 303.737 1299.32 302.284C1299.32 300.378 1298.51 298.948 1296.88 297.995L1279 297.995V291.222L1304.36 291.222V297.597ZM1310.59 326.378L1304.36 326.378V330.714L1299.39 330.714V326.378L1286.73 326.378C1285.8 326.378 1285.12 326.558 1284.72 326.917C1284.31 327.276 1284.11 327.964 1284.11 328.979C1284.11 329.729 1284.16 330.394 1284.27 330.972L1279.14 330.972C1278.73 329.644 1278.53 328.276 1278.53 326.87C1278.53 322.12 1280.93 319.698 1285.73 319.604L1299.39 319.604V315.901L1304.36 315.901V319.604L1310.59 319.604V326.378ZM1286.01 348.222C1286.84 348.222 1287.48 347.808 1287.95 346.979C1288.44 346.167 1288.87 344.854 1289.24 343.042C1290.51 337.011 1293.07 333.995 1296.93 333.995C1299.18 333.995 1301.05 334.925 1302.55 336.784C1304.07 338.659 1304.83 341.104 1304.83 344.12C1304.83 347.339 1304.07 349.909 1302.55 351.831C1301.04 353.769 1299.07 354.737 1296.65 354.737V347.964C1297.62 347.964 1298.41 347.651 1299.04 347.026C1299.68 346.401 1300 345.425 1300 344.097C1300 342.956 1299.74 342.073 1299.23 341.448C1298.71 340.823 1298.05 340.511 1297.26 340.511C1296.51 340.511 1295.9 340.862 1295.43 341.565C1294.98 342.284 1294.58 343.487 1294.23 345.175C1293.91 346.862 1293.53 348.284 1293.11 349.44C1291.8 353.019 1289.52 354.808 1286.29 354.808C1283.98 354.808 1282.1 353.815 1280.66 351.831C1279.24 349.847 1278.53 347.284 1278.53 344.144C1278.53 342.019 1278.91 340.128 1279.66 338.472C1280.42 336.831 1281.46 335.542 1282.77 334.604C1284.1 333.667 1285.53 333.198 1287.06 333.198V339.62C1285.86 339.683 1284.94 340.128 1284.3 340.956C1283.66 341.784 1283.34 342.894 1283.34 344.284C1283.34 345.581 1283.58 346.558 1284.06 347.214C1284.56 347.886 1285.21 348.222 1286.01 348.222Z" fill="white"/>
<defs>
<filter id="filter0_d" x="619" y="96" width="132" height="132" filterUnits="userSpaceOnUse" color-interpolation-filters="sRGB">
<feFlood flood-opacity="0" result="BackgroundImageFix"/>
<feColorMatrix in="SourceAlpha" type="matrix" values="0 0 0 0 0 0 0 0 0 0 0 0 0 0 0 0 0 0 127 0" result="hardAlpha"/>
<feOffset dy="4"/>
<feGaussianBlur stdDeviation="2"/>
<feColorMatrix type="matrix" values="0 0 0 0 0 0 0 0 0 0 0 0 0 0 0 0 0 0 0.25 0"/>
<feBlend mode="normal" in2="BackgroundImageFix" result="effect1_dropShadow"/>
<feBlend mode="normal" in="SourceGraphic" in2="effect1_dropShadow" result="shape"/>
</filter>
<filter id="filter1_d" x="296" y="307" width="132" height="132" filterUnits="userSpaceOnUse" color-interpolation-filters="sRGB">
<feFlood flood-opacity="0" result="BackgroundImageFix"/>
<feColorMatrix in="SourceAlpha" type="matrix" values="0 0 0 0 0 0 0 0 0 0 0 0 0 0 0 0 0 0 127 0" result="hardAlpha"/>
<feOffset dy="4"/>
<feGaussianBlur stdDeviation="2"/>
<feColorMatrix type="matrix" values="0 0 0 0 0 0 0 0 0 0 0 0 0 0 0 0 0 0 0.25 0"/>
<feBlend mode="normal" in2="BackgroundImageFix" result="effect1_dropShadow"/>
<feBlend mode="normal" in="SourceGraphic" in2="effect1_dropShadow" result="shape"/>
</filter>
<filter id="filter2_d" x="948" y="307" width="132" height="132" filterUnits="userSpaceOnUse" color-interpolation-filters="sRGB">
<feFlood flood-opacity="0" result="BackgroundImageFix"/>
<feColorMatrix in="SourceAlpha" type="matrix" values="0 0 0 0 0 0 0 0 0 0 0 0 0 0 0 0 0 0 127 0" result="hardAlpha"/>
<feOffset dy="4"/>
<feGaussianBlur stdDeviation="2"/>
<feColorMatrix type="matrix" values="0 0 0 0 0 0 0 0 0 0 0 0 0 0 0 0 0 0 0.25 0"/>
<feBlend mode="normal" in2="BackgroundImageFix" result="effect1_dropShadow"/>
<feBlend mode="normal" in="SourceGraphic" in2="effect1_dropShadow" result="shape"/>
</filter>
<filter id="filter3_d" x="0" y="30" width="164" height="518" filterUnits="userSpaceOnUse" color-interpolation-filters="sRGB">
<feFlood flood-opacity="0" result="BackgroundImageFix"/>
<feColorMatrix in="SourceAlpha" type="matrix" values="0 0 0 0 0 0 0 0 0 0 0 0 0 0 0 0 0 0 127 0" result="hardAlpha"/>
<feOffset dy="4"/>
<feGaussianBlur stdDeviation="2"/>
<feColorMatrix type="matrix" values="0 0 0 0 0 0 0 0 0 0 0 0 0 0 0 0 0 0 0.25 0"/>
<feBlend mode="normal" in2="BackgroundImageFix" result="effect1_dropShadow"/>
<feBlend mode="normal" in="SourceGraphic" in2="effect1_dropShadow" result="shape"/>
</filter>
<filter id="filter4_d" x="1212" y="30" width="164" height="518" filterUnits="userSpaceOnUse" color-interpolation-filters="sRGB">
<feFlood flood-opacity="0" result="BackgroundImageFix"/>
<feColorMatrix in="SourceAlpha" type="matrix" values="0 0 0 0 0 0 0 0 0 0 0 0 0 0 0 0 0 0 127 0" result="hardAlpha"/>
<feOffset dy="4"/>
<feGaussianBlur stdDeviation="2"/>
<feColorMatrix type="matrix" values="0 0 0 0 0 0 0 0 0 0 0 0 0 0 0 0 0 0 0.25 0"/>
<feBlend mode="normal" in2="BackgroundImageFix" result="effect1_dropShadow"/>
<feBlend mode="normal" in="SourceGraphic" in2="effect1_dropShadow" result="shape"/>
</filter>
</defs>
</svg>
